{"glyphs":{"0":{"ha":569,"x_min":0,"x_max":0,"o":"m 554 388 b 519 231 557 332 546 281 b 517 203 515 222 511 213 b 511 174 525 192 521 182 b 449 111 490 153 469 132 b 424 108 440 103 433 100 b 410 107 418 113 414 110 b 383 86 401 100 393 92 b 307 60 358 68 333 60 b 129 199 229 60 161 135 b 14 646 54 339 15 488 b 71 808 14 703 25 769 b 89 851 83 821 90 833 b 108 899 86 871 94 886 b 175 965 132 921 153 943 b 200 978 183 974 192 978 b 219 972 207 978 213 975 b 249 954 229 967 240 961 b 538 519 385 858 493 676 b 554 388 549 476 556 432 m 453 331 b 450 403 458 354 454 379 b 276 746 421 532 358 644 b 253 761 269 754 265 764 b 251 732 244 761 244 749 b 453 331 311 594 378 461 m 115 735 b 108 701 107 721 108 711 b 382 154 111 544 210 169 b 392 165 389 153 394 160 b 372 204 386 179 379 192 b 125 718 282 372 196 542 b 115 735 124 722 121 726 "},"1":{"ha":463,"x_min":0,"x_max":0,"o":"m 125 67 b 229 164 154 111 192 146 b 239 188 242 169 240 178 b 201 340 226 239 214 290 l 131 658 b 122 681 129 664 126 669 b 14 565 94 636 58 603 b 38 650 24 599 31 624 b 69 849 54 707 69 789 b 103 917 72 875 82 899 b 158 972 122 935 140 954 b 179 965 168 981 176 978 l 221 767 b 346 225 260 586 301 406 b 347 219 346 224 347 221 l 350 207 b 351 201 350 206 351 204 b 375 182 354 188 361 182 b 439 175 396 182 418 182 b 446 156 447 171 451 161 b 372 82 421 131 397 107 b 354 78 368 78 363 75 b 293 86 335 85 314 86 b 208 79 265 86 236 82 b 125 67 182 76 154 71 "},"2":{"ha":689,"x_min":0,"x_max":0,"o":"m 246 43 b 243 51 244 46 243 49 b 383 686 276 267 314 479 b 439 833 400 736 419 785 b 449 861 442 842 446 851 b 435 881 453 872 447 879 b 410 879 426 881 418 881 b 174 871 332 869 253 869 b 160 869 169 871 164 871 b 163 843 150 860 158 851 l 225 708 b 219 669 233 693 232 682 b 204 656 214 665 210 660 l 175 626 b 160 611 169 621 165 617 b 132 617 146 597 140 599 b 104 676 122 636 114 657 l 49 794 b 21 854 39 815 31 835 b 28 897 13 871 13 885 b 86 957 47 917 68 936 b 144 976 103 975 121 978 b 267 967 185 971 226 969 b 499 972 344 963 421 968 b 533 974 510 974 521 974 b 546 957 542 972 547 965 b 538 929 544 947 542 938 b 342 167 432 686 385 426 b 340 149 340 161 340 154 b 354 149 346 144 350 144 b 501 228 399 185 446 211 b 510 233 504 228 506 231 b 503 271 513 247 506 258 l 469 389 b 488 451 464 414 467 433 b 554 513 510 469 528 494 b 675 210 588 407 597 296 b 638 167 667 192 650 181 b 594 125 624 153 610 139 b 571 125 588 119 579 122 b 465 140 538 140 501 144 b 264 47 383 133 325 99 b 246 43 258 42 253 40 "},"3":{"ha":631,"x_min":0,"x_max":0,"o":"m 304 389 b 365 276 325 350 344 313 b 481 161 388 236 431 169 b 511 178 497 157 506 161 b 521 260 519 204 521 232 b 446 511 521 342 500 447 b 336 547 417 544 381 558 b 168 439 271 532 215 483 b 146 422 163 432 157 424 b 150 446 140 432 147 439 b 392 822 214 582 290 710 b 421 872 404 836 431 850 b 367 886 414 892 386 885 b 136 881 290 892 213 888 b 122 876 131 879 126 878 b 113 861 115 874 111 868 b 165 728 125 814 143 771 b 161 693 171 715 174 704 b 90 622 136 669 113 644 b 69 639 76 624 74 632 b 19 763 50 679 32 719 b 46 865 8 803 14 836 b 106 924 67 883 86 903 b 285 979 146 968 228 979 b 461 981 343 982 403 981 b 514 969 479 981 499 981 b 521 953 519 967 524 960 b 508 932 517 946 514 938 b 476 894 499 918 488 907 b 261 565 388 796 319 683 b 254 549 258 560 256 554 b 279 561 268 544 274 556 b 369 622 308 583 336 606 b 443 646 393 633 417 643 b 532 611 479 647 508 636 b 558 575 542 600 551 588 b 604 261 613 476 629 371 b 556 171 597 226 581 196 b 478 94 529 146 504 121 b 411 63 457 74 433 63 b 308 128 369 63 332 97 b 218 286 272 178 244 231 b 224 317 213 299 214 307 b 290 382 246 339 268 361 b 304 389 293 386 299 386 "},"4":{"ha":481,"x_min":0,"x_max":0,"o":"m 14 351 b 39 456 22 389 33 421 b 50 843 61 583 68 713 b 39 900 47 863 43 881 b 44 926 35 911 36 919 b 111 993 67 949 89 971 b 133 986 119 1001 131 999 b 147 914 139 963 144 939 b 129 522 160 783 156 651 b 121 489 126 511 124 500 b 115 456 119 478 113 468 b 129 456 121 451 125 453 b 268 506 172 479 219 494 b 289 532 288 510 289 513 b 283 600 288 554 286 578 b 269 846 275 682 274 764 b 292 903 268 869 275 888 b 353 963 314 922 333 943 b 367 947 365 961 365 954 b 413 571 379 822 393 696 b 406 500 417 547 422 522 b 404 467 397 490 401 478 b 464 168 422 367 440 267 b 454 128 468 153 467 140 b 440 114 450 124 444 118 l 411 86 b 397 72 407 82 403 76 b 382 63 390 65 386 63 b 368 82 375 63 371 69 b 307 392 343 183 322 288 b 272 422 304 414 300 424 b 54 367 196 418 122 401 b 24 351 44 361 35 356 b 14 351 22 350 21 351 "},"5":{"ha":606,"x_min":0,"x_max":0,"o":"m 97 997 b 340 921 175 946 254 921 b 419 928 365 921 392 922 b 411 907 424 917 415 911 b 365 861 396 892 379 876 b 296 829 347 839 324 831 b 164 835 251 828 208 825 b 144 817 149 839 142 833 b 176 593 156 742 167 668 b 178 582 178 589 178 586 l 182 560 b 183 549 182 556 183 553 b 192 528 185 542 183 531 b 215 540 204 524 208 535 b 285 610 239 564 261 588 b 410 674 318 643 361 674 b 586 476 507 674 571 560 b 499 192 604 367 578 271 b 415 108 471 163 443 135 b 321 63 390 85 356 63 b 224 161 268 63 236 117 b 206 282 214 200 210 242 b 221 326 203 300 207 314 b 238 342 226 332 232 338 l 268 374 b 285 389 274 379 279 383 b 299 383 289 393 299 390 b 311 286 303 351 306 318 b 344 194 315 253 325 222 b 419 158 363 168 388 154 b 465 190 442 161 457 171 b 478 435 503 269 507 351 b 322 579 456 499 397 579 b 232 522 282 579 247 561 b 122 390 208 467 164 431 b 99 399 111 379 103 382 b 39 822 78 540 58 681 b 36 871 36 839 33 854 b 31 889 38 878 35 883 b 28 928 10 910 10 911 b 97 997 50 950 72 972 "},"6":{"ha":472,"x_min":0,"x_max":0,"o":"m 167 488 b 190 499 179 488 185 493 b 324 593 221 532 279 593 b 440 392 393 593 429 444 b 457 285 447 356 451 321 b 453 226 460 265 456 246 b 431 183 450 208 443 194 b 357 110 406 158 382 133 b 324 93 346 99 335 93 b 110 317 253 93 140 261 b 83 346 104 328 103 346 b 78 357 76 347 76 353 b 71 399 86 374 76 386 b 15 726 29 504 10 614 b 89 913 21 799 28 863 b 139 960 107 926 122 944 b 168 957 149 969 160 968 b 190 924 176 946 183 935 b 263 838 211 892 235 863 b 310 801 278 824 294 814 b 357 771 324 789 349 793 b 347 761 354 768 351 764 l 329 742 b 319 732 326 739 322 735 b 299 711 313 725 306 718 b 267 688 283 696 276 688 b 143 771 228 688 167 746 b 119 794 136 779 128 788 b 111 793 118 796 113 794 b 108 783 110 792 108 788 b 167 488 108 681 128 582 m 353 225 b 357 239 358 229 358 233 b 285 467 346 319 325 396 b 257 493 279 478 269 488 b 235 499 250 497 242 499 b 203 486 222 499 211 494 b 192 435 185 471 181 456 b 331 239 226 361 272 296 b 353 225 338 232 342 222 "},"7":{"ha":539,"x_min":0,"x_max":0,"o":"m 332 58 b 285 356 303 83 286 313 b 283 483 283 397 279 440 b 263 501 285 499 279 503 b 203 496 242 500 222 499 b 160 493 189 494 174 489 b 168 514 156 503 164 508 b 207 553 181 526 194 539 b 274 589 225 572 244 589 b 294 611 288 589 292 600 b 411 890 308 696 343 842 b 379 894 401 899 390 897 b 201 885 319 883 261 883 b 174 863 188 885 171 888 b 86 772 174 851 97 782 b 18 883 65 813 43 849 b 21 910 13 893 13 901 b 39 928 26 917 33 922 l 75 965 b 93 983 81 971 88 978 b 135 993 106 996 119 994 b 242 981 171 989 206 985 b 501 997 329 971 415 979 b 521 1001 507 999 514 1000 b 504 974 524 986 513 981 b 381 624 418 893 389 736 b 403 603 379 606 385 601 b 492 608 433 604 463 607 b 517 607 500 608 508 608 b 522 592 522 606 526 596 b 450 518 499 567 475 542 b 422 513 442 510 432 513 b 378 467 374 514 376 513 b 414 174 383 368 390 269 b 400 122 419 153 417 136 b 332 58 376 101 358 75 m 411 893 b 411 893 414 893 411 896 m 411 892 b 411 892 411 892 411 892 "},"8":{"ha":613,"x_min":0,"x_max":0,"o":"m 389 58 b 221 78 332 57 276 64 b 65 214 146 94 76 129 b 74 325 60 251 64 289 b 113 428 83 361 97 394 b 108 464 119 442 118 451 b 18 653 69 519 26 583 b 58 813 8 714 22 768 b 175 938 94 857 133 899 b 290 993 207 968 247 988 b 353 953 321 994 342 982 b 364 860 364 922 365 890 b 358 674 363 797 361 735 b 361 432 356 593 361 513 b 399 367 361 403 375 383 b 563 238 456 328 511 285 b 586 211 572 229 579 221 b 586 158 601 189 603 176 b 569 140 581 153 575 146 l 535 103 b 518 85 529 97 524 92 b 457 58 501 67 481 61 b 389 58 435 57 411 58 m 264 488 b 269 532 271 503 269 518 b 275 738 272 600 274 669 b 272 826 276 767 274 797 b 261 869 272 840 268 856 b 218 897 251 888 238 899 b 107 813 169 896 115 878 b 106 803 107 810 106 807 b 131 664 97 754 110 708 b 213 551 146 631 178 565 b 250 494 214 526 235 511 b 253 493 251 494 253 493 l 261 489 b 264 488 261 489 263 489 m 417 154 b 436 154 424 154 431 153 b 451 161 443 154 451 151 b 444 172 451 165 447 169 b 315 271 401 206 358 239 b 297 278 310 275 303 278 b 279 288 288 276 281 278 b 258 315 278 301 268 308 b 182 383 233 338 208 361 b 169 392 179 386 175 389 b 158 388 165 394 160 392 b 154 368 156 381 156 375 b 271 182 139 271 175 214 b 417 154 318 165 368 157 "},"9":{"ha":454,"x_min":0,"x_max":0,"o":"m 14 288 b 94 368 44 318 69 343 b 117 369 101 375 110 376 b 156 332 131 357 143 344 b 289 215 199 290 240 249 b 340 188 304 204 319 192 b 344 239 347 206 346 222 b 282 567 339 350 313 458 b 260 571 278 579 269 581 b 192 507 238 550 215 528 b 114 465 171 488 144 465 b 54 521 85 465 63 496 b 25 811 18 615 6 711 b 68 892 31 843 44 869 b 139 961 92 914 114 939 b 183 983 154 975 168 983 b 226 964 197 983 210 976 b 438 360 339 871 421 501 b 439 261 442 328 440 294 b 394 161 438 222 425 188 b 332 99 372 142 353 119 b 290 79 319 86 306 79 b 199 119 261 79 221 104 b 14 288 132 167 75 226 m 111 804 b 117 735 113 776 113 756 b 204 560 122 692 143 560 b 249 579 217 560 231 567 l 253 582 b 254 583 253 582 254 583 b 265 618 267 593 269 603 b 135 868 244 679 190 829 b 122 872 132 871 126 872 b 114 863 117 872 115 867 b 111 804 113 840 113 819 "},"\u0000":{"ha":0,"x_min":0,"x_max":0,"o":""},"\r":{"ha":347,"x_min":0,"x_max":0,"o":""}," ":{"ha":347,"x_min":0,"x_max":0,"o":""},"B":{"ha":632,"x_min":0,"x_max":0,"o":"m 238 164 b 214 226 233 193 224 210 b 192 269 207 240 199 254 l 147 353 b -21 847 69 500 -12 678 b -4 901 -21 867 -21 886 b 4 936 8 911 8 922 b 22 993 -4 960 3 976 b 83 1054 43 1013 64 1033 b 99 1032 94 1047 96 1039 b 271 781 118 935 197 844 b 364 700 301 754 333 728 b 415 647 383 685 400 667 b 424 533 444 613 446 572 b 385 476 413 513 399 496 b 397 472 389 471 393 471 l 403 474 b 406 475 404 475 404 475 b 576 421 472 488 529 468 b 646 304 610 389 632 349 b 618 160 660 251 653 201 b 336 -18 547 69 458 -18 b 65 172 210 -18 125 71 b 69 207 56 189 57 194 b 143 283 93 232 117 256 b 238 164 175 244 194 200 m 117 736 b 119 736 117 736 117 736 b 117 736 118 739 118 739 m 254 421 b 263 408 257 417 260 413 b 275 406 265 404 271 403 b 326 443 294 417 314 426 b 331 544 351 479 351 510 b 274 606 315 568 294 588 b 133 729 226 647 179 689 b 121 735 129 732 125 733 b 129 693 115 719 124 707 b 254 421 163 599 207 508 m 371 83 b 426 76 390 78 408 76 b 551 124 458 76 539 88 b 557 158 554 135 556 147 b 413 374 561 246 496 344 b 356 383 394 379 375 383 b 285 367 333 383 310 378 b 346 231 306 319 329 278 b 371 83 363 185 369 136 "},"A":{"ha":511,"x_min":0,"x_max":0,"o":"m 425 -18 b 428 18 418 0 425 8 b 419 176 444 72 440 125 b 414 190 418 182 415 186 b 336 251 392 243 392 243 b 224 264 299 257 261 260 b 199 246 210 265 203 260 b 167 158 189 217 178 188 b 101 61 154 121 133 88 b 58 22 88 49 76 32 b 68 60 51 38 63 49 b 119 239 94 117 111 176 b 96 263 124 260 118 265 b 14 249 68 260 42 254 b -19 246 3 247 -8 242 b -10 267 -24 256 -15 261 b -3 275 -7 269 -4 272 l 14 290 b 100 344 40 318 60 338 b 124 374 122 347 124 351 b 99 519 119 422 110 471 b 58 742 83 593 67 667 b 57 929 53 804 51 867 b 79 976 58 949 65 964 b 139 1035 100 996 119 1015 b 150 1036 142 1036 146 1036 b 158 960 153 1011 154 985 b 338 558 181 814 256 679 b 469 357 383 492 429 426 b 493 326 476 346 492 338 b 522 243 497 297 514 272 b 526 121 533 203 535 163 b 481 36 519 89 507 60 b 425 -18 461 21 446 3 m 215 493 b 221 426 217 469 218 447 b 226 365 222 406 214 385 b 292 360 247 363 268 361 l 296 361 b 299 361 297 361 299 361 b 306 375 306 361 310 369 b 224 492 279 415 254 456 b 215 493 224 493 221 493 "},"C":{"ha":493,"x_min":0,"x_max":0,"o":"m 411 161 b 400 228 413 183 406 206 b 354 399 386 285 371 342 b 365 443 350 417 350 429 b 431 507 386 463 407 485 l 435 507 b 450 489 446 506 447 496 b 507 256 472 413 493 335 b 513 221 510 244 511 232 b 471 111 517 178 506 140 b 418 60 451 96 435 78 b 376 40 406 46 392 40 b 292 79 346 40 314 61 b -4 632 154 196 38 464 b -19 749 -14 671 -21 710 b 36 876 -17 799 -3 842 b 99 939 58 896 78 918 b 151 963 115 956 133 963 b 197 947 168 963 183 957 b 247 906 214 935 231 919 b 342 996 260 922 324 996 b 347 989 344 994 347 992 b 347 960 347 979 347 969 b 346 840 346 919 344 881 b 369 692 346 790 351 739 b 363 651 376 675 375 663 b 343 633 356 646 350 639 l 304 596 b 285 576 297 589 292 583 b 268 579 279 572 271 572 b 254 617 263 592 258 604 b 115 846 229 686 178 800 b 86 858 107 853 99 864 b 76 828 72 853 76 839 b 307 256 76 650 208 394 b 385 172 329 225 354 196 b 411 161 392 167 399 158 "},"D":{"ha":592,"x_min":0,"x_max":0,"o":"m 249 153 b 236 201 244 171 240 186 b 107 553 200 321 154 436 b 35 740 82 615 58 678 b 26 797 28 758 19 776 b 17 835 31 811 21 822 b -19 947 1 871 -11 908 b -7 988 -22 964 -19 975 b 53 1046 13 1006 32 1026 b 69 1053 57 1050 63 1054 b 74 1040 71 1049 74 1044 b 221 761 96 932 147 840 b 356 629 264 715 310 672 b 483 507 399 589 442 549 b 601 344 532 461 575 407 b 586 210 619 297 614 251 b 578 197 583 206 581 201 b 271 -18 507 117 388 -18 b 125 99 199 -18 156 42 b 65 260 99 150 83 206 b 69 282 63 268 63 276 b 142 356 93 307 118 332 b 158 351 147 360 156 358 b 172 310 164 338 168 324 b 221 186 186 267 200 225 b 249 153 228 175 232 161 m 249 543 b 253 514 243 532 250 524 b 378 126 304 388 340 257 b 394 85 382 113 378 90 b 440 99 410 79 425 92 b 467 113 449 101 457 108 b 517 200 504 129 515 163 b 496 281 518 229 508 256 b 426 376 478 315 453 346 b 249 543 401 404 276 533 "},"E":{"ha":546,"x_min":0,"x_max":0,"o":"m 463 129 b 378 289 431 189 404 239 b 385 381 346 347 344 332 b 415 415 394 392 406 403 b 444 407 428 428 435 426 b 546 215 479 344 513 279 b 556 192 550 208 553 200 b 544 103 569 158 571 128 b 489 40 524 85 507 61 b 438 21 475 26 458 21 b 33 415 286 21 72 289 b 50 514 21 453 25 486 b 63 528 54 518 58 524 l 88 556 b 100 569 92 560 96 565 b 100 618 124 596 117 596 b -7 824 54 683 18 751 b -15 853 -10 833 -12 843 b 4 940 -25 888 -22 917 b 57 1000 24 958 39 981 b 88 1001 65 1008 76 1010 b 136 961 104 989 121 975 b 206 892 160 939 183 914 b 215 913 219 896 214 906 b 221 935 218 919 217 929 b 290 1015 242 963 267 988 b 299 1003 296 1007 299 1006 b 340 822 304 942 319 881 b 349 793 343 813 346 801 b 344 753 356 776 354 764 b 286 686 324 731 306 708 b 251 686 275 675 267 674 b 175 750 225 707 200 729 b 147 765 167 756 163 767 b 322 567 186 692 258 619 b 354 540 333 558 344 550 b 358 524 360 536 364 529 b 294 450 338 499 317 474 b 268 449 288 442 278 444 b 175 492 238 464 206 479 b 131 504 160 499 146 506 b 121 492 122 504 118 500 b 463 129 172 365 332 164 "},"F":{"ha":569,"x_min":0,"x_max":0,"o":"m 75 358 b 156 439 104 388 129 413 b 176 438 163 444 169 444 b 250 344 200 407 225 375 l 279 306 b 294 286 285 299 290 293 b 294 310 304 296 299 303 b 261 386 283 335 272 361 l 192 539 b 158 615 181 564 169 590 b 119 650 150 633 139 644 b 94 658 111 653 103 656 l 69 669 b 67 685 63 672 61 679 b 90 710 74 694 82 703 b 97 754 106 724 104 736 b 43 881 78 796 60 838 b 1 924 35 903 24 917 b -21 940 -7 926 -14 931 b 58 1019 3 968 31 994 b 76 1024 63 1025 69 1026 b 133 1004 94 1015 115 1017 b 453 944 193 965 385 944 b 558 951 488 944 522 947 b 565 953 561 951 564 951 l 581 953 b 588 954 583 954 585 954 b 582 932 594 942 586 938 b 536 886 567 917 550 903 b 467 856 518 864 494 857 b 353 851 429 853 390 851 b 211 863 306 851 258 854 b 186 858 204 864 196 867 b 235 747 200 821 218 783 b 261 728 240 735 250 731 b 528 688 349 701 436 681 b 551 685 536 688 544 690 b 544 668 556 676 549 672 b 500 622 529 653 513 639 b 431 592 481 600 457 592 b 346 594 401 590 374 590 b 307 594 333 597 321 600 b 325 544 308 576 318 561 b 436 286 364 458 403 374 b 467 197 447 257 457 228 b 474 154 471 183 472 169 b 454 97 478 132 472 113 b 438 82 449 93 443 88 l 407 50 b 365 21 397 40 378 21 b 304 69 349 21 314 57 b 231 156 279 97 254 126 b 97 328 186 213 142 269 b 75 358 90 336 83 346 "},"G":{"ha":583,"x_min":0,"x_max":0,"o":"m 328 842 b 329 901 328 865 329 883 b 350 949 329 921 335 936 b 411 1010 372 969 392 990 b 422 994 424 1007 422 1000 b 460 732 418 904 435 817 b 463 724 461 729 461 726 l 467 707 b 469 699 468 704 469 701 b 458 663 472 685 469 674 b 392 597 436 642 415 619 b 363 599 382 586 375 588 b 326 639 350 611 338 625 b 192 783 282 686 238 736 b 82 863 172 804 113 860 b 79 829 74 851 76 839 b 168 558 94 733 128 646 b 197 536 174 544 185 540 b 397 515 263 517 329 508 b 601 546 465 521 533 531 b 594 526 607 535 599 531 b 542 474 576 508 558 492 b 500 449 531 461 517 453 b 492 418 478 442 478 439 b 543 333 508 389 526 361 b 599 182 569 286 593 236 b 575 115 603 157 594 133 b 510 49 553 94 531 72 b 460 26 494 32 478 26 b 428 32 450 26 439 28 b 114 386 297 74 174 275 b 75 454 101 408 92 432 b 53 513 63 469 61 493 b -19 772 19 597 -10 682 b 21 879 -21 814 -11 850 b 83 942 43 899 64 921 b 138 967 100 958 118 967 b 174 958 149 967 161 964 b 221 932 190 953 207 943 b 285 878 243 915 263 896 b 328 842 296 867 306 853 m 492 142 b 461 221 486 175 472 197 b 372 363 435 269 406 317 b 258 419 321 436 347 419 b 250 415 256 419 253 417 b 492 142 275 333 410 179 "},"H":{"ha":647,"x_min":0,"x_max":0,"o":"m 72 1025 b 88 976 85 1006 85 990 b 204 589 119 844 161 717 b 239 561 210 572 218 561 b 374 553 285 560 329 550 b 376 582 383 564 378 574 b 318 882 351 681 331 781 b 358 999 311 949 310 949 b 386 1026 368 1007 376 1017 b 403 1035 390 1031 396 1036 b 410 1018 411 1033 408 1025 b 413 994 411 1010 411 1001 l 418 944 b 493 589 432 825 461 706 b 500 565 494 581 497 574 b 519 554 504 557 511 554 b 606 561 547 556 575 564 b 586 535 601 550 593 542 l 575 525 b 571 521 574 524 572 522 b 547 415 519 467 524 486 b 663 117 581 314 621 215 b 653 65 671 96 671 81 b 586 0 629 44 608 22 b 564 35 571 8 569 24 b 431 394 515 153 468 272 b 428 403 429 397 429 400 l 422 419 b 419 428 421 422 421 425 b 382 456 411 456 410 456 b 268 457 344 456 307 457 b 257 442 260 458 254 450 b 268 408 260 431 264 419 b 288 357 275 392 281 375 l 325 257 b 344 206 332 239 339 222 b 324 106 369 142 374 157 b 274 60 307 90 293 72 b -21 350 272 61 -18 347 b 56 426 6 375 31 400 b 82 428 64 433 72 435 b 119 396 94 417 106 406 b 149 376 128 389 133 376 b 139 414 150 390 143 401 b 13 813 93 546 49 678 b 7 836 11 821 8 829 l -6 885 b -11 908 -7 893 -10 900 b 4 957 -15 926 -12 943 b 72 1025 26 978 49 1000 "},"I":{"ha":375,"x_min":0,"x_max":0,"o":"m 65 39 b 149 121 97 71 122 96 b 171 136 154 128 169 124 b 164 164 171 144 167 156 b 17 669 106 329 54 497 b -15 843 4 726 -4 785 b -17 854 -17 847 -17 850 l -18 876 b -19 888 -18 881 -19 883 b -4 926 -21 903 -15 917 b 25 954 6 936 15 946 b 75 1001 42 969 54 989 b 108 943 97 989 97 963 b 243 781 143 879 182 821 b 222 751 242 765 231 758 b 167 696 204 732 186 714 b 144 693 160 689 153 689 b 131 682 133 697 128 693 b 140 635 133 667 136 650 b 285 181 182 481 231 329 b 342 144 301 135 304 143 b 393 143 360 144 378 149 b 388 125 397 133 392 129 b 335 72 369 107 351 90 b 292 51 324 60 310 51 b 192 44 258 53 225 42 b 89 35 157 46 122 38 b 65 39 83 35 79 36 "},"J":{"ha":492,"x_min":0,"x_max":0,"o":"m -21 875 b 13 914 -12 893 1 903 b 144 969 67 969 67 968 b 331 954 207 969 268 961 b 350 946 336 953 342 949 b 272 863 326 914 297 889 b 258 858 268 860 263 860 b 236 822 229 850 229 850 b 496 158 303 594 388 369 l 508 132 b 503 100 514 119 511 110 b 439 38 481 81 461 58 b 422 28 432 31 426 28 b 401 39 417 28 411 31 b 225 161 347 88 294 135 b 139 178 197 171 168 179 b 90 157 119 176 104 171 b 33 100 72 138 53 119 b 31 113 32 106 29 110 b 72 336 71 182 79 257 b 63 404 69 358 67 381 b 68 432 61 414 60 424 b 99 464 78 443 88 454 b 151 514 114 479 129 496 b 153 247 176 424 169 338 b 239 271 182 264 211 271 b 286 265 254 271 271 269 b 290 265 288 265 289 265 b 301 281 301 264 306 269 b 288 317 297 292 292 304 b 115 850 217 490 154 667 b 85 875 110 869 107 874 b 31 875 67 876 49 875 b -21 875 15 875 0 875 "},"K":{"ha":661,"x_min":0,"x_max":0,"o":"m -15 313 b 67 394 10 340 36 368 b 172 292 104 360 142 331 b 172 333 183 306 176 319 b 94 597 146 421 119 510 b 26 854 69 683 44 768 l 22 869 b 46 942 13 899 19 922 b 101 996 65 958 83 978 b 118 953 115 982 115 967 b 207 625 143 843 174 735 b 218 614 208 621 208 611 b 225 626 221 615 224 622 b 239 828 233 693 239 760 b 238 915 239 857 239 886 b 257 964 236 936 242 950 b 313 1018 276 982 294 1000 b 325 1022 315 1021 322 1024 b 332 1011 329 1021 332 1015 b 331 824 336 949 336 886 b 288 547 324 731 310 638 b 288 532 286 542 288 538 b 306 544 299 531 301 539 b 351 615 321 568 338 590 b 468 747 382 667 426 706 b 481 751 471 750 478 753 b 488 739 485 750 488 743 b 485 681 488 719 486 700 b 506 436 481 597 488 517 b 682 117 535 314 588 204 b 657 82 679 100 665 92 b 608 33 640 65 624 50 b 582 32 599 25 590 25 b 540 75 568 46 553 60 b 392 567 421 221 392 383 l 390 585 b 390 593 390 588 390 590 b 383 597 390 594 386 597 b 379 596 382 599 379 597 b 361 572 374 589 368 581 b 275 453 333 532 308 489 b 268 417 264 442 264 431 b 311 276 282 369 297 322 b 336 186 319 246 328 215 b 319 132 342 165 338 147 b 261 74 299 114 281 93 b 240 61 251 65 246 61 b 218 72 233 61 228 65 b 181 104 206 82 193 93 b 133 149 165 119 150 135 l 40 240 b -7 285 25 254 8 269 b -10 286 -8 286 -8 286 l -14 290 b -15 292 -14 290 -15 292 b -15 313 -22 299 -22 307 m 174 290 b 172 292 174 290 174 292 b 174 290 172 292 174 290 m 175 292 b 175 292 176 290 174 288 "},"L":{"ha":568,"x_min":0,"x_max":0,"o":"m 503 43 b 490 61 496 53 492 57 b 411 115 460 118 467 104 b 254 122 360 125 307 126 b 228 113 244 121 235 121 b 204 100 219 106 213 100 b 186 108 199 100 193 101 b 158 107 182 113 167 110 b 88 88 133 101 110 94 b 50 78 75 83 63 78 b 53 93 42 85 49 89 b 99 139 68 108 83 124 b 150 175 113 154 128 168 b 163 201 165 179 167 185 b 119 363 149 256 135 310 b 3 779 81 501 42 640 b -19 871 -6 810 -12 840 b -14 899 -22 881 -21 890 b 67 978 13 925 38 953 b 78 946 82 969 75 956 b 108 826 88 907 97 867 b 258 286 160 647 211 468 b 278 225 264 265 271 246 b 296 213 281 218 286 211 b 407 222 332 215 369 218 b 396 265 408 239 400 253 b 357 428 378 318 364 372 b 379 494 353 454 357 476 b 436 549 399 511 417 531 b 449 542 440 553 449 550 b 568 181 460 411 510 294 b 554 94 596 126 600 142 b 503 43 539 78 522 63 "},"M":{"ha":713,"x_min":0,"x_max":0,"o":"m 303 615 b 315 749 308 668 311 708 b 332 900 321 799 328 849 b 356 947 335 919 342 935 b 361 951 358 949 360 950 l 372 963 b 378 967 374 964 376 965 b 432 1013 396 982 406 1007 b 451 947 447 993 447 969 b 706 193 504 685 592 435 b 685 75 743 113 746 139 b 647 43 664 54 654 43 b 619 86 639 43 633 57 b 414 622 538 260 465 438 b 406 640 413 629 408 635 b 401 640 406 640 403 640 b 397 639 400 640 397 640 b 397 633 397 638 397 636 l 396 625 b 396 619 396 622 396 621 b 396 492 396 576 394 533 b 374 439 396 469 389 454 b 314 381 353 421 333 400 b 283 385 300 368 293 368 b 221 496 261 422 242 460 b 199 517 215 504 214 515 b 204 478 200 504 203 490 l 215 399 b 226 319 219 372 224 346 l 239 240 b 247 165 242 215 244 190 b 224 104 250 140 243 121 b 163 46 203 86 183 65 b 143 50 157 40 147 42 b 126 81 136 60 132 69 b -21 382 79 182 33 283 b 64 465 -12 394 49 465 b 96 446 72 465 81 458 b 96 483 103 458 97 471 b 51 860 82 610 67 735 b 71 917 47 883 51 901 b 135 976 93 935 110 961 b 168 897 158 956 158 924 b 303 615 207 800 250 706 "},"N":{"ha":631,"x_min":0,"x_max":0,"o":"m 103 417 b 60 714 89 515 74 614 b 54 758 58 729 56 743 l 43 846 b 38 889 42 860 40 875 b 61 954 33 915 39 938 b 103 996 75 967 89 982 b 126 1013 114 1007 121 1013 b 144 986 132 1013 138 1004 b 361 544 203 832 275 685 b 389 513 368 533 371 521 b 379 575 386 535 382 556 b 354 899 361 682 350 790 b 393 968 356 929 369 950 l 418 994 b 432 1007 424 999 428 1003 b 444 1011 435 1010 440 1011 b 450 1000 451 1011 450 1004 b 450 897 450 965 449 931 b 642 143 461 632 524 381 b 649 131 643 139 646 135 b 643 104 653 121 651 111 b 574 35 619 81 596 57 b 556 35 568 29 561 29 b 538 58 549 43 543 50 b 207 554 419 218 304 381 b 188 572 204 561 201 569 b 211 418 194 521 203 469 l 232 285 b 243 218 236 263 240 240 b 244 208 244 215 244 211 b 211 110 253 151 253 151 b 164 65 196 94 181 79 b 147 67 158 60 151 60 b 131 90 142 74 135 82 l -15 342 b -12 372 -22 353 -22 363 b 33 418 3 388 18 403 b 63 442 43 426 50 440 b 90 418 79 444 81 425 b 103 417 93 415 99 417 "},"O":{"ha":492,"x_min":0,"x_max":0,"o":"m -21 613 b -12 696 -19 640 -17 668 b 19 772 -8 725 0 750 b 32 817 32 785 36 799 b 60 911 25 853 33 885 b 86 940 69 921 78 931 l 111 972 b 143 989 119 983 131 989 b 164 985 150 989 157 988 b 289 876 207 971 261 910 b 499 440 392 747 464 603 b 506 264 511 382 518 324 b 463 171 499 229 486 199 b 400 96 442 146 421 121 b 321 56 375 68 350 56 b 203 106 281 56 233 81 b -10 510 81 199 11 361 b -21 613 -14 543 -17 578 m 72 654 b 72 651 72 653 72 651 l 71 643 b 71 640 71 643 71 642 b 110 468 78 582 89 524 b 383 158 150 353 254 185 b 422 186 410 153 419 160 b 425 221 424 199 424 210 b 408 363 426 269 419 317 b 163 822 367 535 282 692 b 139 833 157 828 151 835 b 161 764 143 810 153 786 b 322 426 206 649 261 533 b 322 408 325 421 326 414 b 253 325 300 381 276 353 b 240 325 250 321 243 322 b 222 354 233 335 226 344 b 94 615 176 440 133 526 b 72 654 89 629 88 644 "},"P":{"ha":401,"x_min":0,"x_max":0,"o":"m 169 267 b 157 313 171 283 161 297 b 31 696 110 439 65 565 b 0 844 17 744 6 794 b 11 894 -3 864 -3 881 b 14 922 19 903 18 913 b -18 1010 1 950 -11 979 b -12 1042 -21 1022 -21 1033 b 40 1094 6 1060 22 1076 b 67 1115 49 1101 54 1113 b 76 1096 76 1113 75 1103 b 288 743 117 964 203 850 b 368 643 315 710 342 676 b 403 590 381 626 393 608 b 401 458 428 546 426 501 b 361 403 389 439 376 419 b 303 336 343 379 324 357 b 296 286 289 319 288 306 b 356 136 317 236 336 186 l 385 63 b 379 32 390 51 389 40 b 310 -37 356 8 333 -15 b 283 -39 301 -46 292 -46 b 263 -18 275 -32 268 -25 b 22 215 185 63 104 140 b 4 232 15 221 10 226 b 3 253 -3 239 -4 246 b 72 324 25 276 49 300 b 97 324 81 332 89 332 b 144 281 113 310 129 294 b 169 267 151 275 157 265 m 156 693 b 156 676 156 686 154 681 b 269 357 190 568 228 461 b 281 343 271 351 272 343 b 296 356 289 344 292 350 b 303 511 332 406 338 458 b 263 567 290 531 276 549 b 172 678 233 604 203 642 b 156 693 168 683 163 688 "},"Q":{"ha":682,"x_min":0,"x_max":0,"o":"m 703 121 b 625 40 681 90 651 65 b 592 38 615 31 603 35 b 469 47 551 47 510 46 b 440 43 460 47 447 49 b 413 29 431 38 421 29 b 392 43 406 29 399 33 b 364 44 389 47 374 46 b 17 0 247 33 132 17 b 8 3 14 0 11 1 b 32 33 11 17 24 24 b 46 46 36 38 40 42 l 71 72 b 85 85 76 76 81 81 b 117 96 94 93 106 94 b 313 125 182 106 247 115 b 319 126 315 125 318 125 l 335 126 b 342 128 338 128 339 128 b 353 146 350 129 356 135 b 353 147 353 146 353 147 l 351 149 b 351 150 351 150 351 150 b 244 221 315 235 340 224 b 25 190 169 217 97 206 b -18 232 -17 181 -26 189 b 17 407 -8 290 4 349 b 82 794 43 535 63 665 b 94 878 86 822 90 850 b 121 929 97 899 106 915 b 183 992 143 949 163 971 b 203 986 190 999 197 996 b 225 938 213 971 210 951 b 315 1024 254 967 285 994 b 321 1014 319 1025 321 1019 b 354 846 321 956 336 900 b 632 356 411 665 515 503 b 624 267 671 303 661 304 b 589 231 613 254 600 244 b 518 208 571 208 547 203 b 464 211 501 213 483 215 b 486 151 465 188 476 169 b 503 143 489 144 496 143 b 669 135 560 143 614 142 b 703 121 681 133 693 132 m 158 717 b 147 689 147 708 149 697 b 76 328 126 568 103 447 b 74 299 75 318 74 308 b 89 282 74 289 79 282 b 118 285 99 282 108 283 b 258 310 165 293 213 301 b 285 318 268 311 278 308 b 158 717 243 450 201 583 m 328 582 b 328 582 331 585 326 583 m 329 582 b 329 581 329 582 329 581 b 329 582 329 581 329 582 m 488 318 b 474 349 490 332 479 339 b 451 383 467 360 458 371 l 407 450 b 331 579 379 493 354 536 b 336 542 329 567 332 554 b 404 347 360 478 383 413 b 450 315 411 322 425 313 b 488 318 463 317 476 311 "},"R":{"ha":679,"x_min":0,"x_max":0,"o":"m 396 314 b 511 261 453 310 469 303 b 599 167 542 231 569 199 b 689 69 629 133 658 101 b 692 40 701 56 701 51 b 625 -26 669 18 647 -4 b 600 -28 617 -35 608 -36 b 568 4 589 -17 579 -7 b 540 36 558 15 550 25 l 485 99 b 457 129 475 108 467 119 b 331 218 426 164 379 215 b 317 203 322 219 314 210 b 321 192 318 199 319 196 l 331 168 b 335 157 332 165 333 161 b 372 65 347 126 360 96 b 361 17 381 46 376 32 b 306 -39 342 0 324 -19 b 283 -53 296 -49 290 -53 b 261 -39 278 -53 272 -49 b 256 -35 260 -37 258 -36 l 247 -26 b 242 -22 244 -25 243 -24 b 4 185 167 51 86 119 b -11 197 -1 189 -7 193 b -12 222 -22 207 -22 213 b 64 300 13 247 38 274 b 168 222 103 278 132 246 b 160 267 174 240 165 253 b 36 640 114 389 69 514 b 0 783 22 688 13 736 b 18 844 -6 808 -6 829 b 25 879 29 854 31 865 b -4 963 14 907 4 935 b 14 1033 -14 990 -10 1014 b 71 1088 35 1050 53 1069 b 82 1090 74 1090 76 1089 b 96 1029 88 1071 90 1050 b 299 707 129 917 222 792 b 408 593 335 668 372 631 b 457 538 425 575 442 557 b 463 403 496 490 497 454 b 410 338 446 381 428 360 b 396 314 404 331 393 326 m 300 244 b 378 333 335 272 357 301 b 372 433 400 368 397 401 b 325 490 358 453 342 472 b 167 658 271 544 217 599 b 149 667 164 663 160 668 b 300 244 190 525 240 388 "},"S":{"ha":569,"x_min":0,"x_max":0,"o":"m 100 469 b 108 469 101 471 104 469 b 143 338 99 419 113 376 b 454 114 225 232 328 156 b 489 111 465 110 476 104 b 376 278 483 149 401 249 b 196 486 317 347 257 417 b -18 831 117 579 13 711 b -7 882 -24 849 -19 867 b 10 901 -1 889 4 896 l 42 943 b 58 963 47 949 53 956 b 81 975 65 971 72 975 b 97 971 86 975 92 974 b 140 946 113 964 126 956 b 236 876 172 924 204 900 b 268 856 246 869 254 858 b 275 876 279 860 274 869 b 274 921 275 890 274 906 b 289 965 272 938 278 953 b 347 1038 310 989 329 1014 b 356 1018 361 1035 356 1025 b 389 814 357 949 371 882 b 357 669 413 715 415 746 b 325 631 347 657 336 644 b 285 658 307 635 296 649 b 167 763 246 693 206 729 b 144 772 161 768 156 776 b 315 546 147 742 290 575 b 454 386 363 493 408 440 b 586 179 499 335 569 246 b 576 119 593 157 590 138 b 503 26 553 88 528 57 b 431 0 483 6 458 -1 b 360 15 406 0 382 6 b 67 226 242 58 146 129 b 25 308 47 250 33 278 b 36 389 17 338 19 364 b 100 469 56 417 79 443 m 108 471 b 110 469 108 471 110 469 b 108 469 110 469 108 469 l 108 471 "},"T":{"ha":689,"x_min":0,"x_max":0,"o":"m 336 475 b 257 771 306 572 278 671 b 256 863 250 800 243 831 b 81 938 196 888 142 919 b 81 881 71 915 76 899 b 121 760 89 839 103 799 b 111 713 129 740 126 726 b 51 654 90 693 71 674 b 31 658 43 647 35 649 b -19 832 6 714 -15 771 b 17 931 -22 869 -12 903 b 86 1000 40 953 63 976 b 156 1031 107 1021 129 1031 b 190 1025 167 1031 178 1029 b 271 992 218 1015 244 1004 b 485 903 342 958 413 928 b 513 896 494 900 504 897 b 514 933 524 908 518 922 b 533 994 507 960 515 978 b 596 1056 556 1014 575 1036 b 607 1033 610 1051 606 1040 b 656 874 617 979 635 926 b 706 751 671 833 689 792 b 699 717 713 738 710 728 b 626 646 675 693 651 668 b 606 675 613 654 610 665 b 576 743 596 699 586 721 b 551 765 571 756 564 763 b 381 813 493 775 438 794 b 365 799 368 817 363 813 b 594 118 421 567 503 338 b 608 86 600 107 603 96 b 600 51 615 72 611 61 b 572 24 590 42 582 32 b 525 -18 557 8 544 -17 b 481 25 504 -18 494 10 b 289 201 422 89 357 146 b 286 253 258 228 260 226 b 339 306 304 271 321 288 b 368 306 350 317 354 317 b 374 301 369 304 371 303 l 382 294 b 388 290 385 293 386 292 b 386 326 396 294 392 308 "},"U":{"ha":642,"x_min":0,"x_max":0,"o":"m -21 592 b 4 831 -11 674 -3 751 b 32 886 7 853 15 871 b 92 944 51 906 71 925 b 119 938 104 957 113 956 b 146 864 129 913 138 889 b 274 460 188 728 225 593 b 349 278 294 397 318 336 b 365 249 353 268 360 258 b 369 246 367 247 368 246 b 376 251 372 247 376 250 b 378 286 378 263 378 275 b 324 819 369 465 350 643 b 346 885 321 847 325 867 b 404 942 367 903 386 924 b 418 925 414 938 417 932 b 657 201 471 676 558 435 b 650 158 664 185 665 172 b 581 90 626 136 603 113 b 560 117 565 96 564 107 b 492 286 536 174 514 231 b 478 311 489 296 488 306 b 471 289 467 306 472 296 b 464 226 468 268 465 247 b 431 163 460 200 449 179 b 364 96 407 140 386 118 b 340 85 356 89 347 85 b 315 96 332 85 324 89 b 222 256 279 125 240 214 b 96 624 172 376 135 500 l 83 667 b 68 669 81 675 72 675 b 22 625 51 656 38 640 b -21 592 10 614 1 600 "},"V":{"ha":561,"x_min":0,"x_max":0,"o":"m 354 419 b 354 547 354 467 354 507 b 354 872 350 656 351 764 b 372 921 356 892 357 908 b 447 992 399 944 419 972 b 493 901 475 968 479 932 b 576 718 521 842 547 779 b 569 675 585 700 583 688 b 499 604 546 651 524 629 b 447 683 474 626 475 660 b 449 601 447 651 447 626 b 472 168 454 457 463 313 b 449 103 475 143 469 121 b 382 38 425 83 404 60 b 354 86 363 51 360 69 b -17 868 253 350 124 622 b -14 890 -21 876 -21 885 b 4 908 -8 896 -3 903 l 38 943 b 56 961 44 950 50 956 b 79 956 65 969 72 967 b 99 921 86 944 93 933 b 328 464 181 771 257 619 b 354 419 333 450 338 436 "},"W":{"ha":899,"x_min":0,"x_max":0,"o":"m -17 615 b -18 636 -24 624 -19 631 b 54 876 11 715 33 796 b 99 956 61 908 72 936 b 161 1007 121 972 132 1000 b 178 931 176 983 174 956 b 321 440 210 763 260 600 b 339 417 324 431 325 421 b 339 464 339 433 340 449 b 332 667 338 532 336 599 b 361 735 331 694 339 717 b 417 790 381 751 399 772 b 433 786 424 794 431 793 b 450 746 440 772 444 758 b 696 297 513 586 594 436 b 729 261 706 285 713 269 b 711 317 731 282 718 299 b 514 924 629 514 550 713 b 521 960 511 938 511 950 b 592 1029 546 985 569 1008 b 606 1022 603 1031 604 1026 b 788 450 640 822 711 636 b 886 214 819 372 854 293 b 914 135 896 189 904 161 b 899 74 922 111 919 92 b 883 58 893 69 889 64 l 854 29 b 839 14 849 24 844 19 b 813 -1 828 4 821 -1 b 788 10 806 -1 799 3 b 475 404 676 76 536 293 b 450 444 467 418 458 432 b 440 431 439 444 439 436 b 453 264 444 375 449 319 b 454 240 454 257 454 249 l 458 194 b 460 171 458 186 460 179 b 443 126 461 153 457 139 b 367 51 417 101 393 75 b 329 107 344 67 338 88 b 111 718 236 300 160 508 b 99 764 108 732 103 744 b 50 681 75 736 75 701 b -17 615 26 660 6 638 "},"Y":{"ha":626,"x_min":0,"x_max":0,"o":"m 138 22 b 136 253 157 108 143 181 b 153 301 135 274 138 288 b 224 367 176 321 194 346 b 238 272 233 333 235 303 b 243 178 240 242 239 211 b 460 251 353 253 317 239 b 460 260 460 254 460 258 b 294 649 400 388 342 517 b 275 625 281 643 279 633 b 263 592 271 614 267 603 l 236 525 b 224 492 232 514 228 503 b 181 426 215 467 201 444 b 121 368 161 408 142 388 b 100 372 115 363 104 365 l 90 394 b -19 818 44 533 1 674 b -4 863 -22 835 -18 850 b 51 918 15 881 33 900 b 68 926 57 922 63 926 b 76 911 76 926 76 918 b 164 553 89 788 126 671 b 172 536 165 547 169 542 b 189 560 183 542 186 551 b 251 715 210 613 229 664 b 254 778 260 738 261 757 b 233 843 246 800 239 821 b 249 906 226 867 228 888 b 310 963 271 924 289 944 b 325 958 314 968 322 965 b 558 343 376 743 464 542 b 578 304 565 331 572 317 l 619 225 b 639 185 625 211 632 199 b 633 142 650 161 650 160 b 571 79 613 121 590 100 b 540 76 561 69 551 69 b 321 153 476 121 400 153 b 271 149 304 153 288 151 b 233 122 256 144 243 139 b 138 22 211 85 176 60 "},"X":{"ha":640,"x_min":0,"x_max":0,"o":"m 71 428 b 150 510 96 457 122 483 b 171 506 157 515 165 514 b 231 393 190 468 210 429 b 254 365 236 383 238 369 b 246 450 257 394 261 422 b 208 522 233 474 221 499 l 135 667 b 97 739 122 690 110 715 b 86 757 94 744 90 750 b -14 661 51 725 24 689 b -21 663 -14 660 -17 663 b -10 853 -7 725 -14 789 b 18 918 -8 878 -1 900 b 35 933 24 924 29 928 l 65 964 b 82 979 71 969 76 975 b 111 976 92 989 103 988 b 165 881 132 946 149 914 l 213 788 b 236 742 221 772 228 757 b 256 710 242 731 244 717 b 264 725 265 713 264 719 b 268 819 265 757 267 788 b 303 932 268 860 268 904 b 351 981 319 947 335 964 b 374 990 357 986 363 993 b 356 689 356 890 358 789 b 353 546 354 640 354 593 b 364 499 353 529 356 514 b 508 288 407 425 453 353 b 524 275 513 282 515 275 b 521 301 532 285 524 294 b 461 447 501 351 483 400 b 471 494 453 468 456 481 b 536 560 494 515 515 539 b 557 536 551 556 553 546 b 660 239 594 451 647 331 b 639 176 664 215 658 194 b 572 111 617 156 596 132 b 542 96 563 101 553 96 b 371 250 490 96 400 211 b 361 261 368 254 365 258 b 353 264 360 264 356 264 b 347 257 350 263 347 258 b 347 153 347 222 346 188 b 329 110 347 135 342 122 b 257 39 306 88 283 63 b 214 140 236 74 229 108 b 121 331 185 204 154 268 b 71 428 104 363 88 394 "},"Z":{"ha":700,"x_min":0,"x_max":0,"o":"m 633 126 b 600 157 615 132 608 146 b 451 231 568 203 513 231 b 265 143 385 231 307 194 b 189 68 243 115 214 93 b 179 67 186 65 182 65 b 175 74 178 68 175 72 b 394 853 201 321 246 649 b 396 863 396 856 396 858 b 354 858 382 868 368 861 b 185 829 299 847 242 835 b 169 826 179 829 175 828 b 160 807 157 824 154 818 b 199 743 174 785 186 765 b 192 696 211 718 211 715 b 119 624 169 672 146 650 b -11 813 86 694 39 753 b -10 846 -24 828 -24 832 b 1 857 -6 850 -3 854 b 65 917 22 878 40 903 b 92 922 74 921 82 922 b 149 917 110 922 131 917 b 401 944 233 915 318 928 b 424 950 408 946 417 947 l 467 958 b 489 964 475 961 482 963 b 507 964 494 965 501 968 b 506 961 507 964 507 963 l 506 957 b 275 215 351 778 304 440 b 276 188 274 207 271 197 b 307 208 292 186 299 200 b 475 317 363 264 403 289 b 492 354 503 326 503 326 b 456 440 479 383 467 413 b 439 482 450 454 446 469 b 449 521 432 499 436 510 b 524 596 474 544 496 571 b 613 386 551 525 581 456 b 711 233 638 331 668 278 b 710 200 724 219 724 214 b 633 126 685 175 661 147 "},"º":{"ha":182,"x_min":0,"x_max":0,"o":"m 167 878 b 157 833 168 863 165 847 b 157 825 156 831 156 828 b 156 817 158 822 158 819 b 138 799 149 811 143 806 b 131 799 135 797 133 796 b 128 799 129 800 129 799 b 119 792 124 796 121 794 b 97 785 113 786 106 785 b 63 803 83 785 71 792 b 46 824 56 810 51 817 b 14 951 25 864 14 906 b 17 972 14 958 15 965 b 31 997 18 982 22 990 b 35 1010 33 1000 36 1004 b 40 1024 35 1015 38 1019 b 46 1028 42 1025 43 1026 l 54 1038 b 60 1042 57 1039 58 1040 b 72 1043 64 1046 68 1046 b 81 1039 75 1042 78 1040 b 163 915 119 1013 150 960 b 167 878 165 903 168 890 m 139 861 b 138 882 140 868 139 875 b 89 979 129 918 113 951 b 82 983 86 982 85 985 b 82 975 79 983 79 981 b 139 861 99 936 117 899 m 43 976 b 40 967 40 972 40 969 b 50 910 42 947 44 928 b 96 822 56 885 74 838 b 118 811 103 817 110 813 b 121 815 121 811 122 813 b 115 826 119 818 118 822 b 46 972 90 874 65 921 b 43 976 44 972 44 974 "},"¹":{"ha":153,"x_min":0,"x_max":0,"o":"m 46 785 b 75 813 54 797 65 807 b 78 819 79 814 79 817 b 75 831 78 824 76 826 l 71 851 b 68 863 69 856 69 860 l 47 953 b 46 960 47 954 46 956 b 14 926 38 946 26 938 b 21 950 17 936 19 943 b 29 1000 25 965 29 981 l 31 1004 b 31 1007 31 1006 31 1007 b 56 1042 31 1021 44 1033 b 61 1040 58 1044 61 1043 l 74 983 b 108 831 83 932 96 881 b 110 824 108 828 110 825 b 117 818 111 819 113 818 b 135 815 122 818 129 818 b 136 810 138 815 139 813 b 117 789 131 803 124 796 b 111 788 115 788 113 788 b 69 789 97 793 83 790 l 46 785 "},"²":{"ha":215,"x_min":0,"x_max":0,"o":"m 79 788 b 118 968 88 849 99 910 b 135 1010 124 982 129 996 b 138 1018 135 1013 136 1015 b 133 1024 139 1021 138 1024 b 126 1024 131 1024 129 1024 b 60 1021 104 1021 82 1021 b 56 1021 58 1021 57 1021 b 56 1013 53 1017 56 1015 b 60 1003 57 1010 58 1007 l 69 985 b 74 975 71 982 72 978 b 72 964 76 971 76 967 b 56 947 67 958 61 953 b 47 949 51 943 50 943 b 39 965 44 954 42 960 l 24 999 b 15 1015 21 1004 18 1010 b 18 1028 14 1021 14 1025 b 35 1044 24 1033 29 1039 b 51 1050 39 1050 44 1051 b 86 1047 63 1049 74 1049 b 151 1050 107 1047 129 1049 b 161 1050 154 1050 158 1050 b 165 1044 164 1050 165 1047 b 163 1038 164 1042 164 1039 b 107 821 133 969 117 894 b 107 815 107 819 107 817 b 110 815 108 814 108 815 b 151 838 122 826 136 833 b 154 840 153 839 153 839 b 153 850 156 843 153 847 b 150 858 153 853 151 856 l 146 875 b 143 883 144 878 144 881 b 149 901 142 890 142 897 b 167 919 154 907 160 914 b 201 833 176 889 179 857 b 190 821 199 828 194 825 b 179 810 188 817 183 813 b 172 810 176 807 175 808 b 142 814 163 813 153 814 b 93 794 124 811 108 806 b 85 786 90 792 88 789 b 79 786 83 786 82 785 "},"³":{"ha":200,"x_min":0,"x_max":0,"o":"m 96 876 b 114 844 103 865 108 856 b 147 813 119 832 133 815 b 156 817 151 811 154 813 b 158 840 157 825 158 832 b 136 911 158 861 153 894 b 106 922 128 921 118 925 b 58 890 86 915 71 906 b 51 886 56 889 54 886 b 53 893 50 889 51 890 b 121 1000 71 932 93 968 b 129 1014 125 1004 132 1008 b 114 1018 128 1019 119 1018 b 49 1017 93 1019 71 1018 b 47 1017 49 1017 49 1017 l 46 1015 b 42 1011 43 1014 42 1013 b 57 974 46 997 50 986 b 56 963 58 969 60 967 b 36 943 49 957 42 950 b 31 947 32 943 31 946 b 15 983 24 960 19 971 b 24 1013 13 994 14 1004 b 40 1029 29 1017 35 1022 b 90 1044 53 1042 72 1044 b 142 1044 107 1044 125 1044 b 156 1042 146 1044 151 1044 b 158 1038 157 1040 158 1039 l 154 1031 b 153 1028 154 1031 153 1029 l 149 1024 b 146 1021 147 1022 147 1022 b 83 925 121 992 100 961 l 83 924 b 82 922 82 924 82 922 b 89 925 86 921 88 924 b 115 943 97 932 106 939 b 136 950 121 946 128 949 b 161 940 146 950 154 947 b 168 929 164 936 167 933 b 182 840 183 901 189 872 b 168 815 179 831 175 822 b 146 793 160 808 153 800 b 126 785 140 788 133 785 b 107 793 121 785 114 788 b 72 847 92 808 82 826 b 74 857 71 851 71 854 b 93 875 79 863 86 869 b 96 876 93 876 94 876 "},"…":{"ha":368,"x_min":0,"x_max":0,"o":"m 58 25 b 53 19 57 24 54 22 l 40 7 b 35 0 39 6 38 3 b 28 3 35 0 28 1 b 24 17 25 7 25 13 b 15 119 22 51 25 86 b 22 147 13 129 15 139 b 89 232 44 175 65 204 b 97 233 90 233 94 235 b 101 226 100 232 101 229 b 58 25 103 143 124 94 m 183 25 b 178 19 182 24 179 22 l 165 7 b 160 0 164 6 163 3 b 151 3 158 0 153 1 b 149 17 150 7 149 13 b 140 119 146 51 149 86 b 146 147 138 129 140 139 b 163 168 151 154 157 161 l 196 211 b 213 232 201 218 207 225 b 222 233 214 233 219 235 b 226 226 224 232 226 229 b 183 25 228 143 249 94 m 306 25 b 300 19 304 24 301 22 l 288 7 b 282 0 286 6 285 3 b 274 3 281 0 275 1 b 271 17 272 7 271 13 b 263 119 268 51 271 86 b 268 147 260 129 263 139 b 285 168 274 154 279 161 l 318 211 b 335 232 324 218 329 225 b 344 233 336 233 342 235 b 349 226 346 232 349 229 b 306 25 350 143 371 94 "},",":{"ha":139,"x_min":0,"x_max":0,"o":"m 17 -150 b 38 28 46 -93 43 -33 b 33 57 36 38 35 47 b 36 81 32 65 31 74 b 107 168 58 110 79 140 b 117 153 111 161 115 158 b 124 36 121 114 126 76 b 76 -85 119 -10 104 -50 b 15 -167 56 -112 36 -140 b 17 -150 15 -167 13 -156 "},":":{"ha":183,"x_min":0,"x_max":0,"o":"m 58 560 b 35 535 50 553 43 543 b 26 538 33 535 28 536 b 24 551 25 542 24 547 b 15 654 21 586 24 621 b 21 682 13 664 15 674 b 38 703 26 689 32 696 l 71 746 b 88 767 76 753 82 760 b 97 768 89 768 94 769 b 101 761 99 767 101 764 b 58 560 103 678 124 629 m 121 154 b 97 129 113 146 106 136 b 89 131 96 128 90 129 b 86 144 88 135 86 140 b 78 247 83 179 86 214 b 83 275 75 257 78 267 b 100 296 89 282 94 289 l 133 339 b 150 360 139 346 144 353 b 160 361 151 363 157 363 b 164 354 161 361 164 357 b 121 154 165 271 186 222 "},";":{"ha":175,"x_min":0,"x_max":0,"o":"m 58 560 b 35 535 50 553 43 543 b 28 538 35 535 28 536 b 24 551 25 542 25 547 b 15 654 22 586 25 621 b 22 682 13 664 15 674 b 39 703 28 689 33 696 l 72 746 b 89 767 78 753 83 760 b 97 768 90 768 94 769 b 101 761 100 767 101 764 b 58 560 104 678 124 629 m 53 61 b 75 239 83 118 81 178 b 75 240 75 240 75 240 l 74 244 b 74 246 74 244 74 246 l 71 261 b 71 263 71 263 71 263 l 69 267 b 69 268 69 267 69 268 b 74 292 68 276 68 285 b 144 379 96 321 117 351 b 153 364 149 372 153 369 b 160 247 158 325 163 288 b 114 126 157 201 142 161 b 51 44 93 99 72 71 b 53 61 51 44 50 56 "},"/":{"ha":275,"x_min":0,"x_max":0,"o":"m 258 1154 b 257 1122 264 1142 260 1132 b 126 272 189 856 149 547 b 111 -12 119 178 115 82 b 85 -78 111 -39 106 -60 b 39 -122 68 -92 54 -107 b 22 -131 35 -126 29 -132 b 15 -115 14 -129 15 -121 b 17 -65 15 -99 15 -82 b 51 386 25 85 35 236 b 164 1044 78 608 114 826 l 168 1060 b 258 1154 176 1086 236 1138 "},"\\":{"ha":275,"x_min":0,"x_max":0,"o":"m 17 1154 b 107 1060 39 1138 99 1086 l 111 1044 b 258 -65 196 679 238 308 b 260 -115 260 -82 260 -99 b 253 -131 260 -121 261 -129 b 236 -122 246 -132 240 -126 b 190 -78 221 -107 207 -92 b 164 -12 169 -60 164 -39 b 18 1122 147 368 113 751 b 17 1154 15 1132 11 1142 "},"?":{"ha":569,"x_min":0,"x_max":0,"o":"m 150 863 b 176 786 160 835 168 811 b 185 763 179 778 181 771 b 171 707 196 740 190 724 b 108 644 149 688 129 665 b 94 643 106 643 99 643 b 90 651 93 643 89 649 b 78 707 94 672 85 689 b 28 836 61 750 44 793 b 44 917 7 885 11 882 b 90 961 60 932 76 946 b 131 976 101 974 114 978 b 213 965 157 972 185 969 b 517 938 314 950 415 946 b 553 929 529 938 547 942 b 533 893 561 913 543 903 b 399 547 443 796 401 679 b 417 332 397 475 404 403 b 397 271 421 307 418 288 b 394 268 396 269 394 269 l 386 261 b 383 258 386 261 385 260 l 358 232 b 356 229 357 231 356 231 l 347 222 b 332 214 343 218 338 214 b 324 224 326 214 325 219 b 303 444 315 297 303 371 b 443 814 304 585 346 710 b 454 829 447 818 451 824 b 450 840 457 833 456 839 b 421 846 440 843 431 844 b 165 865 336 847 251 856 b 150 863 163 865 160 864 m 386 0 b 363 99 371 38 369 68 b 368 121 361 107 363 115 b 440 193 392 146 417 169 b 457 189 446 197 456 194 b 472 103 463 160 468 131 b 465 81 474 94 472 86 b 386 0 442 54 417 29 "},"!":{"ha":272,"x_min":0,"x_max":0,"o":"m 103 990 b 108 979 108 989 108 985 b 133 750 111 903 124 826 b 201 386 150 628 175 507 b 186 335 206 365 204 350 b 135 282 168 318 151 300 b 108 289 119 268 113 269 b 63 515 93 364 76 440 b 17 853 43 628 25 739 b 15 882 17 863 17 872 b 35 929 14 901 19 917 b 94 989 54 949 74 969 b 103 990 96 990 100 990 m 171 0 b 128 139 150 50 140 94 b 132 168 126 149 125 160 b 142 178 135 171 139 175 l 160 197 b 169 207 163 200 167 204 b 213 244 183 219 196 236 b 221 236 217 240 219 239 l 247 143 b 256 113 250 133 253 124 b 253 81 258 101 261 90 b 171 0 226 54 203 28 "},"*":{"ha":425,"x_min":0,"x_max":0,"o":"m 115 685 b 118 722 110 697 115 710 b 143 824 126 756 135 789 b 124 842 146 838 139 844 b 46 826 97 838 72 832 b 17 825 36 825 26 822 b 25 844 11 835 19 839 b 69 890 39 860 56 874 b 129 921 86 908 104 919 b 165 961 163 924 164 933 b 168 1015 168 979 172 997 b 183 1060 164 1033 169 1047 b 243 1118 203 1079 222 1099 b 260 1125 247 1124 253 1128 b 265 1107 265 1121 265 1114 b 289 972 265 1061 276 1017 b 318 956 294 954 299 951 b 390 968 342 960 365 964 b 410 969 396 969 403 969 b 394 944 411 956 401 950 b 332 882 374 924 353 903 b 325 856 324 874 321 867 b 338 826 329 846 333 836 l 361 767 b 374 738 365 757 369 747 b 371 710 378 726 378 718 b 293 633 346 685 319 660 b 236 753 271 647 243 728 b 221 794 231 767 225 781 b 204 779 208 794 207 786 b 200 765 203 774 203 768 b 115 685 172 736 150 704 "},"#":{"ha":590,"x_min":0,"x_max":0,"o":"m 318 897 b 385 610 338 801 360 704 b 429 582 393 578 396 575 b 511 597 457 586 483 592 b 538 594 519 599 531 604 b 518 568 538 582 526 576 b 465 517 501 550 483 533 b 453 510 461 514 457 511 b 421 496 442 506 428 507 b 428 460 414 483 424 471 b 450 389 435 436 442 413 b 482 365 457 368 461 367 b 565 363 510 365 538 364 b 576 356 569 363 576 363 b 517 292 576 343 528 300 b 504 231 494 274 494 256 b 553 107 522 190 536 149 b 547 72 558 94 558 83 b 475 0 522 49 499 24 b 450 39 457 10 454 25 b 381 224 426 100 403 161 b 371 251 376 232 374 242 b 342 269 364 269 360 272 b 317 231 310 267 304 264 b 353 133 331 199 340 165 b 349 107 357 122 356 114 b 272 33 322 81 299 56 b 253 56 257 36 257 47 b 201 200 236 104 219 151 b 190 232 199 210 194 221 b 164 247 185 246 181 250 b 101 238 143 244 122 242 b 46 231 83 236 67 233 b 142 324 69 269 111 308 b 154 342 150 328 156 332 b 124 440 144 374 133 407 b 103 449 119 450 111 450 b 85 446 97 449 90 447 l 47 442 b 29 439 42 440 36 440 b 17 438 25 438 21 438 b 21 456 11 446 17 451 b 76 510 39 474 57 493 b 90 563 96 525 96 542 b 50 715 76 614 63 664 b 94 871 25 828 17 790 b 99 874 96 872 97 874 l 106 882 b 110 885 107 882 108 883 b 129 878 119 893 128 892 b 207 572 147 779 178 669 b 243 551 214 549 218 547 b 267 557 251 551 258 554 b 275 572 274 558 276 564 b 257 654 268 599 263 626 b 228 789 247 699 239 743 b 239 829 225 804 226 817 b 303 890 260 849 281 869 b 318 897 306 893 311 894 m 331 372 b 301 469 322 401 313 435 b 292 478 300 472 294 478 b 246 467 275 479 257 478 b 249 435 236 458 246 446 l 274 361 b 292 349 276 353 283 347 b 321 353 301 350 311 351 b 331 372 329 354 332 358 "},"(":{"ha":543,"x_min":0,"x_max":0,"o":"m 233 1243 b 224 1215 236 1232 229 1224 b 110 824 150 1096 114 964 b 160 514 106 718 126 615 b 506 -83 233 292 365 101 b 501 -150 535 -121 538 -114 b 496 -156 500 -153 497 -154 l 483 -168 b 476 -174 481 -169 479 -172 b 442 -204 457 -193 449 -204 b 410 -171 433 -204 426 -193 b 42 507 250 32 106 254 b 97 1074 -7 703 10 892 b 217 1233 126 1135 167 1189 b 233 1242 222 1238 226 1243 l 233 1243 "},")":{"ha":542,"x_min":0,"x_max":0,"o":"m 308 -204 b 319 -178 306 -193 314 -186 b 433 215 393 -57 429 75 b 382 524 436 321 415 424 b 36 1122 308 747 179 939 b 42 1189 8 1158 6 1151 b 67 1213 50 1196 58 1204 b 101 1243 86 1232 94 1243 b 133 1210 110 1243 117 1232 b 501 532 292 1006 438 786 b 446 -35 549 336 532 147 b 325 -196 415 -96 376 -150 b 308 -204 321 -200 315 -204 "},"@":{"ha":1081,"x_min":0,"x_max":0,"o":"m 415 367 b 421 446 413 393 413 419 b 450 544 429 479 439 511 b 497 725 468 604 486 664 b 504 833 503 761 507 797 b 515 868 503 847 504 858 b 571 924 535 886 553 906 b 592 932 576 929 583 938 b 600 910 600 928 600 918 b 594 825 600 882 599 853 b 610 826 603 819 607 824 b 631 822 619 832 626 831 b 650 772 639 806 646 789 b 710 421 685 632 696 565 b 740 372 713 403 717 372 b 832 383 772 371 803 372 b 817 458 832 411 822 435 b 769 897 781 603 761 749 b 768 961 769 918 769 940 b 724 1004 765 989 751 1001 b 586 990 676 1007 631 999 b 194 950 457 968 326 951 b 146 946 178 949 161 947 b 135 942 142 946 139 944 b 146 901 132 928 140 914 b 267 600 186 801 228 701 b 435 147 324 449 378 297 b 463 79 443 124 453 101 b 507 56 471 60 486 53 b 546 61 519 57 533 58 b 776 89 622 79 699 89 b 893 82 815 89 854 86 b 897 82 894 82 896 82 l 904 81 b 908 81 906 81 907 81 b 918 94 915 82 919 88 b 915 106 917 99 915 101 l 907 126 b 904 136 907 129 906 133 b 926 236 879 203 875 185 b 965 274 939 250 951 261 b 975 276 967 275 971 275 b 985 261 979 272 983 267 b 1004 213 992 246 997 229 l 1043 117 b 1063 68 1050 100 1056 85 b 1054 29 1068 53 1067 40 b 999 -28 1035 11 1015 -7 b 946 -40 983 -46 967 -46 b 688 -6 861 -18 775 -6 b 474 -31 617 -6 544 -14 b 425 -40 457 -35 440 -37 b 368 -11 399 -46 379 -35 b 336 65 357 14 346 39 b 186 472 286 201 238 338 b 46 825 142 590 93 707 b 18 908 35 853 26 881 b 28 954 11 926 15 940 b 101 1028 51 978 76 1003 b 146 1043 114 1040 129 1043 b 244 1043 179 1043 211 1043 b 626 1078 374 1042 500 1057 b 768 1099 674 1085 721 1092 b 826 1096 788 1101 807 1101 b 860 1058 846 1090 858 1079 b 863 994 861 1038 863 1015 b 865 826 861 939 861 883 b 922 503 872 717 894 610 b 940 426 929 478 935 451 b 924 376 943 407 939 390 b 840 300 896 351 872 319 b 735 283 810 282 771 289 b 667 275 713 281 689 276 b 621 308 639 274 625 282 b 571 624 597 424 593 518 b 557 665 568 635 564 646 b 508 493 535 603 515 550 b 508 463 507 483 507 472 b 539 440 511 444 518 440 b 551 440 543 440 549 440 b 440 343 538 415 472 343 b 415 367 428 343 418 351 m 553 440 b 551 440 553 440 553 440 l 553 442 l 553 440 "},"{":{"ha":604,"x_min":0,"x_max":0,"o":"m 321 1358 b 239 1275 290 1324 264 1300 b 207 1267 231 1265 218 1267 b 188 1265 200 1267 194 1265 l 147 1263 b 128 1261 142 1263 135 1261 b 110 1242 117 1260 111 1254 b 125 1125 107 1201 117 1164 b 164 938 138 1063 153 1000 b 174 750 175 875 181 814 b 132 610 167 701 154 654 b 122 588 128 603 125 594 b 133 565 117 576 121 568 b 185 551 150 560 168 556 b 279 456 236 539 267 507 b 294 339 289 417 292 378 b 293 142 299 272 296 207 b 288 -26 290 86 289 29 b 296 -89 288 -47 289 -68 b 363 -153 306 -125 328 -144 b 442 -156 389 -160 415 -158 b 588 -117 492 -149 540 -135 b 581 -136 594 -128 585 -132 b 572 -144 578 -139 575 -142 l 557 -160 b 549 -168 554 -162 551 -165 b 440 -232 521 -203 482 -221 b 294 -250 393 -244 344 -254 b 197 -160 235 -244 207 -219 b 193 -42 190 -119 190 -81 b 199 260 200 58 203 160 b 189 353 199 290 193 321 b 83 461 179 413 143 449 b 71 464 79 463 75 463 l 47 469 b 35 472 43 471 39 471 b 25 496 24 476 21 485 b 32 514 26 501 29 508 b 75 811 83 607 89 708 b 26 1053 65 893 43 972 b 15 1144 21 1083 17 1114 b 57 1251 11 1186 25 1222 b 113 1307 76 1268 94 1288 b 221 1357 142 1339 179 1354 b 321 1358 250 1360 281 1358 "},"}":{"ha":606,"x_min":0,"x_max":0,"o":"m 283 -250 b 365 -167 314 -217 340 -193 b 418 -158 375 -158 404 -158 l 458 -156 b 478 -154 465 -156 471 -154 b 494 -135 489 -153 494 -146 b 481 -18 497 -94 488 -57 b 440 171 467 44 451 107 b 432 357 429 232 424 293 b 472 497 438 406 451 453 b 483 519 476 506 481 513 b 472 542 488 532 485 539 b 419 556 454 547 438 551 b 325 651 368 568 338 600 b 310 768 317 690 313 729 b 313 965 306 835 308 900 b 317 1133 315 1021 317 1078 b 310 1196 318 1154 315 1175 b 242 1260 300 1232 278 1251 b 164 1263 215 1267 190 1265 b 17 1224 113 1256 64 1243 b 25 1244 10 1235 21 1239 b 56 1275 35 1256 47 1264 b 164 1339 85 1310 122 1328 b 310 1357 213 1351 260 1363 b 408 1267 371 1353 397 1326 b 411 1149 415 1226 414 1188 b 406 847 404 1049 403 949 b 521 646 410 760 418 667 b 569 635 538 643 554 639 b 581 611 581 632 585 622 l 572 593 b 529 296 522 500 515 400 b 578 54 540 215 563 136 b 590 -37 583 24 588 -7 b 549 -143 593 -79 581 -115 b 493 -200 529 -161 510 -179 b 383 -250 464 -232 425 -247 b 283 -250 354 -253 325 -250 "},"£":{"ha":483,"x_min":0,"x_max":0,"o":"m 15 417 b 33 443 14 431 25 436 b 93 501 53 464 72 483 b 100 528 101 510 104 517 b 90 561 97 539 93 550 l 69 626 b 60 660 67 638 64 649 b 24 793 47 704 31 747 b 56 896 17 833 26 867 b 135 976 82 924 108 950 b 256 1022 169 1008 208 1025 b 325 957 300 1021 322 1000 b 319 858 328 924 324 892 b 315 814 318 843 315 829 b 318 776 315 801 322 786 b 285 740 311 763 297 751 b 239 696 269 725 254 710 b 224 701 233 690 225 694 b 222 731 222 711 221 721 b 229 808 224 756 226 782 l 232 838 b 232 867 232 847 233 857 b 174 929 229 904 210 924 b 129 925 158 931 144 928 b 117 907 121 922 117 915 b 121 863 118 892 118 876 b 154 754 131 826 142 790 b 213 540 176 683 197 613 b 242 517 217 518 221 517 b 339 521 275 518 307 519 b 336 501 344 511 340 507 b 281 446 317 483 299 464 b 246 426 271 436 260 431 b 226 400 226 422 226 421 b 204 185 228 328 222 256 b 186 121 199 164 193 144 b 260 133 214 119 236 131 b 333 138 285 135 308 136 b 328 176 339 153 331 164 b 304 247 319 200 311 224 b 306 275 300 256 297 267 b 386 353 332 301 356 331 b 400 331 394 346 397 338 b 464 149 421 269 442 210 b 453 92 472 126 472 110 b 400 40 433 76 417 58 b 351 26 386 25 371 22 b 233 42 313 35 274 42 b 118 26 194 42 156 36 b 99 22 111 25 106 22 b 90 32 93 22 89 25 b 97 56 92 39 94 47 b 126 386 132 164 142 274 b 124 406 126 393 125 399 b 106 418 122 415 115 419 b 89 417 100 418 94 417 l 54 414 b 38 413 49 414 43 413 b 15 417 31 413 21 408 "},"¥":{"ha":611,"x_min":0,"x_max":0,"o":"m 415 1057 b 415 1056 415 1057 415 1056 b 415 1038 418 1049 419 1044 b 382 861 388 982 382 922 b 397 724 382 815 388 769 b 421 706 401 708 406 704 b 481 711 442 707 461 710 b 513 711 490 713 501 718 b 501 690 514 700 507 696 b 435 624 479 668 457 646 b 429 597 426 615 426 607 b 443 586 432 590 436 585 b 488 593 458 588 472 590 b 597 608 522 599 557 611 b 519 525 589 588 539 542 b 465 506 504 513 481 521 b 474 474 463 493 469 483 b 493 431 481 460 488 444 l 535 343 b 554 299 540 328 547 314 b 582 231 565 276 576 256 b 572 189 586 215 583 200 b 478 96 542 158 510 126 b 439 76 467 86 453 81 b 208 3 363 51 286 28 b 190 0 203 1 196 0 b 179 14 182 0 179 7 b 182 28 179 18 181 24 b 224 246 206 99 217 172 b 243 289 225 263 229 276 b 258 304 249 294 254 299 l 290 335 b 306 350 296 340 300 346 b 315 353 308 353 313 351 b 319 340 321 350 319 344 b 276 114 310 264 301 188 b 294 97 271 99 278 92 b 464 150 351 114 407 132 b 475 175 479 154 482 160 b 461 206 471 186 467 196 b 350 458 421 289 381 372 b 314 479 342 482 339 485 b 204 454 276 472 240 463 b 157 444 188 450 172 447 b 164 465 149 456 158 460 b 183 486 169 472 178 478 b 296 550 213 522 249 544 b 315 567 306 551 317 554 b 303 601 315 579 315 594 b 285 604 299 606 290 604 b 164 589 244 599 203 594 b 169 610 156 600 164 606 b 249 694 194 638 221 665 b 26 899 179 775 108 833 b 25 931 11 911 11 915 b 99 1004 49 954 74 979 b 199 928 136 982 167 953 b 290 850 229 904 254 874 b 301 896 294 868 299 882 b 353 989 308 933 325 963 b 414 1057 375 1011 400 1029 l 415 1057 "},"§":{"ha":718,"x_min":0,"x_max":0,"o":"m 375 328 b 351 193 367 283 358 238 b 347 125 347 171 344 147 b 386 97 351 103 364 93 b 561 183 432 103 524 158 b 578 242 586 199 590 215 b 539 292 569 261 554 276 b 378 375 492 331 436 358 b 297 404 350 382 325 397 b 213 432 268 411 240 422 b 194 440 206 433 200 436 b 182 474 182 447 176 460 b 203 524 188 490 194 508 b 251 597 218 549 235 572 b 207 618 239 610 222 611 b 56 714 154 639 90 668 b 57 819 32 749 32 786 b 61 824 58 821 60 822 l 69 833 b 147 911 96 860 121 885 b 201 951 163 926 182 940 b 439 1007 276 990 354 1011 b 483 926 501 1006 515 979 b 335 750 443 861 399 799 b 344 776 332 764 340 769 b 361 801 350 785 357 793 b 403 868 375 824 390 844 b 385 907 411 886 404 901 b 332 914 368 913 350 915 b 156 876 271 913 211 899 b 136 829 131 865 126 856 b 179 776 146 807 161 790 b 389 681 229 733 326 700 b 511 643 429 668 469 656 b 564 618 529 638 549 631 b 575 558 586 601 590 582 b 539 518 564 544 551 531 b 529 507 536 514 532 511 l 508 486 b 499 475 506 482 501 479 b 501 458 493 469 494 463 b 597 410 535 446 567 428 b 650 365 618 397 635 382 b 653 247 688 324 690 288 b 533 131 615 206 575 165 b 288 0 492 94 346 0 b 257 21 272 1 263 7 b 251 65 251 35 250 50 b 279 231 260 119 269 175 b 290 257 281 240 283 249 b 375 328 315 282 342 307 m 486 504 b 481 517 485 508 483 513 b 435 543 468 531 451 538 b 314 582 394 557 354 569 b 276 550 288 590 272 576 b 299 526 278 536 289 531 b 333 515 311 522 322 519 l 404 493 b 439 482 415 489 428 486 b 482 494 457 475 469 485 b 486 504 485 497 485 500 "},"ª":{"ha":338,"x_min":0,"x_max":0,"o":"m 200 835 b 86 714 163 786 124 751 b 42 683 78 704 56 683 b 19 703 32 683 24 690 b 17 763 14 722 14 743 b 104 939 28 829 54 890 b 171 1006 126 961 149 983 b 210 1033 182 1017 194 1028 b 243 1036 221 1039 232 1043 b 263 1029 250 1032 256 1029 b 285 1042 271 1029 278 1033 b 299 1036 290 1047 299 1043 b 318 799 299 954 303 879 l 318 794 b 319 792 319 793 319 793 b 297 722 326 764 321 742 b 251 678 281 710 267 693 b 233 671 247 672 242 669 b 200 835 213 721 219 776 m 111 821 b 114 797 111 817 113 807 b 119 792 114 793 115 792 b 128 793 122 792 128 792 b 172 869 143 819 158 844 b 163 935 188 899 185 911 b 135 931 153 946 140 944 b 111 821 121 899 111 864 "},"¸":{"ha":436,"x_min":0,"x_max":0,"o":"m 201 -78 b 253 -31 224 -57 238 -43 b 338 14 276 -7 303 14 b 403 -31 364 14 389 -1 b 413 -117 417 -57 419 -86 b 360 -221 403 -156 386 -192 b 265 -315 329 -253 297 -283 b 211 -340 253 -328 229 -340 b 167 -310 194 -340 179 -331 b 164 -304 165 -308 165 -307 l 158 -294 b 156 -289 157 -293 157 -290 b 158 -261 150 -279 150 -269 b 214 -206 178 -243 196 -225 b 238 -189 225 -194 232 -189 b 256 -210 243 -189 249 -196 b 297 -243 265 -226 275 -250 b 318 -197 315 -237 315 -214 b 311 -125 322 -172 322 -147 b 249 -81 297 -96 274 -81 b 201 -99 233 -81 217 -86 b 163 -137 188 -111 175 -124 b 154 -144 160 -140 157 -143 l 139 -161 b 131 -168 136 -162 133 -165 b 107 -161 121 -175 111 -172 b 103 -142 106 -154 103 -149 b 83 6 96 -93 90 -44 b 92 38 82 17 82 28 b 110 54 97 43 104 49 l 144 89 b 163 106 151 94 157 100 b 179 97 168 113 178 108 b 190 0 182 65 186 32 b 201 -78 193 -22 197 -44 "},"Þ":{"ha":456,"x_min":0,"x_max":0,"o":"m 115 874 b 169 685 139 808 147 746 b 226 738 194 700 208 721 b 263 771 239 749 250 761 b 292 786 274 782 283 786 b 332 729 315 786 326 747 b 386 485 356 649 372 567 b 388 450 388 472 388 461 b 372 410 389 435 383 421 b 294 335 347 385 324 354 b 278 279 269 318 269 303 b 292 214 285 258 301 236 b 249 167 283 196 264 182 b 221 139 239 158 231 149 b 199 144 211 131 203 132 b 186 185 194 158 190 171 l 163 264 b 150 304 158 278 154 292 b 124 361 143 325 143 347 b 122 374 119 364 119 369 b 118 421 132 390 121 406 l 35 740 b 26 768 32 750 29 760 b 33 792 25 778 26 785 b 115 874 58 817 83 842 m 278 438 b 281 442 279 439 281 440 b 233 651 271 513 256 583 b 218 682 231 663 224 672 b 204 686 215 685 207 688 b 179 638 188 675 174 658 b 225 467 194 582 210 524 b 250 440 228 453 235 443 b 278 438 260 439 268 432 "},"þ":{"ha":517,"x_min":0,"x_max":0,"o":"m 315 -151 b 282 -21 297 -104 290 -62 b 75 982 208 313 140 646 b 61 1074 69 1013 65 1043 b 71 1106 60 1085 61 1096 b 126 1161 89 1124 107 1143 b 153 1179 133 1168 138 1178 b 219 819 169 1058 194 939 b 247 836 235 819 240 829 b 317 906 271 858 293 882 b 347 929 326 914 336 922 b 383 924 360 936 374 933 b 454 690 418 882 444 743 b 492 476 468 619 481 547 b 497 374 497 442 500 408 b 472 317 497 351 489 332 b 403 247 450 293 426 271 b 357 221 390 233 374 226 b 347 206 350 218 346 213 b 353 176 349 196 350 186 b 401 -40 368 104 383 32 b 390 -79 404 -57 403 -68 b 315 -151 367 -101 344 -126 m 382 315 b 388 315 378 315 383 315 b 403 338 401 318 403 325 l 401 350 b 401 356 401 351 401 354 b 376 515 393 408 386 463 b 325 750 363 594 347 672 b 306 806 319 768 314 788 b 281 836 296 826 289 836 b 249 813 272 836 263 828 b 231 756 233 796 226 779 b 313 361 258 625 286 493 b 368 317 322 319 324 319 b 382 315 369 317 371 317 "},"%":{"ha":658,"x_min":0,"x_max":0,"o":"m 182 -3 b 243 510 182 171 204 340 b 464 1082 274 646 357 985 b 478 1096 469 1086 474 1092 l 507 1124 b 521 1138 511 1128 517 1133 b 532 1146 524 1142 528 1144 b 542 1143 535 1146 539 1144 b 543 1136 544 1142 546 1139 b 524 1114 538 1128 531 1119 b 475 1040 501 1093 488 1068 b 275 107 365 786 275 379 b 244 39 275 78 267 57 b 194 -10 228 24 213 7 b 186 -10 193 -11 189 -11 b 182 -3 185 -8 182 -6 m 279 890 b 235 772 278 846 267 806 b 157 696 208 747 183 722 b 101 671 140 679 121 671 b 29 724 72 671 44 689 b 57 899 3 786 14 847 b 192 1014 76 924 160 1014 b 240 988 207 1014 219 1004 b 279 890 271 963 276 926 m 183 800 b 154 889 183 835 175 864 b 122 907 146 899 136 911 b 111 874 106 903 113 885 b 160 774 111 838 125 792 b 182 783 171 768 181 772 b 183 800 183 789 183 796 m 644 146 b 617 58 642 107 636 79 b 513 -47 583 22 547 -12 b 474 -67 501 -57 488 -62 b 386 -25 439 -74 406 -57 b 372 71 368 6 365 38 b 401 138 376 94 385 119 b 544 271 446 186 489 235 b 567 272 553 276 560 278 b 644 146 599 244 644 192 m 464 128 b 469 92 465 118 465 104 b 532 29 476 68 503 29 b 549 53 542 29 547 38 b 506 147 549 92 529 121 b 475 165 497 157 490 172 b 464 128 461 160 467 143 "},"‰":{"ha":707,"x_min":0,"x_max":0,"o":"m 138 40 b 199 553 138 214 160 383 b 419 1125 229 689 313 1028 b 433 1139 425 1129 429 1135 l 463 1167 b 476 1181 467 1171 472 1176 b 488 1189 479 1185 483 1188 b 497 1186 490 1189 494 1188 b 499 1179 500 1185 501 1182 b 479 1157 493 1171 486 1163 b 431 1083 457 1136 443 1111 b 231 150 321 829 231 422 b 200 82 231 121 222 100 b 150 33 183 67 168 50 b 142 33 149 32 144 32 b 138 40 140 35 138 38 m 235 933 b 190 815 233 889 222 849 b 113 739 164 790 139 765 b 57 714 96 722 76 714 b -15 767 28 714 0 732 b 13 942 -42 829 -31 890 b 147 1057 32 967 115 1057 b 196 1031 163 1057 175 1047 b 235 933 226 1006 232 969 m 139 843 b 110 932 139 878 131 907 b 78 950 101 942 92 954 b 67 917 61 946 68 928 b 115 817 67 881 81 835 b 138 826 126 811 136 815 b 139 843 139 832 139 839 m 600 189 b 572 101 597 150 592 122 b 468 -4 539 65 503 31 b 429 -24 457 -14 443 -19 b 342 18 394 -31 361 -14 b 328 114 324 49 321 81 b 357 181 332 138 340 163 b 500 314 401 229 444 278 b 522 315 508 319 515 321 b 600 189 554 288 600 235 m 914 189 b 886 101 911 150 906 122 b 782 -4 853 65 817 31 b 743 -24 771 -14 757 -19 b 656 18 708 -31 675 -14 b 642 114 638 49 635 81 b 671 181 646 138 654 163 b 814 314 715 229 758 278 b 836 315 822 319 829 321 b 914 189 868 288 914 235 m 419 171 b 425 135 421 161 421 147 b 488 72 432 111 458 72 b 504 96 497 72 503 81 b 461 190 504 135 485 164 b 431 208 453 200 446 215 b 419 171 417 203 422 186 m 733 171 b 739 135 735 161 735 147 b 801 72 746 111 772 72 b 818 96 811 72 817 81 b 775 190 818 135 799 164 b 744 208 767 200 760 215 b 733 171 731 203 736 186 "},"[":{"ha":717,"x_min":0,"x_max":0,"o":"m 703 -18 b 631 -92 676 -44 654 -68 b 596 -106 621 -101 610 -106 b 497 -118 563 -110 531 -112 b 378 -143 457 -124 417 -131 b 342 -118 353 -150 344 -146 b 126 740 304 167 215 469 b 28 1035 93 839 60 936 b 53 1136 7 1104 6 1089 b 60 1143 54 1139 57 1142 b 107 1186 75 1158 86 1179 b 168 1171 128 1193 147 1175 b 318 1149 217 1158 268 1151 b 363 1146 333 1147 349 1147 b 374 1139 368 1146 372 1144 b 371 1131 374 1136 372 1132 b 361 1119 368 1126 365 1122 b 319 1076 347 1106 332 1092 b 250 1051 301 1054 278 1047 b 232 1053 244 1053 239 1053 l 199 1057 b 181 1058 192 1057 186 1058 b 176 1058 179 1058 178 1058 l 169 1058 b 151 1056 164 1060 157 1060 b 163 1004 146 1036 157 1021 b 190 919 172 976 181 947 l 246 749 b 438 -37 326 504 404 218 b 454 -50 439 -46 444 -51 b 483 -43 464 -49 474 -46 b 688 -12 550 -25 619 -18 b 703 -18 690 -12 694 -15 "},"]":{"ha":718,"x_min":0,"x_max":0,"o":"m 14 1060 b 86 1133 40 1086 64 1110 b 122 1147 96 1143 108 1146 b 340 1183 196 1154 269 1164 b 376 1160 365 1192 372 1186 b 415 942 385 1086 400 1014 b 592 301 460 724 522 511 b 689 7 624 203 658 106 b 665 -96 711 -62 713 -47 b 658 -103 663 -97 661 -100 b 611 -144 643 -117 631 -137 b 550 -129 589 -151 571 -135 b 399 -107 500 -118 450 -110 b 354 -104 385 -106 369 -106 b 344 -97 350 -104 344 -103 b 346 -89 343 -94 344 -92 b 349 -86 347 -87 347 -87 l 353 -81 b 356 -78 354 -79 356 -79 b 397 -36 369 -64 385 -51 b 468 -10 417 -12 440 -7 b 536 -17 490 -12 514 -15 b 565 -14 546 -18 556 -19 b 556 38 572 4 560 21 b 444 379 518 151 481 264 b 281 1078 374 607 313 842 b 263 1092 278 1088 272 1093 b 256 1090 260 1092 258 1090 l 240 1086 b 233 1085 239 1086 236 1086 b 29 1054 167 1067 99 1060 b 14 1060 26 1054 24 1056 "},"¢":{"ha":425,"x_min":0,"x_max":0,"o":"m 172 1000 b 178 968 174 988 175 978 b 167 881 185 919 185 919 b 246 885 193 882 219 883 b 281 883 257 885 268 885 b 308 849 299 881 308 868 b 308 835 310 844 308 839 l 306 819 b 308 688 300 775 294 732 b 303 665 311 679 308 672 b 285 649 297 660 292 654 l 250 614 b 232 597 244 608 238 603 b 213 603 225 590 217 594 b 207 696 201 633 203 664 b 213 760 208 717 213 738 b 188 789 214 778 207 785 b 163 790 179 790 171 790 b 128 746 111 790 117 782 b 278 396 163 624 204 500 b 297 381 282 389 286 382 b 297 439 303 400 300 419 b 310 474 294 453 299 464 b 314 478 311 475 313 476 l 322 488 b 326 492 324 489 325 490 b 386 539 347 507 358 533 b 396 463 397 515 393 489 b 393 350 399 425 399 388 b 379 314 390 336 389 322 b 371 264 363 299 365 282 b 408 153 383 226 394 189 b 397 108 414 135 411 121 b 333 47 375 89 354 67 b 324 44 331 44 328 44 b 313 65 317 49 314 57 l 297 107 b 285 149 293 121 289 135 b 224 257 275 192 257 226 b 18 714 122 344 50 592 b 40 789 11 743 14 769 b 42 790 40 789 40 790 l 42 792 b 43 793 43 793 43 793 b 82 894 94 846 88 825 b 99 939 81 913 85 926 b 158 997 118 957 138 978 b 172 1000 160 999 164 999 "},"$":{"ha":535,"x_min":0,"x_max":0,"o":"m 265 143 b 203 146 242 144 222 144 b 115 263 128 154 100 192 b 124 292 118 272 121 282 b 235 453 136 363 182 410 b 232 425 243 442 235 433 b 207 329 222 393 211 363 b 254 249 201 289 217 260 b 325 239 278 242 301 239 b 415 254 354 239 385 244 b 424 274 425 257 426 264 b 390 333 418 296 406 315 b 314 410 365 360 340 385 b 164 551 264 458 213 504 b 18 749 117 597 40 685 b 31 807 10 771 14 790 b 131 901 64 839 93 875 b 142 926 140 908 143 917 b 136 956 140 936 139 946 b 143 979 135 965 136 972 b 222 1057 168 1004 193 1031 b 251 942 243 1019 238 978 b 315 946 274 943 294 946 b 364 944 332 947 349 946 b 388 913 381 942 390 928 b 376 874 385 899 381 886 b 356 799 367 850 360 824 b 354 731 350 775 347 753 b 344 696 360 715 354 706 b 296 647 328 679 311 664 b 297 604 275 626 275 625 b 318 585 304 597 311 592 l 360 546 b 381 526 367 539 374 533 b 460 453 407 503 433 478 b 506 394 476 435 493 415 b 493 286 528 354 526 319 b 379 179 457 249 424 208 b 368 154 369 172 365 165 b 378 111 371 140 374 125 b 364 63 382 92 381 76 b 296 0 340 42 324 15 b 268 86 274 24 278 57 b 265 143 263 104 256 122 m 121 832 b 126 808 119 822 122 815 b 240 661 157 754 197 706 b 249 658 243 660 247 657 b 257 668 254 658 257 664 b 285 797 257 713 269 756 b 292 821 288 804 290 813 b 269 851 294 838 288 849 b 244 854 261 854 253 856 b 121 832 203 850 161 846 "},"•":{"ha":440,"x_min":0,"x_max":0,"o":"m 14 679 b 17 721 15 690 15 706 b 43 778 21 742 28 761 b 119 854 69 803 94 828 b 158 871 132 865 144 871 b 188 864 168 871 178 868 b 225 840 201 858 214 850 b 406 485 322 768 394 600 b 424 397 410 456 418 426 b 422 335 428 376 426 356 b 397 288 418 317 411 300 b 317 207 371 260 344 233 b 272 188 303 193 288 188 b 240 194 263 188 251 190 b 17 632 113 244 35 513 b 14 679 15 646 15 661 "},"©":{"ha":1063,"x_min":0,"x_max":0,"o":"m 258 -72 b 311 -17 281 -49 296 -32 b 319 15 321 -7 324 3 l 311 43 b 142 732 247 271 188 500 b 101 807 136 761 124 788 b 93 818 97 810 93 814 b 26 965 86 875 53 918 b 24 969 26 967 25 968 l 19 978 b 18 979 19 978 19 979 l 18 981 b 17 982 17 982 17 982 b 18 1000 13 989 14 996 b 94 1076 43 1026 69 1051 b 128 1085 104 1086 115 1085 b 231 1082 161 1083 196 1083 b 585 1075 349 1078 467 1071 b 865 1088 679 1078 772 1083 b 939 1081 890 1088 914 1083 b 942 1065 944 1081 947 1071 b 890 1013 925 1047 908 1029 b 864 953 871 996 864 978 b 869 682 861 863 860 772 b 986 154 888 500 929 326 b 1001 113 990 140 999 128 b 1024 81 1004 97 1031 101 b 1038 40 1018 64 1031 53 b 1033 -1 1049 22 1054 19 b 960 -68 1024 -11 972 -68 b 944 -51 954 -68 950 -62 b 925 -17 938 -40 931 -29 b 885 14 918 3 904 11 b 763 25 844 18 803 25 b 456 -14 658 25 556 10 b 414 -37 439 -18 425 -26 b 374 -75 401 -51 388 -64 b 350 -71 365 -83 357 -82 b 329 -54 344 -60 339 -54 b 314 -58 325 -54 319 -56 b 258 -72 300 -64 285 -72 m 496 982 l 304 982 l 254 983 b 231 983 246 983 239 983 b 213 961 215 983 210 978 b 425 72 256 664 339 360 b 454 56 431 53 435 51 b 456 56 454 56 456 56 l 457 57 b 458 57 458 57 458 57 l 468 60 b 469 60 468 60 469 60 l 471 61 b 831 118 589 96 708 117 b 856 119 839 118 847 118 b 867 136 865 119 869 126 b 861 156 865 143 864 149 b 778 564 821 289 793 425 b 769 839 768 656 761 747 b 778 972 774 883 775 928 b 761 990 779 985 774 990 b 738 989 753 990 744 989 b 496 981 657 986 576 983 m 643 335 b 603 463 629 382 617 422 b 590 499 600 475 594 486 b 597 531 586 511 588 521 b 669 601 622 554 647 579 b 689 585 683 601 686 592 b 747 389 711 521 735 456 b 758 321 753 367 756 343 b 729 240 761 290 754 263 b 661 175 706 219 683 197 b 636 164 653 167 644 164 b 574 201 614 164 589 186 b 322 675 463 313 358 528 b 343 739 317 700 325 721 b 425 818 369 765 396 793 b 551 888 463 851 507 869 b 582 872 565 893 576 886 b 588 849 585 864 586 856 b 621 694 596 796 603 744 b 614 668 624 685 622 676 b 546 601 592 646 569 624 b 522 610 535 592 528 594 b 496 725 508 647 503 686 b 486 778 493 743 490 760 b 460 792 483 790 474 796 b 446 786 456 790 450 789 b 425 742 419 775 417 771 b 433 714 426 732 429 722 b 608 367 476 590 535 474 b 643 335 617 357 621 344 "},"®":{"ha":1063,"x_min":0,"x_max":0,"o":"m 258 -72 b 313 -17 281 -49 296 -32 b 321 15 322 -7 324 3 l 313 43 b 142 732 247 271 188 500 b 101 807 136 761 125 788 b 94 818 99 810 94 814 b 28 965 88 875 53 918 b 17 982 25 971 21 976 b 19 1000 14 989 14 996 b 96 1076 44 1026 69 1051 b 128 1085 104 1086 117 1085 b 154 1083 136 1085 146 1085 l 206 1083 b 232 1082 215 1082 224 1082 b 586 1075 350 1078 468 1071 b 867 1088 679 1078 772 1083 b 939 1081 890 1088 915 1083 b 943 1065 946 1081 947 1071 b 892 1013 926 1047 910 1029 b 864 953 872 996 865 978 b 869 682 863 863 861 772 b 986 154 889 501 929 326 b 1001 113 992 140 1000 128 b 1025 81 1004 97 1032 101 b 1039 40 1019 64 1032 53 b 1033 -1 1050 22 1056 19 b 978 -57 1015 -21 997 -39 b 961 -68 971 -64 965 -68 b 926 -17 950 -68 929 -26 b 886 14 919 3 904 11 b 763 25 844 18 804 25 b 456 -14 660 25 557 10 b 414 -37 439 -18 426 -26 b 375 -75 401 -51 389 -64 b 351 -71 365 -83 357 -82 b 331 -54 344 -60 339 -54 b 315 -58 325 -54 321 -56 b 258 -72 300 -64 286 -72 m 497 982 b 329 982 440 982 385 982 b 304 982 321 982 313 982 l 256 983 b 231 983 247 983 239 983 b 213 961 215 983 211 978 b 226 874 217 932 221 903 b 426 72 278 603 347 336 b 454 56 432 53 436 51 b 460 57 456 56 457 57 l 468 60 b 474 61 471 60 472 61 b 832 118 590 96 710 117 b 856 119 839 118 847 118 b 867 136 865 119 869 126 l 863 156 b 778 564 822 289 793 425 b 769 839 768 656 761 747 b 779 972 774 883 776 928 b 763 990 781 985 775 990 b 757 990 761 990 758 990 l 744 989 b 738 989 742 989 740 989 b 497 981 657 986 576 983 m 603 253 b 567 186 601 219 593 206 l 542 160 b 528 147 536 156 532 151 b 506 153 518 139 511 140 b 474 231 494 179 483 204 b 324 700 415 385 371 542 b 336 751 317 722 319 738 b 347 765 340 754 342 760 b 336 779 343 771 340 775 l 313 808 b 301 822 310 813 306 818 b 301 844 296 829 294 838 b 371 914 325 867 349 890 b 396 911 381 922 388 922 b 608 692 461 832 538 764 b 650 643 624 676 638 660 b 660 526 676 606 679 567 b 596 433 643 492 621 461 b 610 382 568 401 560 396 b 806 290 681 364 744 329 b 808 260 822 279 822 274 b 749 200 789 239 768 219 b 715 196 735 186 732 186 b 693 208 708 200 700 204 l 647 235 b 625 247 640 239 633 243 b 603 253 618 250 611 257 m 540 407 b 563 540 579 454 588 497 b 469 642 539 579 507 611 b 540 407 472 603 510 478 "},"†":{"ha":689,"x_min":0,"x_max":0,"o":"m 222 1119 b 236 1097 231 1113 233 1104 b 303 903 258 1032 281 967 b 389 908 324 904 351 907 b 497 906 425 910 461 911 b 503 889 507 904 510 896 b 444 829 483 868 463 849 b 400 813 432 815 418 813 b 338 810 393 813 369 811 b 636 60 431 557 532 308 b 619 -24 658 7 661 18 b 568 -75 603 -42 585 -58 b 540 -26 551 -61 547 -43 b 214 804 424 247 314 524 b -4 803 111 799 4 796 b 29 844 0 822 19 831 b 144 894 58 882 96 894 b 181 894 158 894 169 894 b 146 992 169 926 158 960 l 138 1019 b 142 1043 135 1028 136 1036 b 222 1119 168 1069 192 1099 "},"|":{"ha":544,"x_min":0,"x_max":0,"o":"m 100 1151 b 114 1129 108 1144 111 1136 b 514 92 232 778 371 433 b 497 8 536 39 539 50 b 446 -43 481 -10 463 -26 b 418 6 429 -29 425 -11 b 154 663 326 222 238 442 b 24 1024 110 782 68 903 l 15 1051 b 19 1075 13 1060 14 1068 b 100 1151 46 1101 68 1131 "},"‡":{"ha":811,"x_min":0,"x_max":0,"o":"m 242 1119 b 256 1097 251 1113 253 1106 b 322 904 278 1033 299 968 b 397 908 342 906 365 907 b 504 907 433 910 469 911 b 510 889 515 906 518 897 b 451 829 492 869 471 850 b 408 814 439 817 425 813 b 357 811 401 814 385 813 b 575 254 426 624 500 439 b 671 260 599 256 626 258 b 779 258 707 261 743 264 b 785 240 789 257 792 249 b 726 181 765 221 744 201 b 682 165 714 168 700 164 b 613 163 675 165 649 164 b 624 136 617 154 619 146 l 644 86 b 656 60 649 76 653 68 b 640 -24 678 8 681 19 b 638 -26 639 -25 638 -26 l 629 -33 b 626 -36 629 -35 628 -35 l 601 -62 b 599 -65 600 -64 599 -65 l 590 -72 b 588 -75 590 -74 589 -74 b 560 -26 571 -61 567 -43 l 485 156 b 331 151 428 153 371 151 b 279 156 301 151 282 151 b 311 196 282 175 301 182 b 447 246 347 244 392 246 b 233 806 372 432 300 617 b 60 800 171 803 104 800 b 4 804 29 800 7 801 b 38 844 8 824 26 831 b 151 894 65 883 103 894 b 201 896 171 894 188 896 b 193 919 199 904 196 913 l 175 968 b 167 992 172 976 169 983 b 157 1021 163 1001 160 1011 b 161 1043 154 1028 156 1038 b 242 1119 188 1069 211 1100 "},"_":{"ha":667,"x_min":0,"x_max":0,"o":"m 290 10 b 75 0 279 8 154 0 b 14 6 43 0 18 1 b 47 46 18 25 38 32 b 163 96 76 85 114 96 b 535 110 286 97 411 106 b 643 107 571 111 607 113 b 649 90 653 106 656 97 b 590 31 629 69 608 51 b 546 14 578 17 564 14 b 290 10 461 17 375 14 "},"–":{"ha":667,"x_min":0,"x_max":0,"o":"m 290 406 b 75 396 279 404 154 396 b 14 401 43 396 18 397 b 47 442 18 421 38 428 b 163 492 76 481 114 492 b 535 506 286 493 411 501 b 643 503 571 507 607 508 b 649 486 653 501 656 493 b 590 426 629 465 608 447 b 546 410 578 413 564 410 b 290 406 461 413 375 410 "},"−":{"ha":667,"x_min":0,"x_max":0,"o":"m 290 444 b 75 435 279 443 154 435 b 14 440 43 435 18 436 b 47 481 18 460 38 467 b 163 531 76 519 114 531 b 535 544 286 532 411 540 b 643 542 571 546 607 547 b 649 525 653 540 656 532 b 590 465 629 504 608 486 b 546 449 578 451 564 449 b 290 444 461 451 375 449 "},"¯":{"ha":849,"x_min":0,"x_max":0,"o":"m 14 724 b 83 793 38 746 61 769 b 124 808 94 804 108 808 b 172 811 140 810 156 811 b 300 810 215 811 257 811 l 554 810 b 681 808 596 808 639 808 b 818 803 726 808 772 804 b 833 794 825 803 832 801 b 829 781 835 790 832 785 b 763 714 807 758 785 738 b 736 706 756 707 747 704 b 560 714 678 717 618 714 b 61 714 393 715 228 714 b 18 714 47 714 32 714 l 14 724 "},"—":{"ha":1328,"x_min":0,"x_max":0,"o":"m 1314 481 b 1290 453 1310 468 1299 461 b 1242 404 1274 436 1257 419 b 1218 396 1235 397 1226 397 b 1183 396 1207 396 1196 396 b 61 400 810 397 436 399 b 32 400 51 400 42 400 b 15 408 25 401 18 400 b 25 425 14 415 19 419 b 46 446 32 432 38 439 b 100 493 63 463 76 486 b 168 496 121 500 146 496 b 961 493 433 494 697 494 b 1286 489 1069 492 1178 490 b 1314 481 1294 489 1306 492 "},"€":{"ha":539,"x_min":0,"x_max":0,"o":"m 428 485 b 450 450 442 475 444 461 b 522 221 475 388 514 288 b 493 138 528 188 521 160 b 438 82 474 119 456 100 b 401 63 424 68 414 63 b 371 72 393 63 383 65 b 149 396 268 128 192 294 b 122 408 143 411 138 414 b 106 403 117 407 111 404 l 74 392 b 57 386 68 390 63 388 b 15 369 44 381 31 375 b 24 390 11 382 19 386 b 99 461 49 414 69 442 b 121 479 107 467 119 467 b 110 521 121 493 118 508 b 97 525 108 524 101 526 b 50 514 81 522 65 518 b 21 510 40 511 32 506 b 28 528 14 519 24 524 b 83 583 46 547 65 565 b 96 619 94 594 97 606 b 90 688 93 642 92 665 b 96 782 88 719 92 750 b 157 901 104 828 122 869 b 224 968 181 922 201 946 b 281 994 240 986 261 994 b 411 861 343 994 392 911 b 406 833 415 851 414 842 b 331 758 381 808 356 782 b 306 799 313 769 313 786 b 244 878 288 829 269 853 l 232 886 b 226 890 231 888 229 889 b 207 897 218 894 213 897 b 192 876 200 897 194 890 b 189 714 181 822 185 768 b 200 646 190 692 196 668 b 225 631 203 631 210 628 b 317 647 256 636 285 646 b 336 644 322 647 329 647 b 339 638 338 644 340 639 b 331 625 338 633 335 629 b 279 574 314 608 296 590 b 240 554 268 563 257 553 b 228 539 231 556 226 549 b 250 518 229 524 239 515 b 282 529 261 521 271 525 b 358 550 308 536 333 543 b 374 547 363 551 368 554 b 332 501 364 529 347 515 b 271 456 314 483 299 460 b 264 439 264 454 263 446 b 264 438 264 439 264 438 l 265 435 b 388 232 296 361 335 292 b 399 228 390 229 394 229 b 399 242 399 232 400 238 b 388 272 394 251 392 263 l 365 332 b 354 363 361 343 358 353 b 368 429 339 400 335 396 b 428 485 388 449 406 469 "},"μ":{"ha":711,"x_min":0,"x_max":0,"o":"m 238 714 b 460 404 301 599 378 501 b 474 436 474 414 474 426 b 485 549 478 474 479 513 b 588 746 508 693 499 653 b 594 753 590 749 593 750 b 615 749 603 760 611 758 b 624 721 618 740 622 731 b 744 342 656 592 697 465 b 738 303 751 325 750 314 b 661 228 713 279 690 254 b 575 463 624 307 604 386 b 564 442 563 457 565 447 b 560 378 563 419 560 399 b 526 304 560 347 550 324 b 513 292 522 300 518 296 l 488 265 b 474 253 482 261 478 257 b 449 238 464 243 457 238 b 424 251 442 238 435 242 b 372 306 406 268 390 288 b 336 344 361 317 351 329 b 342 299 332 325 339 313 b 444 -92 376 169 411 39 b 454 -124 449 -103 451 -114 b 447 -156 458 -136 457 -147 b 367 -224 419 -178 403 -212 b 338 -132 350 -196 346 -162 b 293 42 322 -74 307 -17 l 201 390 b 157 564 188 449 172 506 b 154 574 157 567 156 571 b 178 654 144 628 136 613 b 238 714 196 674 215 692 "},"¬":{"ha":564,"x_min":0,"x_max":0,"o":"m 14 908 b 69 969 32 935 53 950 b 146 1006 90 994 115 1003 b 444 1039 246 1014 346 1028 b 479 1042 456 1040 468 1042 b 494 1028 489 1042 494 1038 b 542 868 494 972 517 917 b 533 822 553 846 554 843 b 526 815 531 819 529 818 l 511 801 b 463 758 507 794 469 758 b 408 876 446 758 414 857 b 394 946 403 897 400 919 b 204 928 331 944 268 933 b 14 908 143 921 82 911 "},"¶":{"ha":643,"x_min":0,"x_max":0,"o":"m 529 996 b 471 935 508 969 490 951 b 449 874 451 917 444 899 b 482 629 460 792 469 711 b 578 131 507 463 540 296 b 561 75 583 107 579 90 b 494 13 539 56 519 33 b 481 50 485 25 483 38 b 376 611 440 236 403 422 b 346 886 364 703 351 794 b 324 910 344 907 340 911 b 304 889 308 910 303 904 l 318 763 b 425 106 343 542 379 322 b 414 65 429 89 428 76 b 338 0 388 44 372 11 b 315 90 322 29 322 60 b 313 100 314 93 314 96 b 285 244 304 149 294 196 b 200 365 253 282 228 325 b 39 704 133 457 49 590 b 86 849 33 760 46 808 b 153 914 110 869 132 892 b 257 979 182 946 217 965 b 396 1006 301 994 350 999 b 529 996 439 1013 481 1007 "},"¤":{"ha":533,"x_min":0,"x_max":0,"o":"m 350 294 b 339 288 346 292 342 290 b 283 264 321 271 301 264 b 229 281 265 264 247 271 b 185 311 213 289 199 301 b 164 328 178 318 172 326 b 96 264 140 307 117 286 l 83 251 b 78 244 82 249 81 247 b 50 228 69 236 63 225 b 32 260 33 231 36 249 b 40 281 29 268 35 275 b 119 363 67 308 92 336 b 125 392 129 372 132 381 b 86 529 103 435 90 481 b 82 542 86 533 85 539 b 18 657 50 574 40 619 b 21 683 13 667 13 676 b 96 763 46 710 71 736 b 153 711 121 750 129 722 b 175 729 161 715 168 722 l 196 750 b 256 783 219 772 236 783 b 306 768 269 783 285 778 b 340 767 318 761 328 757 b 354 763 344 769 351 767 b 385 764 365 746 375 756 b 429 804 400 778 414 792 b 453 800 438 813 449 810 b 463 778 457 793 460 786 b 454 742 468 764 465 753 b 417 703 442 729 429 717 b 410 653 392 676 397 676 b 424 626 415 644 419 636 b 439 571 432 610 442 592 b 444 542 438 561 442 551 b 446 415 454 500 458 457 b 454 379 442 401 446 390 b 468 361 460 374 464 367 l 497 324 b 511 304 501 317 507 311 b 508 271 522 288 522 286 b 447 207 488 249 468 228 b 422 207 436 196 431 196 b 376 265 407 226 393 246 b 350 294 369 275 364 289 m 360 386 b 358 401 360 389 358 394 b 317 553 354 454 335 503 b 200 681 290 615 254 647 b 182 669 192 685 183 679 b 186 582 176 640 181 611 b 338 365 201 496 253 401 b 360 386 350 361 360 368 "},"˘":{"ha":476,"x_min":0,"x_max":0,"o":"m 153 1042 b 174 996 164 1029 167 1011 b 289 878 196 947 229 885 b 319 894 303 875 314 881 b 333 951 328 913 336 932 b 353 994 332 971 340 982 b 408 1049 372 1013 390 1031 b 422 1051 411 1051 419 1053 b 426 1039 425 1050 428 1043 b 378 918 425 993 408 951 b 271 810 344 881 310 843 b 206 782 249 792 226 782 b 65 944 129 782 85 885 b 68 967 61 953 63 961 b 131 1029 89 988 110 1010 b 153 1042 136 1035 142 1043 "},"˛":{"ha":333,"x_min":0,"x_max":0,"o":"m 167 193 b 151 158 169 179 157 169 b 171 18 126 108 133 60 b 249 -33 193 -6 219 -21 b 303 -61 265 -42 285 -44 b 226 -137 276 -86 251 -112 b 200 -144 218 -146 210 -147 b 57 -46 146 -125 86 -100 b 53 63 38 -11 35 26 b 167 193 79 115 117 161 "},"ƒ":{"ha":467,"x_min":0,"x_max":0,"o":"m 15 419 b 28 439 14 429 22 433 b 88 499 47 460 67 479 b 110 508 93 503 101 506 b 121 511 114 510 117 510 l 142 515 b 151 518 144 517 149 518 b 142 561 157 535 147 547 b 63 793 113 638 83 714 b 44 890 53 825 46 857 b 75 969 43 921 51 949 b 139 1032 97 990 118 1011 b 185 1054 153 1047 168 1054 b 324 967 235 1054 294 1003 b 322 944 329 960 329 951 b 247 869 296 919 271 893 b 214 893 228 869 224 885 b 153 939 196 911 178 931 b 151 904 143 926 149 915 b 268 575 179 792 224 682 b 322 546 282 539 283 539 b 415 561 354 550 385 556 b 451 561 428 563 440 568 b 447 547 454 554 450 550 b 385 485 426 526 406 506 b 376 478 382 482 379 479 b 325 463 360 472 343 468 b 329 436 318 453 325 444 b 407 265 354 379 381 322 b 436 188 418 240 428 214 b 411 85 450 149 446 114 b 353 26 390 67 371 46 b 281 1 332 4 308 -1 b 79 114 217 6 126 76 b 168 207 106 150 139 176 b 207 179 182 197 194 188 b 271 135 228 165 249 147 b 332 113 290 125 306 104 b 313 172 335 136 321 154 b 199 424 276 257 238 340 b 169 439 190 442 189 443 b 140 435 160 438 150 436 l 82 424 b 53 419 72 422 63 421 b 15 419 40 417 28 411 "},"¦":{"ha":357,"x_min":0,"x_max":0,"o":"m 106 1085 b 146 881 119 1011 133 946 b 175 736 156 832 164 783 b 160 688 179 715 175 700 b 86 626 135 668 119 636 b 67 717 74 656 72 686 b 17 971 50 801 33 886 b 28 1011 13 988 17 1000 b 106 1085 53 1033 74 1057 m 236 507 b 243 492 239 500 243 496 b 338 121 264 365 301 243 b 321 57 347 92 342 75 b 263 0 300 39 281 18 b 246 21 250 4 249 13 b 154 375 211 136 178 253 l 153 379 b 153 381 153 379 153 381 l 150 397 b 150 400 150 399 150 399 l 149 404 b 149 406 149 404 149 406 b 154 429 147 414 147 422 b 236 507 181 456 204 485 "},"ð":{"ha":504,"x_min":0,"x_max":0,"o":"m 400 960 b 399 958 400 960 399 960 b 388 931 404 946 393 939 b 285 779 353 879 319 829 b 282 729 272 763 272 749 b 469 204 346 603 469 343 b 428 97 471 163 458 126 b 358 26 404 75 382 51 b 299 0 342 8 321 0 b 161 128 232 0 181 71 b 190 318 138 196 146 260 b 271 404 215 349 242 378 b 279 444 283 417 286 429 l 204 606 b 183 607 199 618 190 618 b 164 572 176 596 169 585 b 64 453 142 524 99 492 b 65 478 54 465 63 471 b 163 643 97 533 129 589 b 164 689 171 660 172 672 b 53 881 129 754 94 819 b 56 914 42 897 42 900 b 131 990 79 939 103 964 b 251 796 182 931 211 860 b 282 828 268 803 272 817 b 308 864 290 839 299 851 b 367 929 326 888 344 910 b 399 960 378 940 388 950 m 378 122 b 375 138 376 125 376 131 b 310 368 368 218 339 293 b 293 396 306 378 306 394 b 261 369 276 397 268 382 b 246 324 254 354 247 339 b 321 122 233 242 260 175 b 356 103 331 114 343 108 b 378 122 368 96 378 104 "},"^":{"ha":446,"x_min":0,"x_max":0,"o":"m 153 506 b 140 303 149 433 144 368 b 121 157 136 254 129 206 b 82 85 115 128 104 104 b 19 22 61 65 40 43 b 19 44 8 33 18 39 b 39 156 32 81 36 119 b 53 338 46 217 49 278 b 57 560 58 411 60 486 b 44 885 54 668 50 776 b 69 950 44 911 49 932 b 125 1006 89 967 107 988 b 147 997 135 1014 144 1011 b 185 844 160 947 172 896 b 422 125 247 599 326 360 b 408 53 435 94 436 74 b 365 11 393 42 381 25 b 349 -1 357 3 353 -1 b 333 21 343 -1 339 6 b 178 451 276 163 224 306 b 153 506 172 468 171 486 "},"¨":{"ha":392,"x_min":0,"x_max":0,"o":"m 264 949 b 272 849 269 935 272 868 b 263 822 274 839 271 829 b 193 753 240 799 217 776 b 179 758 189 749 179 753 b 176 857 178 792 176 824 b 181 871 176 861 178 867 b 192 882 185 875 188 878 l 214 906 b 225 917 218 910 221 913 b 264 949 236 928 246 940 m 122 949 b 131 849 129 936 131 868 b 122 822 132 839 129 829 b 104 804 117 817 110 810 l 69 771 b 51 753 64 765 57 758 b 38 758 47 749 38 753 b 35 857 36 792 35 824 b 40 871 35 861 36 867 b 51 882 44 875 47 878 l 72 906 b 83 917 76 910 81 913 b 122 949 96 928 106 940 "},"ˇ":{"ha":346,"x_min":0,"x_max":0,"o":"m 33 1038 b 128 929 60 1019 121 961 b 144 913 129 921 132 913 b 196 1051 150 935 183 1051 b 246 1008 204 1051 218 1036 b 269 983 253 1000 261 992 b 278 944 283 972 283 961 b 204 694 250 863 225 779 b 189 667 203 685 200 676 b 172 682 183 672 178 676 l 139 714 b 122 729 133 719 128 725 b 89 793 103 747 93 768 b 33 1017 74 868 56 943 b 33 1038 31 1024 29 1029 "},"ˆ":{"ha":350,"x_min":0,"x_max":0,"o":"m 6 764 b 6 785 1 772 4 778 b 61 1008 28 858 46 933 b 94 1072 65 1033 75 1056 b 161 1136 118 1093 138 1117 b 178 1107 172 1126 175 1117 b 251 857 197 1022 222 939 b 242 818 257 840 256 829 b 236 813 240 817 238 814 l 224 800 b 168 750 219 790 176 750 b 140 814 158 750 156 771 b 135 833 139 821 136 826 l 122 871 b 117 889 121 876 119 883 b 100 874 106 889 103 881 b 69 824 96 853 85 838 b 6 764 49 804 31 781 "},"˚":{"ha":385,"x_min":0,"x_max":0,"o":"m 281 928 b 250 847 281 897 272 869 b 167 763 224 818 196 789 b 107 738 147 746 128 738 b 35 786 79 738 53 754 b 51 951 6 836 11 907 b 138 1039 78 982 108 1010 b 176 1056 149 1050 163 1056 b 281 928 242 1056 281 986 m 179 838 b 128 949 186 885 167 926 b 114 943 122 953 114 950 b 131 874 110 918 118 896 b 179 838 142 856 156 842 "},"`":{"ha":232,"x_min":0,"x_max":0,"o":"m 75 1042 b 142 867 96 978 117 922 b 135 811 153 844 151 828 b 82 751 115 792 99 771 b 65 765 69 751 68 760 b 3 922 43 817 22 869 b 13 974 -4 943 -1 960 b 75 1042 32 994 49 1018 "},"´":{"ha":233,"x_min":0,"x_max":0,"o":"m 96 1042 b 149 974 118 1018 131 994 b 150 922 160 960 161 943 b 65 765 124 869 96 817 b 47 751 63 760 60 751 b 3 811 33 771 19 792 b 4 867 -11 828 -10 844 b 96 1042 36 922 65 978 "},"˜":{"ha":442,"x_min":0,"x_max":0,"o":"m 14 840 b 24 856 14 847 18 851 b 94 924 47 878 69 901 b 176 957 119 946 146 957 b 218 950 189 957 203 954 l 278 929 b 332 919 296 922 314 919 b 415 954 361 919 390 929 b 428 956 417 956 421 954 b 319 849 393 915 360 878 b 244 825 296 832 271 825 b 192 833 228 825 210 828 b 146 850 176 838 161 844 b 90 861 128 857 108 861 b 28 843 69 861 47 856 b 15 839 24 842 19 840 l 14 840 "},"~":{"ha":1267,"x_min":0,"x_max":0,"o":"m 1200 647 b 1133 544 1185 607 1163 574 b 1040 450 1103 513 1072 481 b 872 379 992 403 935 379 b 675 436 806 379 733 407 b 539 506 629 458 585 482 b 318 571 471 539 396 571 b 163 501 264 571 196 547 b 74 408 138 467 104 439 b 78 429 65 419 75 424 b 250 604 129 493 188 551 b 408 665 297 646 350 665 b 604 611 472 665 549 639 b 740 542 650 589 696 565 b 961 475 807 507 883 475 b 1097 536 1008 475 1075 489 b 1200 647 1119 583 1163 613 "},"™":{"ha":947,"x_min":0,"x_max":0,"o":"m 867 633 b 806 801 836 693 821 747 b 768 957 790 853 781 906 b 749 947 754 963 751 953 b 654 821 726 908 688 854 b 622 822 646 814 633 814 b 575 857 606 833 590 846 b 572 836 564 853 569 843 b 606 733 582 801 593 767 b 604 706 608 722 611 714 b 593 690 600 701 597 696 l 560 646 b 539 633 556 640 551 633 b 456 929 506 692 468 863 b 467 986 451 951 454 969 b 515 1047 485 1006 499 1028 b 544 1047 525 1058 532 1058 b 607 989 565 1028 585 1010 l 610 988 b 611 986 610 988 611 986 l 621 976 b 622 975 621 976 622 976 l 625 974 b 694 917 649 953 668 931 b 739 968 719 924 724 950 b 806 1054 761 996 783 1025 b 817 1067 808 1058 813 1063 b 840 1060 825 1075 838 1071 b 847 1029 843 1050 846 1039 b 871 921 856 993 864 957 b 928 746 885 863 904 804 b 926 706 935 729 935 717 b 867 633 907 683 892 658 m 446 1031 b 424 992 443 1010 432 1001 b 383 943 411 975 397 960 b 367 939 379 939 374 938 b 332 943 354 940 343 942 b 321 932 325 943 319 939 b 332 882 324 915 328 899 b 389 722 349 829 365 775 b 385 674 397 703 397 688 b 328 607 365 654 350 631 b 229 918 288 647 238 861 b 226 928 228 921 228 924 b 206 946 224 940 219 946 b 196 946 203 946 200 946 l 179 944 b 169 944 175 944 172 944 l 96 942 b 86 942 93 942 90 942 l 69 940 b 60 940 65 940 63 940 b 17 940 46 940 32 933 b 25 964 11 953 21 958 b 78 1025 43 986 57 1010 b 163 1036 100 1042 135 1032 b 343 1042 222 1042 282 1042 b 446 1031 376 1042 410 1040 "},"×":{"ha":513,"x_min":0,"x_max":0,"o":"m 92 240 b 93 240 92 240 93 240 b 104 276 88 254 99 265 b 193 440 133 332 161 386 b 189 489 204 460 201 472 b 31 692 135 556 83 624 b 35 747 8 721 10 721 b 100 813 56 768 76 789 b 160 738 125 788 140 761 b 214 667 179 714 196 690 b 271 596 233 643 253 618 b 294 615 286 596 290 607 l 340 696 b 374 753 338 724 357 736 b 411 790 386 765 399 778 b 435 800 418 797 425 808 b 431 774 444 792 436 782 b 404 726 422 757 414 742 l 329 599 b 311 569 322 589 317 579 b 314 542 306 560 307 550 b 319 535 315 539 318 538 l 329 521 b 335 514 332 518 333 517 b 490 329 386 453 438 390 b 490 300 501 315 501 311 b 426 238 469 279 449 258 b 394 239 414 224 407 224 b 364 275 385 251 374 264 l 301 350 b 271 386 292 361 282 374 b 240 422 260 399 250 411 b 219 403 226 422 224 411 b 101 242 179 322 171 307 b 93 240 100 240 97 242 l 92 240 "},"ß":{"ha":844,"x_min":0,"x_max":0,"o":"m 206 814 b 214 729 200 781 210 756 b 374 111 253 526 297 304 b 367 71 379 94 381 83 b 292 0 342 49 321 22 b 264 60 275 18 271 39 b 88 826 182 296 126 582 b 82 865 85 839 83 853 b 93 900 79 879 83 890 b 160 967 115 922 138 944 b 182 979 168 975 175 979 b 260 935 199 979 247 944 l 338 885 b 376 858 350 875 364 867 b 426 818 394 846 411 833 b 461 731 453 794 464 765 b 440 636 460 699 451 667 l 429 604 b 424 588 428 599 425 593 b 438 567 421 576 425 568 b 482 561 451 564 467 563 b 803 426 586 550 731 508 b 811 304 835 389 839 347 b 803 293 808 300 807 296 b 568 94 733 215 664 139 b 535 85 557 90 546 86 b 457 122 497 79 475 89 b 442 158 450 133 444 146 b 407 301 425 204 415 253 b 414 333 406 314 406 324 b 489 408 438 360 464 385 b 501 388 503 404 500 394 b 531 263 511 346 519 304 b 551 213 535 244 542 228 b 631 181 569 181 594 171 b 706 217 657 188 682 200 b 731 299 733 235 743 267 b 697 346 724 318 711 333 b 351 471 604 432 472 456 b 331 504 329 474 325 482 b 335 518 332 508 333 513 l 344 543 b 367 633 354 572 363 603 b 336 722 371 668 363 699 b 206 814 307 751 242 799 "},"'":{"ha":165,"x_min":0,"x_max":0,"o":"m 106 1036 b 147 861 117 972 131 917 b 133 806 156 839 151 822 b 72 746 111 786 90 765 b 57 760 58 746 58 754 b 17 917 42 811 28 864 b 33 968 13 938 17 954 b 106 1036 56 989 76 1013 "},"&":{"ha":847,"x_min":0,"x_max":0,"o":"m 138 313 b 138 313 138 313 138 313 b 144 333 133 321 139 326 b 282 435 183 375 225 415 b 299 443 288 436 293 440 b 303 446 300 444 301 446 b 290 476 307 460 297 468 b 15 979 217 586 33 861 b 35 1038 13 1001 17 1021 b 97 1100 57 1057 78 1078 b 133 1117 108 1111 121 1117 b 156 1111 140 1117 147 1115 b 203 1083 172 1103 188 1093 b 403 888 279 1029 342 957 b 428 867 410 879 414 867 b 431 869 429 868 431 869 b 472 958 428 908 444 936 b 511 997 486 969 499 985 b 524 1000 515 1000 518 1003 b 528 988 529 997 528 992 b 549 728 526 900 531 813 b 533 679 553 708 550 693 b 471 617 511 660 492 638 b 449 618 464 611 456 610 b 208 904 374 718 296 817 b 176 935 199 915 188 925 b 164 935 174 936 168 935 b 179 899 169 924 174 911 b 424 511 251 764 338 638 b 465 496 435 496 446 490 b 668 538 532 515 599 528 b 746 544 693 542 719 542 b 754 539 749 544 751 542 b 753 531 757 536 756 533 b 736 513 747 525 742 519 l 701 478 b 685 460 696 472 690 465 b 661 453 678 454 669 453 b 472 422 597 450 536 429 b 356 386 432 418 394 401 b 306 319 325 372 310 350 b 363 160 294 256 313 201 b 440 118 385 140 411 128 b 619 96 499 99 558 94 b 717 108 653 97 685 99 b 733 140 738 114 740 121 b 685 201 724 165 707 186 b 453 263 617 253 539 274 b 440 260 449 263 444 261 l 414 256 b 401 253 410 254 406 254 b 404 268 399 261 401 265 b 442 307 417 282 431 293 b 550 357 469 343 508 354 b 744 317 619 363 685 351 b 814 256 772 301 797 282 b 804 140 842 214 839 176 b 511 0 708 35 665 0 b 281 58 440 0 339 14 b 233 289 204 113 185 210 b 308 372 254 322 279 347 l 307 372 b 306 374 307 372 306 372 b 271 369 294 378 282 374 b 139 311 225 354 182 332 l 138 313 m 164 939 b 164 940 164 939 164 940 b 163 938 163 940 163 939 m 308 372 b 310 374 308 372 310 374 l 308 374 "},"‘":{"ha":139,"x_min":0,"x_max":0,"o":"m 122 1024 b 101 847 93 968 94 907 b 106 818 101 838 104 828 b 103 794 107 810 108 801 b 32 706 81 765 60 733 b 22 721 28 713 24 717 b 15 838 18 760 13 799 b 63 960 19 883 33 924 b 124 1042 83 986 103 1014 b 122 1024 124 1042 126 1031 "},"’":{"ha":139,"x_min":0,"x_max":0,"o":"m 17 724 b 39 901 47 779 44 840 b 38 908 39 904 38 906 l 35 922 b 33 929 35 925 33 926 b 38 953 32 938 32 946 b 108 1042 60 983 81 1014 b 117 1026 113 1035 117 1031 b 124 910 122 988 126 949 b 78 788 121 864 106 824 b 17 706 57 761 36 733 b 17 724 15 706 14 718 "},"‚":{"ha":139,"x_min":0,"x_max":0,"o":"m 17 -149 b 39 29 47 -93 44 -32 b 38 36 39 32 38 33 l 35 50 b 33 57 35 53 33 54 b 38 81 32 65 32 74 b 108 169 60 111 81 142 b 117 154 113 163 117 158 b 124 38 122 115 126 76 b 78 -85 121 -8 106 -49 b 17 -167 57 -111 36 -139 b 17 -149 15 -167 14 -154 "},"“":{"ha":263,"x_min":0,"x_max":0,"o":"m 122 1024 b 101 847 93 968 94 907 b 106 818 101 838 104 828 b 103 794 107 810 108 801 b 32 706 81 765 60 733 b 22 721 28 713 24 717 b 15 838 18 760 13 799 b 63 960 18 883 33 924 b 124 1042 83 986 103 1014 b 122 1024 124 1042 126 1031 m 246 1024 b 224 847 215 968 218 907 b 224 846 224 847 224 846 l 225 842 b 225 840 225 842 225 842 l 228 825 b 228 824 228 825 228 824 l 229 819 b 229 818 229 819 229 819 b 225 794 231 810 231 801 b 154 706 203 765 182 733 b 146 721 150 713 146 717 b 139 838 140 760 136 799 b 185 960 142 883 157 924 b 247 1042 206 986 226 1014 b 246 1024 247 1042 249 1031 "},"”":{"ha":261,"x_min":0,"x_max":0,"o":"m 139 724 b 161 901 169 781 167 840 b 161 903 161 903 161 903 l 160 907 b 160 908 160 907 160 908 l 157 924 b 157 925 157 925 157 925 l 156 929 b 156 931 156 929 156 931 b 160 954 156 938 154 947 b 231 1042 182 983 203 1014 b 239 1026 235 1035 239 1031 b 246 910 244 988 249 949 b 200 788 243 864 228 824 b 139 706 179 761 160 733 b 139 724 139 706 136 718 m 17 724 b 38 901 46 781 44 840 b 33 931 38 911 35 921 b 36 954 32 938 32 947 b 107 1042 60 983 81 1014 b 117 1026 113 1035 117 1031 b 124 910 121 988 126 949 b 78 788 121 864 106 824 b 15 706 56 761 36 733 b 17 724 15 706 14 718 "},"„":{"ha":261,"x_min":0,"x_max":0,"o":"m 139 -149 b 161 29 169 -92 167 -32 b 161 31 161 31 161 31 l 160 35 b 160 36 160 35 160 36 l 157 51 b 157 53 157 53 157 53 l 156 57 b 156 58 156 57 156 58 b 160 82 156 65 154 75 b 231 169 182 111 203 142 b 239 154 235 163 239 158 b 246 38 244 115 249 76 b 200 -85 243 -8 228 -49 b 139 -167 179 -111 160 -139 b 139 -149 139 -167 136 -154 m 17 -149 b 38 29 46 -92 44 -32 b 33 58 38 39 35 49 b 36 82 32 65 32 75 b 107 169 60 111 81 142 b 117 154 113 163 117 158 b 124 38 121 115 126 76 b 78 -85 121 -8 106 -49 b 15 -167 56 -111 36 -139 b 17 -149 15 -167 14 -154 "},"+":{"ha":539,"x_min":0,"x_max":0,"o":"m 14 450 b 47 492 18 469 38 478 b 163 542 76 529 114 542 b 206 543 179 542 193 543 b 154 735 176 635 149 725 b 203 713 175 736 186 719 b 281 615 247 696 268 663 b 300 549 289 588 294 567 b 407 556 326 551 356 553 l 447 556 b 515 553 469 556 493 557 b 521 536 525 551 528 543 b 463 476 501 515 481 496 b 418 460 450 463 436 460 b 333 457 410 460 378 458 b 383 278 351 407 378 328 b 368 268 385 267 376 263 l 313 299 b 294 308 307 301 301 306 b 268 347 279 317 272 331 b 236 451 265 357 253 399 b 14 450 133 446 22 443 "},"=":{"ha":554,"x_min":0,"x_max":0,"o":"m 14 481 b 46 521 17 500 36 507 b 161 571 75 560 113 571 b 406 585 285 572 282 581 b 514 583 442 586 478 588 b 519 565 524 581 526 572 b 461 506 500 544 479 526 b 417 489 449 492 435 489 b 72 475 392 490 178 475 b 14 481 39 475 17 476 m 29 339 b 63 381 33 358 51 367 b 176 431 90 418 128 431 b 422 444 301 432 297 439 b 529 442 458 444 494 447 b 535 425 540 440 543 432 b 476 365 517 404 496 385 b 433 349 464 351 450 349 b 81 335 407 350 185 335 b 29 339 53 335 32 336 "},"÷":{"ha":538,"x_min":0,"x_max":0,"o":"m 235 631 b 213 606 228 622 221 614 b 204 608 211 606 206 607 b 201 622 203 613 201 617 b 192 725 199 657 201 692 b 199 753 189 735 193 744 b 215 774 204 760 210 767 l 249 817 b 265 838 254 824 260 831 b 274 839 267 839 272 840 b 279 832 276 838 279 835 b 235 631 281 749 301 700 m 14 468 b 46 510 17 488 36 496 b 161 560 75 547 113 560 b 406 574 285 561 282 568 b 419 574 410 574 415 574 l 446 574 b 514 571 469 575 492 575 b 519 554 524 569 526 561 b 461 494 500 533 481 514 b 417 478 449 481 435 478 b 65 464 392 479 168 464 b 14 468 36 464 17 465 m 299 225 b 275 200 290 217 283 207 b 267 201 274 199 268 200 b 264 215 265 206 264 211 b 254 318 261 250 264 285 b 261 346 251 328 256 338 b 278 367 267 353 272 360 l 311 410 b 328 431 317 417 322 424 b 336 432 329 432 335 433 b 342 425 339 431 342 428 b 299 225 343 342 364 293 "},"-":{"ha":539,"x_min":0,"x_max":0,"o":"m 14 440 b 47 482 18 460 38 468 b 161 532 76 519 114 532 b 407 546 286 533 282 540 b 421 546 411 546 417 546 l 447 546 b 515 543 471 547 493 547 b 521 526 525 542 528 533 b 463 467 501 506 481 486 b 418 450 450 453 435 450 b 67 436 393 451 169 436 b 14 440 38 436 17 438 "},"±":{"ha":613,"x_min":0,"x_max":0,"o":"m 14 593 b 47 635 18 613 38 621 b 163 685 76 672 114 685 b 206 686 179 685 193 686 b 154 878 176 778 149 868 b 203 856 175 879 186 863 b 281 758 247 839 268 806 b 300 692 289 731 294 710 b 407 699 326 694 356 696 l 447 699 b 515 696 469 699 493 700 b 521 679 525 694 528 686 b 463 619 501 658 481 639 b 418 603 450 606 436 603 b 333 600 410 603 378 601 b 383 421 351 550 378 471 b 368 411 385 410 376 406 l 313 442 b 294 451 307 444 301 449 b 268 490 279 460 272 474 b 236 594 265 500 253 542 b 14 593 133 589 22 586 m 88 219 b 121 260 92 239 111 246 b 236 310 150 299 188 310 b 481 324 360 311 357 319 b 589 322 517 325 553 328 b 594 304 599 321 601 313 b 536 244 575 285 554 265 b 492 229 524 232 510 228 b 146 214 467 229 251 214 b 88 219 114 214 92 215 "},"‹":{"ha":804,"x_min":0,"x_max":0,"o":"m 632 653 b 558 581 607 628 583 604 b 515 556 546 571 531 563 b 268 463 435 519 351 490 b 296 444 272 447 285 447 b 374 418 322 436 349 426 l 531 364 b 608 338 557 356 582 347 b 797 269 671 317 735 292 b 801 240 815 263 817 256 b 786 226 797 236 792 231 l 757 197 b 742 182 751 192 747 188 b 707 175 732 171 721 169 b 560 229 658 194 608 211 b 149 368 424 279 286 322 b 67 406 121 378 88 381 b 125 471 79 433 107 449 b 192 510 143 492 165 501 b 565 633 318 544 444 582 b 628 660 586 643 607 651 b 632 653 629 658 631 656 "},"›":{"ha":804,"x_min":0,"x_max":0,"o":"m 269 181 b 343 251 293 204 318 229 b 603 358 381 285 553 343 l 624 367 b 633 369 626 367 631 368 b 606 389 629 386 617 385 b 104 564 438 444 269 501 b 100 592 86 571 85 576 b 158 650 119 611 139 631 b 194 657 169 661 181 663 l 342 603 b 753 464 478 553 615 510 b 835 426 781 454 814 451 b 776 361 821 399 794 383 b 710 324 758 340 735 331 b 321 192 578 286 447 246 l 289 179 b 274 172 285 176 279 175 b 269 181 272 175 271 178 "},"<":{"ha":1099,"x_min":0,"x_max":0,"o":"m 904 643 b 831 571 881 618 856 594 b 788 546 818 561 803 553 b 256 467 721 515 326 490 b 246 464 253 465 249 464 l 225 456 b 214 453 221 456 218 454 b 1069 260 225 414 953 303 b 1074 231 1088 253 1089 246 b 1015 172 1054 211 1035 192 b 979 165 1004 161 993 160 b 14 396 803 233 72 326 b 72 461 26 424 54 439 b 139 500 90 482 113 492 b 838 624 265 535 717 572 b 900 650 858 633 879 642 b 904 643 901 649 903 646 "},">":{"ha":1100,"x_min":0,"x_max":0,"o":"m 194 164 b 269 235 219 188 243 213 b 311 260 281 246 297 253 b 843 339 378 290 774 315 b 854 342 847 340 850 342 l 875 350 b 885 353 878 350 882 351 b 29 547 875 392 146 503 b 25 575 11 554 11 560 b 40 590 31 581 35 585 l 69 619 b 85 633 75 624 81 629 b 119 640 96 644 106 646 b 1086 410 297 572 1028 479 b 1026 344 1072 382 1046 367 b 960 307 1010 324 986 314 b 261 182 833 271 382 233 b 246 175 256 181 251 178 l 214 163 b 199 156 210 160 204 158 b 194 164 197 158 196 161 "},"«":{"ha":1321,"x_min":0,"x_max":0,"o":"m 657 653 b 583 581 633 628 608 604 b 540 556 571 571 556 563 b 335 476 474 525 404 500 b 325 474 332 475 329 475 l 304 465 b 293 463 301 464 297 464 b 321 444 297 447 310 447 b 340 438 328 443 333 440 l 379 425 b 399 418 386 422 392 421 l 556 364 b 633 338 582 356 607 347 b 822 269 697 317 760 292 b 826 240 840 263 842 256 b 768 182 807 221 788 201 b 732 175 757 171 746 169 b 585 229 683 194 633 211 b 174 368 449 279 311 322 b 92 406 146 378 114 381 b 150 471 106 433 132 449 b 218 510 168 492 192 501 b 590 633 344 544 469 582 b 653 660 611 643 632 651 b 657 653 654 658 656 656 m 1128 653 b 1053 581 1103 628 1079 604 b 1011 556 1040 571 1025 563 b 804 476 943 525 874 500 b 794 474 801 475 799 475 l 774 465 b 763 463 771 464 767 464 b 790 444 767 447 781 447 b 810 438 797 443 803 440 l 849 425 b 868 418 856 422 861 421 l 1025 364 b 1103 338 1051 356 1076 347 b 1293 269 1167 317 1229 292 b 1297 240 1311 263 1311 256 b 1282 226 1293 236 1288 232 l 1253 197 b 1238 182 1247 193 1243 188 b 1203 175 1226 171 1217 169 b 1054 229 1153 194 1104 211 b 644 368 919 279 781 322 b 563 406 615 378 583 381 b 621 471 575 433 601 449 b 688 510 639 492 661 501 b 1061 633 814 544 940 582 b 1124 660 1082 643 1103 651 b 1128 653 1125 658 1126 656 "},".":{"ha":221,"x_min":0,"x_max":0,"o":"m 89 0 b 46 139 68 50 58 94 b 50 168 44 149 43 160 b 60 178 53 171 57 175 l 78 197 b 88 207 82 200 85 204 b 131 244 101 219 114 236 b 139 236 135 240 138 239 b 147 206 142 226 144 215 l 165 143 b 174 113 168 133 171 124 b 171 81 176 101 179 90 b 89 0 144 54 121 28 "},"·":{"ha":160,"x_min":0,"x_max":0,"o":"m 58 374 b 15 513 38 424 28 468 b 19 542 14 522 13 533 b 29 551 22 544 26 549 l 47 571 b 57 581 51 574 54 578 b 100 618 71 593 83 610 b 108 610 104 614 107 613 b 117 579 111 600 114 589 l 135 517 b 143 486 138 507 140 497 b 140 454 146 475 149 464 b 58 374 114 428 90 401 "},"˙":{"ha":221,"x_min":0,"x_max":0,"o":"m 69 807 b 26 946 49 857 39 901 b 31 975 25 956 24 967 b 40 985 33 978 38 982 l 58 1004 b 68 1014 63 1007 65 1011 b 111 1051 82 1026 94 1043 b 119 1043 115 1047 118 1046 b 128 1013 122 1033 125 1022 l 146 950 b 154 919 149 940 151 931 b 151 888 157 908 160 897 b 69 807 125 861 101 835 "},"˝":{"ha":435,"x_min":0,"x_max":0,"o":"m 150 1019 b 161 1067 143 1040 143 1054 b 233 1129 186 1086 200 1119 b 265 1043 250 1103 256 1072 b 353 808 293 964 315 883 b 351 786 357 800 358 793 b 278 714 326 761 303 738 b 261 715 272 708 265 710 b 239 753 254 726 247 738 b 150 665 206 724 179 692 b 133 682 139 671 136 676 b 21 961 96 775 60 868 b 28 1000 14 976 15 988 b 88 1058 49 1019 68 1039 b 115 1051 101 1072 107 1071 b 174 911 135 1004 154 957 b 206 833 175 906 206 833 b 150 1019 210 838 154 1006 "},"¡":{"ha":272,"x_min":0,"x_max":0,"o":"m 101 990 b 144 851 122 940 132 896 b 140 822 146 842 147 831 b 131 813 138 819 133 815 l 113 793 b 103 783 110 790 106 786 b 60 746 89 771 76 754 b 51 754 56 750 53 751 l 25 847 b 17 878 22 857 19 867 b 19 910 14 889 11 900 b 101 990 46 936 69 963 m 169 0 b 164 11 164 1 164 6 b 139 240 161 88 149 164 b 71 604 122 363 97 483 b 86 656 67 625 68 640 b 138 708 104 672 121 690 b 164 701 153 722 160 721 b 210 475 179 626 196 550 b 256 138 229 363 247 251 b 257 108 256 128 256 118 b 238 61 258 89 253 74 b 178 1 218 42 199 21 b 169 0 176 0 172 0 "},"¿":{"ha":569,"x_min":0,"x_max":0,"o":"m 183 976 b 207 878 199 939 200 908 b 201 856 208 869 207 861 b 129 783 178 831 153 807 b 113 788 124 779 114 782 b 97 874 107 817 101 846 b 104 896 96 882 97 890 b 183 976 128 922 153 947 m 419 114 b 393 190 410 142 401 165 b 385 214 390 199 389 206 b 399 269 374 236 379 253 b 461 332 421 289 440 311 b 475 333 464 333 471 333 b 479 325 476 333 481 328 b 492 269 475 304 485 288 b 542 140 508 226 525 183 b 525 60 563 92 558 94 b 479 15 510 44 493 31 b 439 0 468 3 456 -1 b 357 11 413 4 385 7 b 53 39 256 26 154 31 b 17 47 40 39 22 35 b 36 83 8 64 26 74 b 171 429 126 181 168 297 b 153 644 172 501 165 574 b 172 706 149 669 151 689 b 175 708 174 707 175 708 l 183 715 b 186 718 183 717 185 717 l 211 744 b 214 747 213 746 214 747 l 222 754 b 238 763 222 757 235 763 b 246 753 243 763 244 757 b 267 532 254 679 267 606 b 126 163 265 392 224 267 b 115 147 122 158 118 153 b 119 136 113 143 114 138 b 149 131 129 133 139 132 b 404 111 233 129 318 121 b 419 114 407 111 410 113 "},"°":{"ha":293,"x_min":0,"x_max":0,"o":"m 279 908 b 249 828 279 878 271 850 b 165 743 222 799 194 769 b 106 718 146 726 126 718 b 33 767 78 718 51 735 b 50 932 4 817 10 888 b 136 1019 76 963 107 990 b 175 1036 147 1031 161 1036 b 279 908 240 1036 279 967 m 178 818 b 126 929 185 865 165 907 b 113 924 121 933 113 931 b 129 854 108 899 117 876 b 178 818 140 836 154 822 "},"»":{"ha":1321,"x_min":0,"x_max":0,"o":"m 746 200 b 819 272 769 225 794 249 b 863 297 832 282 847 290 b 1068 376 929 328 999 353 b 1078 379 1071 378 1074 378 l 1099 388 b 1110 390 1101 389 1106 389 b 1082 408 1106 406 1093 406 b 1063 415 1075 411 1069 413 l 1024 428 b 1004 435 1017 431 1011 433 l 847 489 b 769 515 821 497 796 506 b 581 583 706 536 643 561 b 576 613 563 590 561 597 b 635 671 596 632 615 651 b 671 678 646 682 657 683 b 818 624 719 658 769 642 b 1229 485 954 574 1092 531 b 1311 447 1257 475 1289 472 b 1253 382 1297 419 1271 404 b 1185 343 1235 361 1211 351 b 813 219 1058 308 933 271 b 750 193 792 210 771 201 b 746 200 749 194 747 197 m 275 200 b 350 272 300 225 324 249 b 392 297 363 282 378 290 b 599 376 460 328 529 353 b 608 379 601 378 604 378 l 629 388 b 640 390 632 389 636 389 b 613 408 636 406 622 406 b 593 415 606 411 600 413 l 554 428 b 535 435 547 431 542 433 l 378 489 b 300 515 351 497 326 506 b 110 583 236 536 174 561 b 106 613 92 590 92 597 b 121 626 110 617 115 621 l 150 656 b 165 671 156 660 160 665 b 200 678 176 682 186 683 b 349 624 250 658 299 642 b 758 485 483 574 622 531 b 840 447 788 475 819 472 b 782 382 828 419 801 404 b 715 343 764 361 742 351 b 342 219 589 308 463 271 b 279 193 321 210 300 201 b 275 200 278 194 276 197 "},"\"":{"ha":331,"x_min":0,"x_max":0,"o":"m 271 1036 b 313 861 282 972 296 917 b 299 806 321 839 317 822 b 238 746 276 786 256 765 b 222 760 224 746 224 754 b 182 917 207 811 193 864 b 199 968 178 938 182 954 b 271 1036 221 989 242 1013 m 106 1036 b 147 861 117 972 131 917 b 133 806 156 839 151 822 b 72 746 111 786 90 765 b 57 760 58 746 58 754 b 17 917 42 811 28 864 b 33 968 13 938 17 954 b 106 1036 56 989 76 1013 "},"⁄":{"ha":275,"x_min":0,"x_max":0,"o":"m 258 1154 b 257 1122 264 1142 260 1132 b 126 272 189 856 149 547 b 111 -12 119 178 115 82 b 85 -78 111 -39 106 -60 b 39 -122 68 -92 54 -107 b 22 -131 35 -126 29 -132 b 15 -115 14 -129 15 -121 b 17 -65 15 -99 15 -82 b 51 386 25 85 35 236 b 164 1044 78 608 114 826 l 168 1060 b 258 1154 176 1086 236 1138 "},"¼":{"ha":1218,"x_min":0,"x_max":0,"o":"m 721 1154 b 719 1122 726 1142 722 1132 b 589 272 651 856 611 547 b 574 -12 582 178 578 82 b 547 -78 574 -39 568 -60 b 501 -122 531 -92 517 -107 b 485 -131 497 -126 492 -132 b 478 -115 476 -129 478 -121 b 479 -65 478 -99 478 -82 b 514 386 488 85 497 236 b 626 1044 540 608 576 826 l 631 1060 b 721 1154 639 1086 699 1138 m 751 351 b 776 456 760 389 771 421 b 788 843 799 583 806 713 b 776 900 785 863 781 881 b 782 926 772 911 774 919 b 849 993 804 949 826 971 b 871 986 857 1001 868 999 b 885 914 876 963 882 939 b 867 522 897 783 893 651 b 858 489 864 511 861 500 b 853 456 857 478 850 468 b 867 456 858 451 863 453 b 1006 506 910 479 957 494 b 1026 532 1025 510 1026 513 b 1021 600 1025 554 1024 578 b 1007 846 1013 682 1011 764 b 1029 903 1006 869 1013 888 b 1090 963 1051 922 1071 943 b 1104 947 1103 961 1103 954 b 1150 571 1117 822 1131 696 b 1143 500 1154 547 1160 522 b 1142 467 1135 490 1139 478 b 1201 168 1160 367 1178 267 b 1192 128 1206 153 1204 140 b 1178 114 1188 124 1182 118 l 1149 86 b 1135 72 1144 82 1140 76 b 1119 63 1128 65 1124 63 b 1106 82 1113 63 1108 69 b 1044 392 1081 183 1060 288 b 1010 422 1042 414 1038 424 b 792 367 933 418 860 401 b 761 351 782 361 772 356 b 751 351 760 350 758 351 m 125 67 b 229 164 154 111 192 146 b 239 188 242 169 240 178 b 201 340 226 239 214 290 l 131 658 b 122 681 129 664 126 669 b 14 565 94 636 58 603 b 38 650 24 599 31 624 b 69 849 54 707 69 789 b 103 917 72 875 82 899 b 158 972 122 935 140 954 b 179 965 168 981 176 978 l 221 767 b 346 225 260 586 301 406 b 347 219 346 224 347 221 l 350 207 b 351 201 350 206 351 204 b 375 182 354 188 361 182 b 439 175 396 182 418 182 b 446 156 447 171 451 161 b 372 82 421 131 397 107 b 354 78 368 78 363 75 b 293 86 335 85 314 86 b 208 79 265 86 236 82 b 125 67 182 76 154 71 "},"½":{"ha":1426,"x_min":0,"x_max":0,"o":"m 721 1154 b 719 1122 726 1142 722 1132 b 589 272 651 856 611 547 b 574 -12 582 178 578 82 b 547 -78 574 -39 568 -60 b 501 -122 531 -92 517 -107 b 485 -131 497 -126 492 -132 b 478 -115 476 -129 478 -121 b 479 -65 478 -99 478 -82 b 514 386 488 85 497 236 b 626 1044 540 608 576 826 l 631 1060 b 721 1154 639 1086 699 1138 m 125 67 b 229 164 154 111 192 146 b 239 188 242 169 240 178 b 201 340 226 239 214 290 l 131 658 b 122 681 129 664 126 669 b 14 565 94 636 58 603 b 38 650 24 599 31 624 b 69 849 54 707 69 789 b 103 917 72 875 82 899 b 158 972 122 935 140 954 b 179 965 168 981 176 978 l 221 767 b 346 225 260 586 301 406 b 347 219 346 224 347 221 l 350 207 b 351 201 350 206 351 204 b 375 182 354 188 361 182 b 439 175 396 182 418 182 b 446 156 447 171 451 161 b 372 82 421 131 397 107 b 354 78 368 78 363 75 b 293 86 335 85 314 86 b 208 79 265 86 236 82 b 125 67 182 76 154 71 m 983 43 b 981 51 982 46 981 49 b 1121 686 1014 267 1051 479 b 1176 833 1138 736 1157 785 b 1186 861 1179 842 1183 851 b 1172 881 1190 872 1185 879 b 1147 879 1164 881 1156 881 b 911 871 1069 869 990 869 b 897 869 907 871 901 871 b 900 843 888 860 896 851 l 963 708 b 957 669 971 693 969 682 b 942 656 951 665 947 660 l 913 626 b 897 611 907 621 903 617 b 869 617 883 597 878 599 b 842 676 860 636 851 657 l 786 794 b 758 854 776 815 768 835 b 765 897 750 871 750 885 b 824 957 785 917 806 936 b 882 976 840 975 858 978 b 1004 967 922 971 964 969 b 1236 972 1082 963 1158 968 b 1271 974 1247 974 1258 974 b 1283 957 1279 972 1285 965 b 1275 929 1282 947 1279 938 b 1079 167 1169 686 1122 426 b 1078 149 1078 161 1078 154 b 1092 149 1083 144 1088 144 b 1239 228 1136 185 1183 211 b 1247 233 1242 228 1243 231 b 1240 271 1250 247 1243 258 l 1207 389 b 1225 451 1201 414 1204 433 b 1292 513 1247 469 1265 494 b 1413 210 1325 407 1335 296 b 1375 167 1404 192 1388 181 b 1332 125 1361 153 1347 139 b 1308 125 1325 119 1317 122 b 1203 140 1275 140 1239 144 b 1001 47 1121 133 1063 99 b 983 43 996 42 990 40 "},"¾":{"ha":1386,"x_min":0,"x_max":0,"o":"m 889 1154 b 888 1122 894 1142 890 1132 b 757 272 819 856 779 547 b 742 -12 750 178 746 82 b 715 -78 742 -39 736 -60 b 669 -122 699 -92 685 -107 b 653 -131 665 -126 660 -132 b 646 -115 644 -129 646 -121 b 647 -65 646 -99 646 -82 b 682 386 656 85 665 236 b 794 1044 708 608 744 826 l 799 1060 b 889 1154 807 1086 867 1138 m 919 351 b 944 456 928 389 939 421 b 956 843 967 583 974 713 b 944 900 953 863 949 881 b 950 926 940 911 942 919 b 1017 993 972 949 994 971 b 1039 986 1025 1001 1036 999 b 1053 914 1044 963 1050 939 b 1035 522 1065 783 1061 651 b 1026 489 1032 511 1029 500 b 1021 456 1025 478 1018 468 b 1035 456 1026 451 1031 453 b 1174 506 1078 479 1125 494 b 1194 532 1193 510 1194 513 b 1189 600 1193 554 1192 578 b 1175 846 1181 682 1179 764 b 1197 903 1174 869 1181 888 b 1258 963 1219 922 1239 943 b 1272 947 1271 961 1271 954 b 1318 571 1285 822 1299 696 b 1311 500 1322 547 1328 522 b 1310 467 1303 490 1307 478 b 1369 168 1328 367 1346 267 b 1360 128 1374 153 1372 140 b 1346 114 1356 124 1350 118 l 1317 86 b 1303 72 1313 82 1308 76 b 1288 63 1296 65 1292 63 b 1274 82 1281 63 1276 69 b 1213 392 1249 183 1228 288 b 1178 422 1210 414 1206 424 b 960 367 1101 418 1028 401 b 929 351 950 361 940 356 b 919 351 928 350 926 351 m 304 389 b 365 276 325 350 344 313 b 481 161 388 236 431 169 b 511 178 497 157 506 161 b 521 260 519 204 521 232 b 446 511 521 342 500 447 b 336 547 417 544 381 558 b 168 439 271 532 215 483 b 146 422 163 432 157 424 b 150 446 140 432 147 439 b 392 822 214 582 290 710 b 421 872 404 836 431 850 b 367 886 414 892 386 885 b 136 881 290 892 213 888 b 122 876 131 879 126 878 b 113 861 115 874 111 868 b 165 728 125 814 143 771 b 161 693 171 715 174 704 b 90 622 136 669 113 644 b 69 639 76 624 74 632 b 19 763 50 679 32 719 b 46 865 8 803 14 836 b 106 924 67 883 86 903 b 285 979 146 968 228 979 b 461 981 343 982 403 981 b 514 969 479 981 499 981 b 521 953 519 967 524 960 b 508 932 517 946 514 938 b 476 894 499 918 488 907 b 261 565 388 796 319 683 b 254 549 258 560 256 554 b 279 561 268 544 274 556 b 369 622 308 583 336 606 b 443 646 393 633 417 643 b 532 611 479 647 508 636 b 558 575 542 600 551 588 b 604 261 613 476 629 371 b 556 171 597 226 581 196 b 478 94 529 146 504 121 b 411 63 457 74 433 63 b 308 128 369 63 332 97 b 218 286 272 178 244 231 b 224 317 213 299 214 307 b 290 382 246 339 268 361 b 304 389 293 386 299 386 "},"a":{"ha":511,"x_min":0,"x_max":0,"o":"m 425 -18 b 428 18 418 0 425 8 b 419 176 444 72 440 125 b 414 190 418 182 415 186 b 336 251 392 243 392 243 b 224 264 299 257 261 260 b 199 246 210 265 203 260 b 167 158 189 217 178 188 b 101 61 154 121 133 88 b 58 22 88 49 76 32 b 68 60 51 38 63 49 b 119 239 94 117 111 176 b 96 263 124 260 118 265 b 14 249 68 260 42 254 b -19 246 3 247 -8 242 b -10 267 -24 256 -15 261 b -3 275 -7 269 -4 272 l 14 290 b 100 344 40 318 60 338 b 124 374 122 347 124 351 b 99 519 119 422 110 471 b 58 742 83 593 67 667 b 57 929 53 804 51 867 b 79 976 58 949 65 964 b 139 1035 100 996 119 1015 b 150 1036 142 1036 146 1036 b 158 960 153 1011 154 985 b 338 558 181 814 256 679 b 469 357 383 492 429 426 b 493 326 476 346 492 338 b 522 243 497 297 514 272 b 526 121 533 203 535 163 b 481 36 519 89 507 60 b 425 -18 461 21 446 3 m 215 493 b 221 426 217 469 218 447 b 226 365 222 406 214 385 b 292 360 247 363 268 361 l 296 361 b 299 361 297 361 299 361 b 306 375 306 361 310 369 b 224 492 279 415 254 456 b 215 493 224 493 221 493 "},"b":{"ha":632,"x_min":0,"x_max":0,"o":"m 238 164 b 214 226 233 193 224 210 b 192 269 207 240 199 254 l 147 353 b -21 847 69 500 -12 678 b -4 901 -21 867 -21 886 b 4 936 8 911 8 922 b 22 993 -4 960 3 976 b 83 1054 43 1013 64 1033 b 99 1032 94 1047 96 1039 b 271 781 118 935 197 844 b 364 700 301 754 333 728 b 415 647 383 685 400 667 b 424 533 444 613 446 572 b 385 476 413 513 399 496 b 397 472 389 471 393 471 l 403 474 b 406 475 404 475 404 475 b 576 421 472 488 529 468 b 646 304 610 389 632 349 b 618 160 660 251 653 201 b 336 -18 547 69 458 -18 b 65 172 210 -18 125 71 b 69 207 56 189 57 194 b 143 283 93 232 117 256 b 238 164 175 244 194 200 m 117 736 b 119 736 117 736 117 736 b 117 736 118 739 118 739 m 254 421 b 263 408 257 417 260 413 b 275 406 265 404 271 403 b 326 443 294 417 314 426 b 331 544 351 479 351 510 b 274 606 315 568 294 588 b 133 729 226 647 179 689 b 121 735 129 732 125 733 b 129 693 115 719 124 707 b 254 421 163 599 207 508 m 371 83 b 426 76 390 78 408 76 b 551 124 458 76 539 88 b 557 158 554 135 556 147 b 413 374 561 246 496 344 b 356 383 394 379 375 383 b 285 367 333 383 310 378 b 346 231 306 319 329 278 b 371 83 363 185 369 136 "},"c":{"ha":493,"x_min":0,"x_max":0,"o":"m 411 161 b 400 228 413 183 406 206 b 354 399 386 285 371 342 b 365 443 350 417 350 429 b 431 507 386 463 407 485 l 435 507 b 450 489 446 506 447 496 b 507 256 472 413 493 335 b 513 221 510 244 511 232 b 471 111 517 178 506 140 b 418 60 451 96 435 78 b 376 40 406 46 392 40 b 292 79 346 40 314 61 b -4 632 154 196 38 464 b -19 749 -14 671 -21 710 b 36 876 -17 799 -3 842 b 99 939 58 896 78 918 b 151 963 115 956 133 963 b 197 947 168 963 183 957 b 247 906 214 935 231 919 b 342 996 260 922 324 996 b 347 989 344 994 347 992 b 347 960 347 979 347 969 b 346 840 346 919 344 881 b 369 692 346 790 351 739 b 363 651 376 675 375 663 b 343 633 356 646 350 639 l 304 596 b 285 576 297 589 292 583 b 268 579 279 572 271 572 b 254 617 263 592 258 604 b 115 846 229 686 178 800 b 86 858 107 853 99 864 b 76 828 72 853 76 839 b 307 256 76 650 208 394 b 385 172 329 225 354 196 b 411 161 392 167 399 158 "},"d":{"ha":592,"x_min":0,"x_max":0,"o":"m 249 153 b 236 201 244 171 240 186 b 107 553 200 321 154 436 b 35 740 82 615 58 678 b 26 797 28 758 19 776 b 17 835 31 811 21 822 b -19 947 1 871 -11 908 b -7 988 -22 964 -19 975 b 53 1046 13 1006 32 1026 b 69 1053 57 1050 63 1054 b 74 1040 71 1049 74 1044 b 221 761 96 932 147 840 b 356 629 264 715 310 672 b 483 507 399 589 442 549 b 601 344 532 461 575 407 b 586 210 619 297 614 251 b 578 197 583 206 581 201 b 271 -18 507 117 388 -18 b 125 99 199 -18 156 42 b 65 260 99 150 83 206 b 69 282 63 268 63 276 b 142 356 93 307 118 332 b 158 351 147 360 156 358 b 172 310 164 338 168 324 b 221 186 186 267 200 225 b 249 153 228 175 232 161 m 249 543 b 253 514 243 532 250 524 b 378 126 304 388 340 257 b 394 85 382 113 378 90 b 440 99 410 79 425 92 b 467 113 449 101 457 108 b 517 200 504 129 515 163 b 496 281 518 229 508 256 b 426 376 478 315 453 346 b 249 543 401 404 276 533 "},"e":{"ha":546,"x_min":0,"x_max":0,"o":"m 463 129 b 378 289 431 189 404 239 b 385 381 346 347 344 332 b 415 415 394 392 406 403 b 444 407 428 428 435 426 b 546 215 479 344 513 279 b 556 192 550 208 553 200 b 544 103 569 158 571 128 b 489 40 524 85 507 61 b 438 21 475 26 458 21 b 33 415 286 21 72 289 b 50 514 21 453 25 486 b 63 528 54 518 58 524 l 88 556 b 100 569 92 560 96 565 b 100 618 124 596 117 596 b -7 824 54 683 18 751 b -15 853 -10 833 -12 843 b 4 940 -25 888 -22 917 b 57 1000 24 958 39 981 b 88 1001 65 1008 76 1010 b 136 961 104 989 121 975 b 206 892 160 939 183 914 b 215 913 219 896 214 906 b 221 935 218 919 217 929 b 290 1015 242 963 267 988 b 299 1003 296 1007 299 1006 b 340 822 304 942 319 881 b 349 793 343 813 346 801 b 344 753 356 776 354 764 b 286 686 324 731 306 708 b 251 686 275 675 267 674 b 175 750 225 707 200 729 b 147 765 167 756 163 767 b 322 567 186 692 258 619 b 354 540 333 558 344 550 b 358 524 360 536 364 529 b 294 450 338 499 317 474 b 268 449 288 442 278 444 b 175 492 238 464 206 479 b 131 504 160 499 146 506 b 121 492 122 504 118 500 b 463 129 172 365 332 164 "},"f":{"ha":569,"x_min":0,"x_max":0,"o":"m 75 358 b 156 439 104 388 129 413 b 176 438 163 444 169 444 b 250 344 200 407 225 375 l 279 306 b 294 286 285 299 290 293 b 294 310 304 296 299 303 b 261 386 283 335 272 361 l 192 539 b 158 615 181 564 169 590 b 119 650 150 633 139 644 b 94 658 111 653 103 656 l 69 669 b 67 685 63 672 61 679 b 90 710 74 694 82 703 b 97 754 106 724 104 736 b 43 881 78 796 60 838 b 1 924 35 903 24 917 b -21 940 -7 926 -14 931 b 58 1019 3 968 31 994 b 76 1024 63 1025 69 1026 b 133 1004 94 1015 115 1017 b 453 944 193 965 385 944 b 558 951 488 944 522 947 b 565 953 561 951 564 951 l 581 953 b 588 954 583 954 585 954 b 582 932 594 942 586 938 b 536 886 567 917 550 903 b 467 856 518 864 494 857 b 353 851 429 853 390 851 b 211 863 306 851 258 854 b 186 858 204 864 196 867 b 235 747 200 821 218 783 b 261 728 240 735 250 731 b 528 688 349 701 436 681 b 551 685 536 688 544 690 b 544 668 556 676 549 672 b 500 622 529 653 513 639 b 431 592 481 600 457 592 b 346 594 401 590 374 590 b 307 594 333 597 321 600 b 325 544 308 576 318 561 b 436 286 364 458 403 374 b 467 197 447 257 457 228 b 474 154 471 183 472 169 b 454 97 478 132 472 113 b 438 82 449 93 443 88 l 407 50 b 365 21 397 40 378 21 b 304 69 349 21 314 57 b 231 156 279 97 254 126 b 97 328 186 213 142 269 b 75 358 90 336 83 346 "},"g":{"ha":583,"x_min":0,"x_max":0,"o":"m 328 842 b 329 901 328 865 329 883 b 350 949 329 921 335 936 b 411 1010 372 969 392 990 b 422 994 424 1007 422 1000 b 460 732 418 904 435 817 b 463 724 461 729 461 726 l 467 707 b 469 699 468 704 469 701 b 458 663 472 685 469 674 b 392 597 436 642 415 619 b 363 599 382 586 375 588 b 326 639 350 611 338 625 b 192 783 282 686 238 736 b 82 863 172 804 113 860 b 79 829 74 851 76 839 b 168 558 94 733 128 646 b 197 536 174 544 185 540 b 397 515 263 517 329 508 b 601 546 465 521 533 531 b 594 526 607 535 599 531 b 542 474 576 508 558 492 b 500 449 531 461 517 453 b 492 418 478 442 478 439 b 543 333 508 389 526 361 b 599 182 569 286 593 236 b 575 115 603 157 594 133 b 510 49 553 94 531 72 b 460 26 494 32 478 26 b 428 32 450 26 439 28 b 114 386 297 74 174 275 b 75 454 101 408 92 432 b 53 513 63 469 61 493 b -19 772 19 597 -10 682 b 21 879 -21 814 -11 850 b 83 942 43 899 64 921 b 138 967 100 958 118 967 b 174 958 149 967 161 964 b 221 932 190 953 207 943 b 285 878 243 915 263 896 b 328 842 296 867 306 853 m 492 142 b 461 221 486 175 472 197 b 372 363 435 269 406 317 b 258 419 321 436 347 419 b 250 415 256 419 253 417 b 492 142 275 333 410 179 "},"h":{"ha":647,"x_min":0,"x_max":0,"o":"m 72 1025 b 88 976 85 1006 85 990 b 204 589 119 844 161 717 b 239 561 210 572 218 561 b 374 553 285 560 329 550 b 376 582 383 564 378 574 b 318 882 351 681 331 781 b 358 999 311 949 310 949 b 386 1026 368 1007 376 1017 b 403 1035 390 1031 396 1036 b 410 1018 411 1033 408 1025 b 413 994 411 1010 411 1001 l 418 944 b 493 589 432 825 461 706 b 500 565 494 581 497 574 b 519 554 504 557 511 554 b 606 561 547 556 575 564 b 586 535 601 550 593 542 l 575 525 b 571 521 574 524 572 522 b 547 415 519 467 524 486 b 663 117 581 314 621 215 b 653 65 671 96 671 81 b 586 0 629 44 608 22 b 564 35 571 8 569 24 b 431 394 515 153 468 272 b 428 403 429 397 429 400 l 422 419 b 419 428 421 422 421 425 b 382 456 411 456 410 456 b 268 457 344 456 307 457 b 257 442 260 458 254 450 b 268 408 260 431 264 419 b 288 357 275 392 281 375 l 325 257 b 344 206 332 239 339 222 b 324 106 369 142 374 157 b 274 60 307 90 293 72 b -21 350 272 61 -18 347 b 56 426 6 375 31 400 b 82 428 64 433 72 435 b 119 396 94 417 106 406 b 149 376 128 389 133 376 b 139 414 150 390 143 401 b 13 813 93 546 49 678 b 7 836 11 821 8 829 l -6 885 b -11 908 -7 893 -10 900 b 4 957 -15 926 -12 943 b 72 1025 26 978 49 1000 "},"i":{"ha":375,"x_min":0,"x_max":0,"o":"m 65 39 b 149 121 97 71 122 96 b 171 136 154 128 169 124 b 164 164 171 144 167 156 b 17 669 106 329 54 497 b -15 843 4 726 -4 785 b -17 854 -17 847 -17 850 l -18 876 b -19 888 -18 881 -19 883 b -4 926 -21 903 -15 917 b 25 954 6 936 15 946 b 75 1001 42 969 54 989 b 108 943 97 989 97 963 b 243 781 143 879 182 821 b 222 751 242 765 231 758 b 167 696 204 732 186 714 b 144 693 160 689 153 689 b 131 682 133 697 128 693 b 140 635 133 667 136 650 b 285 181 182 481 231 329 b 342 144 301 135 304 143 b 393 143 360 144 378 149 b 388 125 397 133 392 129 b 335 72 369 107 351 90 b 292 51 324 60 310 51 b 192 44 258 53 225 42 b 89 35 157 46 122 38 b 65 39 83 35 79 36 "},"j":{"ha":492,"x_min":0,"x_max":0,"o":"m -21 875 b 13 914 -12 893 1 903 b 144 969 67 969 67 968 b 331 954 207 969 268 961 b 350 946 336 953 342 949 b 272 863 326 914 297 889 b 258 858 268 860 263 860 b 236 822 229 850 229 850 b 496 158 303 594 388 369 l 508 132 b 503 100 514 119 511 110 b 439 38 481 81 461 58 b 422 28 432 31 426 28 b 401 39 417 28 411 31 b 225 161 347 88 294 135 b 139 178 197 171 168 179 b 90 157 119 176 104 171 b 33 100 72 138 53 119 b 31 113 32 106 29 110 b 72 336 71 182 79 257 b 63 404 69 358 67 381 b 68 432 61 414 60 424 b 99 464 78 443 88 454 b 151 514 114 479 129 496 b 153 247 176 424 169 338 b 239 271 182 264 211 271 b 286 265 254 271 271 269 b 290 265 288 265 289 265 b 301 281 301 264 306 269 b 288 317 297 292 292 304 b 115 850 217 490 154 667 b 85 875 110 869 107 874 b 31 875 67 876 49 875 b -21 875 15 875 0 875 "},"k":{"ha":661,"x_min":0,"x_max":0,"o":"m -15 313 b 67 394 10 340 36 368 b 172 292 104 360 142 331 b 172 333 183 306 176 319 b 94 597 146 421 119 510 b 26 854 69 683 44 768 l 22 869 b 46 942 13 899 19 922 b 101 996 65 958 83 978 b 118 953 115 982 115 967 b 207 625 143 843 174 735 b 218 614 208 621 208 611 b 225 626 221 615 224 622 b 239 828 233 693 239 760 b 238 915 239 857 239 886 b 257 964 236 936 242 950 b 313 1018 276 982 294 1000 b 325 1022 315 1021 322 1024 b 332 1011 329 1021 332 1015 b 331 824 336 949 336 886 b 288 547 324 731 310 638 b 288 532 286 542 288 538 b 306 544 299 531 301 539 b 351 615 321 568 338 590 b 468 747 382 667 426 706 b 481 751 471 750 478 753 b 488 739 485 750 488 743 b 485 681 488 719 486 700 b 506 436 481 597 488 517 b 682 117 535 314 588 204 b 657 82 679 100 665 92 b 608 33 640 65 624 50 b 582 32 599 25 590 25 b 540 75 568 46 553 60 b 392 567 421 221 392 383 l 390 585 b 390 593 390 588 390 590 b 383 597 390 594 386 597 b 379 596 382 599 379 597 b 361 572 374 589 368 581 b 275 453 333 532 308 489 b 268 417 264 442 264 431 b 311 276 282 369 297 322 b 336 186 319 246 328 215 b 319 132 342 165 338 147 b 261 74 299 114 281 93 b 240 61 251 65 246 61 b 218 72 233 61 228 65 b 181 104 206 82 193 93 b 133 149 165 119 150 135 l 40 240 b -7 285 25 254 8 269 b -10 286 -8 286 -8 286 l -14 290 b -15 292 -14 290 -15 292 b -15 313 -22 299 -22 307 m 174 290 b 172 292 174 290 174 292 b 174 290 172 292 174 290 m 175 292 b 175 292 176 290 174 288 "},"l":{"ha":568,"x_min":0,"x_max":0,"o":"m 503 43 b 490 61 496 53 492 57 b 411 115 460 118 467 104 b 254 122 360 125 307 126 b 228 113 244 121 235 121 b 204 100 219 106 213 100 b 186 108 199 100 193 101 b 158 107 182 113 167 110 b 88 88 133 101 110 94 b 50 78 75 83 63 78 b 53 93 42 85 49 89 b 99 139 68 108 83 124 b 150 175 113 154 128 168 b 163 201 165 179 167 185 b 119 363 149 256 135 310 b 3 779 81 501 42 640 b -19 871 -6 810 -12 840 b -14 899 -22 881 -21 890 b 67 978 13 925 38 953 b 78 946 82 969 75 956 b 108 826 88 907 97 867 b 258 286 160 647 211 468 b 278 225 264 265 271 246 b 296 213 281 218 286 211 b 407 222 332 215 369 218 b 396 265 408 239 400 253 b 357 428 378 318 364 372 b 379 494 353 454 357 476 b 436 549 399 511 417 531 b 449 542 440 553 449 550 b 568 181 460 411 510 294 b 554 94 596 126 600 142 b 503 43 539 78 522 63 "},"m":{"ha":713,"x_min":0,"x_max":0,"o":"m 303 615 b 315 749 308 668 311 708 b 332 900 321 799 328 849 b 356 947 335 919 342 935 b 361 951 358 949 360 950 l 372 963 b 378 967 374 964 376 965 b 432 1013 396 982 406 1007 b 451 947 447 993 447 969 b 706 193 504 685 592 435 b 685 75 743 113 746 139 b 647 43 664 54 654 43 b 619 86 639 43 633 57 b 414 622 538 260 465 438 b 406 640 413 629 408 635 b 401 640 406 640 403 640 b 397 639 400 640 397 640 b 397 633 397 638 397 636 l 396 625 b 396 619 396 622 396 621 b 396 492 396 576 394 533 b 374 439 396 469 389 454 b 314 381 353 421 333 400 b 283 385 300 368 293 368 b 221 496 261 422 242 460 b 199 517 215 504 214 515 b 204 478 200 504 203 490 l 215 399 b 226 319 219 372 224 346 l 239 240 b 247 165 242 215 244 190 b 224 104 250 140 243 121 b 163 46 203 86 183 65 b 143 50 157 40 147 42 b 126 81 136 60 132 69 b -21 382 79 182 33 283 b 64 465 -12 394 49 465 b 96 446 72 465 81 458 b 96 483 103 458 97 471 b 51 860 82 610 67 735 b 71 917 47 883 51 901 b 135 976 93 935 110 961 b 168 897 158 956 158 924 b 303 615 207 800 250 706 "},"n":{"ha":631,"x_min":0,"x_max":0,"o":"m 103 417 b 60 714 89 515 74 614 b 54 758 58 729 56 743 l 43 846 b 38 889 42 860 40 875 b 61 954 33 915 39 938 b 103 996 75 967 89 982 b 126 1013 114 1007 121 1013 b 144 986 132 1013 138 1004 b 361 544 203 832 275 685 b 389 513 368 533 371 521 b 379 575 386 535 382 556 b 354 899 361 682 350 790 b 393 968 356 929 369 950 l 418 994 b 432 1007 424 999 428 1003 b 444 1011 435 1010 440 1011 b 450 1000 451 1011 450 1004 b 450 897 450 965 449 931 b 642 143 461 632 524 381 b 649 131 643 139 646 135 b 643 104 653 121 651 111 b 574 35 619 81 596 57 b 556 35 568 29 561 29 b 538 58 549 43 543 50 b 207 554 419 218 304 381 b 188 572 204 561 201 569 b 211 418 194 521 203 469 l 232 285 b 243 218 236 263 240 240 b 244 208 244 215 244 211 b 211 110 253 151 253 151 b 164 65 196 94 181 79 b 147 67 158 60 151 60 b 131 90 142 74 135 82 l -15 342 b -12 372 -22 353 -22 363 b 33 418 3 388 18 403 b 63 442 43 426 50 440 b 90 418 79 444 81 425 b 103 417 93 415 99 417 "},"o":{"ha":492,"x_min":0,"x_max":0,"o":"m -21 613 b -12 696 -19 640 -17 668 b 19 772 -8 725 0 750 b 32 817 32 785 36 799 b 60 911 25 853 33 885 b 86 940 69 921 78 931 l 111 972 b 143 989 119 983 131 989 b 164 985 150 989 157 988 b 289 876 207 971 261 910 b 499 440 392 747 464 603 b 506 264 511 382 518 324 b 463 171 499 229 486 199 b 400 96 442 146 421 121 b 321 56 375 68 350 56 b 203 106 281 56 233 81 b -10 510 81 199 11 361 b -21 613 -14 543 -17 578 m 72 654 b 72 651 72 653 72 651 l 71 643 b 71 640 71 643 71 642 b 110 468 78 582 89 524 b 383 158 150 353 254 185 b 422 186 410 153 419 160 b 425 221 424 199 424 210 b 408 363 426 269 419 317 b 163 822 367 535 282 692 b 139 833 157 828 151 835 b 161 764 143 810 153 786 b 322 426 206 649 261 533 b 322 408 325 421 326 414 b 253 325 300 381 276 353 b 240 325 250 321 243 322 b 222 354 233 335 226 344 b 94 615 176 440 133 526 b 72 654 89 629 88 644 "},"p":{"ha":401,"x_min":0,"x_max":0,"o":"m 169 267 b 157 313 171 283 161 297 b 31 696 110 439 65 565 b 0 844 17 744 6 794 b 11 894 -3 864 -3 881 b 14 922 19 903 18 913 b -18 1010 1 950 -11 979 b -12 1042 -21 1022 -21 1033 b 40 1094 6 1060 22 1076 b 67 1115 49 1101 54 1113 b 76 1096 76 1113 75 1103 b 288 743 117 964 203 850 b 368 643 315 710 342 676 b 403 590 381 626 393 608 b 401 458 428 546 426 501 b 361 403 389 439 376 419 b 303 336 343 379 324 357 b 296 286 289 319 288 306 b 356 136 317 236 336 186 l 385 63 b 379 32 390 51 389 40 b 310 -37 356 8 333 -15 b 283 -39 301 -46 292 -46 b 263 -18 275 -32 268 -25 b 22 215 185 63 104 140 b 4 232 15 221 10 226 b 3 253 -3 239 -4 246 b 72 324 25 276 49 300 b 97 324 81 332 89 332 b 144 281 113 310 129 294 b 169 267 151 275 157 265 m 156 693 b 156 676 156 686 154 681 b 269 357 190 568 228 461 b 281 343 271 351 272 343 b 296 356 289 344 292 350 b 303 511 332 406 338 458 b 263 567 290 531 276 549 b 172 678 233 604 203 642 b 156 693 168 683 163 688 "},"q":{"ha":682,"x_min":0,"x_max":0,"o":"m 703 121 b 625 40 681 90 651 65 b 592 38 615 31 603 35 b 469 47 551 47 510 46 b 440 43 460 47 447 49 b 413 29 431 38 421 29 b 392 43 406 29 399 33 b 364 44 389 47 374 46 b 17 0 247 33 132 17 b 8 3 14 0 11 1 b 32 33 11 17 24 24 b 46 46 36 38 40 42 l 71 72 b 85 85 76 76 81 81 b 117 96 94 93 106 94 b 313 125 182 106 247 115 b 319 126 315 125 318 125 l 335 126 b 342 128 338 128 339 128 b 353 146 350 129 356 135 b 353 147 353 146 353 147 l 351 149 b 351 150 351 150 351 150 b 244 221 315 235 340 224 b 25 190 169 217 97 206 b -18 232 -17 181 -26 189 b 17 407 -8 290 4 349 b 82 794 43 535 63 665 b 94 878 86 822 90 850 b 121 929 97 899 106 915 b 183 992 143 949 163 971 b 203 986 190 999 197 996 b 225 938 213 971 210 951 b 315 1024 254 967 285 994 b 321 1014 319 1025 321 1019 b 354 846 321 956 336 900 b 632 356 411 665 515 503 b 624 267 671 303 661 304 b 589 231 613 254 600 244 b 518 208 571 208 547 203 b 464 211 501 213 483 215 b 486 151 465 188 476 169 b 503 143 489 144 496 143 b 669 135 560 143 614 142 b 703 121 681 133 693 132 m 158 717 b 147 689 147 708 149 697 b 76 328 126 568 103 447 b 74 299 75 318 74 308 b 89 282 74 289 79 282 b 118 285 99 282 108 283 b 258 310 165 293 213 301 b 285 318 268 311 278 308 b 158 717 243 450 201 583 m 328 582 b 328 582 331 585 326 583 m 329 582 b 329 581 329 582 329 581 b 329 582 329 581 329 582 m 488 318 b 474 349 490 332 479 339 b 451 383 467 360 458 371 l 407 450 b 331 579 379 493 354 536 b 336 542 329 567 332 554 b 404 347 360 478 383 413 b 450 315 411 322 425 313 b 488 318 463 317 476 311 "},"r":{"ha":679,"x_min":0,"x_max":0,"o":"m 396 314 b 511 261 453 310 469 303 b 599 167 542 231 569 199 b 689 69 629 133 658 101 b 692 40 701 56 701 51 b 625 -26 669 18 647 -4 b 600 -28 617 -35 608 -36 b 568 4 589 -17 579 -7 b 540 36 558 15 550 25 l 485 99 b 457 129 475 108 467 119 b 331 218 426 164 379 215 b 317 203 322 219 314 210 b 321 192 318 199 319 196 l 331 168 b 335 157 332 165 333 161 b 372 65 347 126 360 96 b 361 17 381 46 376 32 b 306 -39 342 0 324 -19 b 283 -53 296 -49 290 -53 b 261 -39 278 -53 272 -49 b 256 -35 260 -37 258 -36 l 247 -26 b 242 -22 244 -25 243 -24 b 4 185 167 51 86 119 b -11 197 -1 189 -7 193 b -12 222 -22 207 -22 213 b 64 300 13 247 38 274 b 168 222 103 278 132 246 b 160 267 174 240 165 253 b 36 640 114 389 69 514 b 0 783 22 688 13 736 b 18 844 -6 808 -6 829 b 25 879 29 854 31 865 b -4 963 14 907 4 935 b 14 1033 -14 990 -10 1014 b 71 1088 35 1050 53 1069 b 82 1090 74 1090 76 1089 b 96 1029 88 1071 90 1050 b 299 707 129 917 222 792 b 408 593 335 668 372 631 b 457 538 425 575 442 557 b 463 403 496 490 497 454 b 410 338 446 381 428 360 b 396 314 404 331 393 326 m 300 244 b 378 333 335 272 357 301 b 372 433 400 368 397 401 b 325 490 358 453 342 472 b 167 658 271 544 217 599 b 149 667 164 663 160 668 b 300 244 190 525 240 388 "},"s":{"ha":569,"x_min":0,"x_max":0,"o":"m 100 469 b 108 469 101 471 104 469 b 143 338 99 419 113 376 b 454 114 225 232 328 156 b 489 111 465 110 476 104 b 376 278 483 149 401 249 b 196 486 317 347 257 417 b -18 831 117 579 13 711 b -7 882 -24 849 -19 867 b 10 901 -1 889 4 896 l 42 943 b 58 963 47 949 53 956 b 81 975 65 971 72 975 b 97 971 86 975 92 974 b 140 946 113 964 126 956 b 236 876 172 924 204 900 b 268 856 246 869 254 858 b 275 876 279 860 274 869 b 274 921 275 890 274 906 b 289 965 272 938 278 953 b 347 1038 310 989 329 1014 b 356 1018 361 1035 356 1025 b 389 814 357 949 371 882 b 357 669 413 715 415 746 b 325 631 347 657 336 644 b 285 658 307 635 296 649 b 167 763 246 693 206 729 b 144 772 161 768 156 776 b 315 546 147 742 290 575 b 454 386 363 493 408 440 b 586 179 499 335 569 246 b 576 119 593 157 590 138 b 503 26 553 88 528 57 b 431 0 483 6 458 -1 b 360 15 406 0 382 6 b 67 226 242 58 146 129 b 25 308 47 250 33 278 b 36 389 17 338 19 364 b 100 469 56 417 79 443 m 108 471 b 110 469 108 471 110 469 b 108 469 110 469 108 469 l 108 471 "},"t":{"ha":689,"x_min":0,"x_max":0,"o":"m 336 475 b 257 771 306 572 278 671 b 256 863 250 800 243 831 b 81 938 196 888 142 919 b 81 881 71 915 76 899 b 121 760 89 839 103 799 b 111 713 129 740 126 726 b 51 654 90 693 71 674 b 31 658 43 647 35 649 b -19 832 6 714 -15 771 b 17 931 -22 869 -12 903 b 86 1000 40 953 63 976 b 156 1031 107 1021 129 1031 b 190 1025 167 1031 178 1029 b 271 992 218 1015 244 1004 b 485 903 342 958 413 928 b 513 896 494 900 504 897 b 514 933 524 908 518 922 b 533 994 507 960 515 978 b 596 1056 556 1014 575 1036 b 607 1033 610 1051 606 1040 b 656 874 617 979 635 926 b 706 751 671 833 689 792 b 699 717 713 738 710 728 b 626 646 675 693 651 668 b 606 675 613 654 610 665 b 576 743 596 699 586 721 b 551 765 571 756 564 763 b 381 813 493 775 438 794 b 365 799 368 817 363 813 b 594 118 421 567 503 338 b 608 86 600 107 603 96 b 600 51 615 72 611 61 b 572 24 590 42 582 32 b 525 -18 557 8 544 -17 b 481 25 504 -18 494 10 b 289 201 422 89 357 146 b 286 253 258 228 260 226 b 339 306 304 271 321 288 b 368 306 350 317 354 317 b 374 301 369 304 371 303 l 382 294 b 388 290 385 293 386 292 b 386 326 396 294 392 308 "},"u":{"ha":642,"x_min":0,"x_max":0,"o":"m -21 592 b 4 831 -11 674 -3 751 b 32 886 7 853 15 871 b 92 944 51 906 71 925 b 119 938 104 957 113 956 b 146 864 129 913 138 889 b 274 460 188 728 225 593 b 349 278 294 397 318 336 b 365 249 353 268 360 258 b 369 246 367 247 368 246 b 376 251 372 247 376 250 b 378 286 378 263 378 275 b 324 819 369 465 350 643 b 346 885 321 847 325 867 b 404 942 367 903 386 924 b 418 925 414 938 417 932 b 657 201 471 676 558 435 b 650 158 664 185 665 172 b 581 90 626 136 603 113 b 560 117 565 96 564 107 b 492 286 536 174 514 231 b 478 311 489 296 488 306 b 471 289 467 306 472 296 b 464 226 468 268 465 247 b 431 163 460 200 449 179 b 364 96 407 140 386 118 b 340 85 356 89 347 85 b 315 96 332 85 324 89 b 222 256 279 125 240 214 b 96 624 172 376 135 500 l 83 667 b 68 669 81 675 72 675 b 22 625 51 656 38 640 b -21 592 10 614 1 600 "},"v":{"ha":561,"x_min":0,"x_max":0,"o":"m 354 419 b 354 547 354 467 354 507 b 354 872 350 656 351 764 b 372 921 356 892 357 908 b 447 992 399 944 419 972 b 493 901 475 968 479 932 b 576 718 521 842 547 779 b 569 675 585 700 583 688 b 499 604 546 651 524 629 b 447 683 474 626 475 660 b 449 601 447 651 447 626 b 472 168 454 457 463 313 b 449 103 475 143 469 121 b 382 38 425 83 404 60 b 354 86 363 51 360 69 b -17 868 253 350 124 622 b -14 890 -21 876 -21 885 b 4 908 -8 896 -3 903 l 38 943 b 56 961 44 950 50 956 b 79 956 65 969 72 967 b 99 921 86 944 93 933 b 328 464 181 771 257 619 b 354 419 333 450 338 436 "},"w":{"ha":899,"x_min":0,"x_max":0,"o":"m -17 615 b -18 636 -24 624 -19 631 b 54 876 11 715 33 796 b 99 956 61 908 72 936 b 161 1007 121 972 132 1000 b 178 931 176 983 174 956 b 321 440 210 763 260 600 b 339 417 324 431 325 421 b 339 464 339 433 340 449 b 332 667 338 532 336 599 b 361 735 331 694 339 717 b 417 790 381 751 399 772 b 433 786 424 794 431 793 b 450 746 440 772 444 758 b 696 297 513 586 594 436 b 729 261 706 285 713 269 b 711 317 731 282 718 299 b 514 924 629 514 550 713 b 521 960 511 938 511 950 b 592 1029 546 985 569 1008 b 606 1022 603 1031 604 1026 b 788 450 640 822 711 636 b 886 214 819 372 854 293 b 914 135 896 189 904 161 b 899 74 922 111 919 92 b 883 58 893 69 889 64 l 854 29 b 839 14 849 24 844 19 b 813 -1 828 4 821 -1 b 788 10 806 -1 799 3 b 475 404 676 76 536 293 b 450 444 467 418 458 432 b 440 431 439 444 439 436 b 453 264 444 375 449 319 b 454 240 454 257 454 249 l 458 194 b 460 171 458 186 460 179 b 443 126 461 153 457 139 b 367 51 417 101 393 75 b 329 107 344 67 338 88 b 111 718 236 300 160 508 b 99 764 108 732 103 744 b 50 681 75 736 75 701 b -17 615 26 660 6 638 "},"x":{"ha":640,"x_min":0,"x_max":0,"o":"m 71 428 b 150 510 96 457 122 483 b 171 506 157 515 165 514 b 231 393 190 468 210 429 b 254 365 236 383 238 369 b 246 450 257 394 261 422 b 208 522 233 474 221 499 l 135 667 b 97 739 122 690 110 715 b 86 757 94 744 90 750 b -14 661 51 725 24 689 b -21 663 -14 660 -17 663 b -10 853 -7 725 -14 789 b 18 918 -8 878 -1 900 b 35 933 24 924 29 928 l 65 964 b 82 979 71 969 76 975 b 111 976 92 989 103 988 b 165 881 132 946 149 914 l 213 788 b 236 742 221 772 228 757 b 256 710 242 731 244 717 b 264 725 265 713 264 719 b 268 819 265 757 267 788 b 303 932 268 860 268 904 b 351 981 319 947 335 964 b 374 990 357 986 363 993 b 356 689 356 890 358 789 b 353 546 354 640 354 593 b 364 499 353 529 356 514 b 508 288 407 425 453 353 b 524 275 513 282 515 275 b 521 301 532 285 524 294 b 461 447 501 351 483 400 b 471 494 453 468 456 481 b 536 560 494 515 515 539 b 557 536 551 556 553 546 b 660 239 594 451 647 331 b 639 176 664 215 658 194 b 572 111 617 156 596 132 b 542 96 563 101 553 96 b 371 250 490 96 400 211 b 361 261 368 254 365 258 b 353 264 360 264 356 264 b 347 257 350 263 347 258 b 347 153 347 222 346 188 b 329 110 347 135 342 122 b 257 39 306 88 283 63 b 214 140 236 74 229 108 b 121 331 185 204 154 268 b 71 428 104 363 88 394 "},"y":{"ha":626,"x_min":0,"x_max":0,"o":"m 138 22 b 136 253 157 108 143 181 b 153 301 135 274 138 288 b 224 367 176 321 194 346 b 238 272 233 333 235 303 b 243 178 240 242 239 211 b 460 251 353 253 317 239 b 460 260 460 254 460 258 b 294 649 400 388 342 517 b 275 625 281 643 279 633 b 263 592 271 614 267 603 l 236 525 b 224 492 232 514 228 503 b 181 426 215 467 201 444 b 121 368 161 408 142 388 b 100 372 115 363 104 365 l 90 394 b -19 818 44 533 1 674 b -4 863 -22 835 -18 850 b 51 918 15 881 33 900 b 68 926 57 922 63 926 b 76 911 76 926 76 918 b 164 553 89 788 126 671 b 172 536 165 547 169 542 b 189 560 183 542 186 551 b 251 715 210 613 229 664 b 254 778 260 738 261 757 b 233 843 246 800 239 821 b 249 906 226 867 228 888 b 310 963 271 924 289 944 b 325 958 314 968 322 965 b 558 343 376 743 464 542 b 578 304 565 331 572 317 l 619 225 b 639 185 625 211 632 199 b 633 142 650 161 650 160 b 571 79 613 121 590 100 b 540 76 561 69 551 69 b 321 153 476 121 400 153 b 271 149 304 153 288 151 b 233 122 256 144 243 139 b 138 22 211 85 176 60 "},"z":{"ha":700,"x_min":0,"x_max":0,"o":"m 633 126 b 600 157 615 132 608 146 b 451 231 568 203 513 231 b 265 143 385 231 307 194 b 189 68 243 115 214 93 b 179 67 186 65 182 65 b 175 74 178 68 175 72 b 394 853 201 321 246 649 b 396 863 396 856 396 858 b 354 858 382 868 368 861 b 185 829 299 847 242 835 b 169 826 179 829 175 828 b 160 807 157 824 154 818 b 199 743 174 785 186 765 b 192 696 211 718 211 715 b 119 624 169 672 146 650 b -11 813 86 694 39 753 b -10 846 -24 828 -24 832 b 1 857 -6 850 -3 854 b 65 917 22 878 40 903 b 92 922 74 921 82 922 b 149 917 110 922 131 917 b 401 944 233 915 318 928 b 424 950 408 946 417 947 l 467 958 b 489 964 475 961 482 963 b 507 964 494 965 501 968 b 506 961 507 964 507 963 l 506 957 b 275 215 351 778 304 440 b 276 188 274 207 271 197 b 307 208 292 186 299 200 b 475 317 363 264 403 289 b 492 354 503 326 503 326 b 456 440 479 383 467 413 b 439 482 450 454 446 469 b 449 521 432 499 436 510 b 524 596 474 544 496 571 b 613 386 551 525 581 456 b 711 233 638 331 668 278 b 710 200 724 219 724 214 b 633 126 685 175 661 147 "},"ı":{"ha":375,"x_min":0,"x_max":0,"o":"m 65 39 b 149 121 97 71 122 96 b 171 136 154 128 169 124 b 164 164 171 144 167 156 b 17 669 106 329 54 497 b -15 843 4 726 -4 785 b -17 854 -17 847 -17 850 l -18 876 b -19 888 -18 881 -19 883 b -4 926 -21 903 -15 917 b 25 954 6 936 15 946 b 75 1001 42 969 54 989 b 108 943 97 989 97 963 b 243 781 143 879 182 821 b 222 751 242 765 231 758 b 167 696 204 732 186 714 b 144 693 160 689 153 689 b 131 682 133 697 128 693 b 140 635 133 667 136 650 b 285 181 182 481 231 329 b 342 144 301 135 304 143 b 393 143 360 144 378 149 b 388 125 397 133 392 129 b 335 72 369 107 351 90 b 292 51 324 60 310 51 b 192 44 258 53 225 42 b 89 35 157 46 122 38 b 65 39 83 35 79 36 "},"ﬁ":{"ha":944,"x_min":0,"x_max":0,"o":"m 75 358 b 156 439 104 388 129 413 b 176 438 163 444 169 444 b 250 344 200 407 225 375 l 279 306 b 294 286 285 299 290 293 b 294 310 304 296 299 303 b 261 386 283 335 272 361 l 192 539 b 158 615 181 564 169 590 b 119 650 150 633 139 644 b 94 658 111 653 103 656 l 69 669 b 67 685 63 672 61 679 b 90 710 74 694 82 703 b 97 754 106 724 104 736 b 43 881 78 796 60 838 b 1 924 35 903 24 917 b -21 940 -7 926 -14 931 b 58 1019 3 968 31 994 b 76 1024 63 1025 69 1026 b 133 1004 94 1015 115 1017 b 453 944 193 965 385 944 b 558 951 488 944 522 947 b 565 953 561 951 564 951 l 581 953 b 588 954 583 954 585 954 b 589 950 589 953 589 951 b 594 954 592 951 593 953 b 644 1001 611 969 624 989 b 678 943 667 989 667 963 b 813 781 713 879 751 821 b 792 751 811 765 800 758 b 736 696 774 732 756 714 b 714 693 729 689 722 689 b 700 682 703 697 697 693 b 710 635 703 667 706 650 b 854 181 751 481 800 329 b 911 144 871 135 874 143 b 963 143 929 144 947 149 b 957 125 967 133 961 129 b 904 72 939 107 921 90 b 861 51 893 60 879 51 b 761 44 828 53 794 42 b 658 35 726 46 692 38 b 635 39 653 35 649 36 b 718 121 667 71 692 96 b 740 136 724 128 739 124 b 733 164 740 144 736 156 b 586 669 675 329 624 497 b 554 843 574 726 565 785 b 553 854 554 847 553 850 l 551 876 b 550 888 551 881 551 883 b 551 901 550 893 550 897 b 536 886 546 897 540 892 b 467 856 518 864 494 857 b 353 851 429 853 390 851 b 211 863 306 851 258 854 b 186 858 204 864 196 867 b 235 747 200 821 218 783 b 261 728 240 735 250 731 b 528 688 349 701 436 681 b 551 685 536 688 544 690 b 544 668 556 676 549 672 b 500 622 529 653 513 639 b 431 592 481 600 457 592 b 346 594 401 590 374 590 b 307 594 333 597 321 600 b 325 544 308 576 318 561 b 436 286 364 458 403 374 b 467 197 447 257 457 228 b 474 154 471 183 472 169 b 454 97 478 132 472 113 b 438 82 449 93 443 88 l 407 50 b 365 21 397 40 378 21 b 304 69 349 21 314 57 b 231 156 279 97 254 126 b 97 328 186 213 142 269 b 75 358 90 336 83 346 "},"ﬂ":{"ha":1138,"x_min":0,"x_max":0,"o":"m 75 358 b 156 439 104 388 129 413 b 176 438 163 444 169 444 b 250 344 200 407 225 375 l 279 306 b 294 286 285 299 290 293 b 294 310 304 296 299 303 b 261 386 283 335 272 361 l 192 539 b 158 615 181 564 169 590 b 119 650 150 633 139 644 b 94 658 111 653 103 656 l 69 669 b 67 685 63 672 61 679 b 90 710 74 694 82 703 b 97 754 106 724 104 736 b 43 881 78 796 60 838 b 1 924 35 903 24 917 b -21 940 -7 926 -14 931 b 58 1019 3 968 31 994 b 76 1024 63 1025 69 1026 b 133 1004 94 1015 115 1017 b 453 944 193 965 385 944 b 558 951 488 944 522 947 b 565 953 561 951 564 951 l 581 953 b 588 954 583 954 585 954 b 582 932 594 942 586 938 b 536 886 567 917 550 903 b 467 856 518 864 494 857 b 353 851 429 853 390 851 b 211 863 306 851 258 854 b 186 858 204 864 196 867 b 235 747 200 821 218 783 b 261 728 240 735 250 731 b 528 688 349 701 436 681 b 551 685 536 688 544 690 b 544 668 556 676 549 672 b 500 622 529 653 513 639 b 431 592 481 600 457 592 b 346 594 401 590 374 590 b 307 594 333 597 321 600 b 325 544 308 576 318 561 b 436 286 364 458 403 374 b 467 197 447 257 457 228 b 474 154 471 183 472 169 b 454 97 478 132 472 113 b 438 82 449 93 443 88 l 407 50 b 365 21 397 40 378 21 b 304 69 349 21 314 57 b 231 156 279 97 254 126 b 97 328 186 213 142 269 b 75 358 90 336 83 346 m 1072 43 b 1060 61 1065 53 1061 57 b 981 115 1029 118 1036 104 b 824 122 929 125 876 126 b 797 113 814 121 804 121 b 774 100 789 106 782 100 b 756 108 768 100 763 101 b 728 107 751 113 736 110 b 657 88 703 101 679 94 b 619 78 644 83 632 78 b 622 93 611 85 618 89 b 668 139 638 108 653 124 b 719 175 682 154 697 168 b 732 201 735 179 736 185 b 689 363 718 256 704 310 b 572 779 650 501 611 640 b 550 871 564 810 557 840 b 556 899 547 881 549 890 b 636 978 582 925 607 953 b 647 946 651 969 644 956 b 678 826 657 907 667 867 b 828 286 729 647 781 468 b 847 225 833 265 840 246 b 865 213 850 218 856 211 b 976 222 901 215 939 218 b 965 265 978 239 969 253 b 926 428 947 318 933 372 b 949 494 922 454 926 476 b 1006 549 968 511 986 531 b 1018 542 1010 553 1018 550 b 1138 181 1029 411 1079 294 b 1124 94 1165 126 1169 142 b 1072 43 1108 78 1092 63 "},"À":{"ha":511,"x_min":0,"x_max":0,"o":"m 149 1394 b 215 1219 169 1331 190 1275 b 208 1164 226 1197 225 1181 b 156 1104 189 1144 172 1124 b 139 1118 143 1104 142 1113 b 76 1275 117 1169 96 1222 b 86 1326 69 1296 72 1313 b 149 1394 106 1347 122 1371 m 425 -18 b 428 18 418 0 425 8 b 419 176 444 72 440 125 b 414 190 418 182 415 186 b 336 251 392 243 392 243 b 224 264 299 257 261 260 b 199 246 210 265 203 260 b 167 158 189 217 178 188 b 101 61 154 121 133 88 b 58 22 88 49 76 32 b 68 60 51 38 63 49 b 119 239 94 117 111 176 b 96 263 124 260 118 265 b 14 249 68 260 42 254 b -19 246 3 247 -8 242 b -10 267 -24 256 -15 261 b -3 275 -7 269 -4 272 l 14 290 b 100 344 40 318 60 338 b 124 374 122 347 124 351 b 99 519 119 422 110 471 b 58 742 83 593 67 667 b 57 929 53 804 51 867 b 79 976 58 949 65 964 b 139 1035 100 996 119 1015 b 150 1036 142 1036 146 1036 b 158 960 153 1011 154 985 b 338 558 181 814 256 679 b 469 357 383 492 429 426 b 493 326 476 346 492 338 b 522 243 497 297 514 272 b 526 121 533 203 535 163 b 481 36 519 89 507 60 b 425 -18 461 21 446 3 m 215 493 b 221 426 217 469 218 447 b 226 365 222 406 214 385 b 292 360 247 363 268 361 l 296 361 b 299 361 297 361 299 361 b 306 375 306 361 310 369 b 224 492 279 415 254 456 b 215 493 224 493 221 493 "},"Á":{"ha":511,"x_min":0,"x_max":0,"o":"m 190 1394 b 243 1326 213 1371 225 1347 b 244 1275 254 1313 256 1296 b 160 1118 218 1222 190 1169 b 142 1104 157 1113 154 1104 b 97 1164 128 1124 114 1144 b 99 1219 83 1181 85 1197 b 190 1394 131 1275 160 1331 m 425 -18 b 428 18 418 0 425 8 b 419 176 444 72 440 125 b 414 190 418 182 415 186 b 336 251 392 243 392 243 b 224 264 299 257 261 260 b 199 246 210 265 203 260 b 167 158 189 217 178 188 b 101 61 154 121 133 88 b 58 22 88 49 76 32 b 68 60 51 38 63 49 b 119 239 94 117 111 176 b 96 263 124 260 118 265 b 14 249 68 260 42 254 b -19 246 3 247 -8 242 b -10 267 -24 256 -15 261 b -3 275 -7 269 -4 272 l 14 290 b 100 344 40 318 60 338 b 124 374 122 347 124 351 b 99 519 119 422 110 471 b 58 742 83 593 67 667 b 57 929 53 804 51 867 b 79 976 58 949 65 964 b 139 1035 100 996 119 1015 b 150 1036 142 1036 146 1036 b 158 960 153 1011 154 985 b 338 558 181 814 256 679 b 469 357 383 492 429 426 b 493 326 476 346 492 338 b 522 243 497 297 514 272 b 526 121 533 203 535 163 b 481 36 519 89 507 60 b 425 -18 461 21 446 3 m 215 493 b 221 426 217 469 218 447 b 226 365 222 406 214 385 b 292 360 247 363 268 361 l 296 361 b 299 361 297 361 299 361 b 306 375 306 361 310 369 b 224 492 279 415 254 456 b 215 493 224 493 221 493 "},"Â":{"ha":511,"x_min":0,"x_max":0,"o":"m 71 1108 b 71 1129 67 1117 69 1122 b 126 1353 93 1203 111 1278 b 160 1417 131 1378 140 1400 b 226 1481 183 1438 203 1461 b 243 1451 238 1471 240 1461 b 317 1201 263 1367 288 1283 b 307 1163 322 1185 321 1174 b 301 1157 306 1161 303 1158 l 289 1144 b 233 1094 285 1135 242 1094 b 206 1158 224 1094 221 1115 b 200 1178 204 1165 201 1171 l 188 1215 b 182 1233 186 1221 185 1228 b 165 1218 171 1233 168 1225 b 135 1168 161 1197 150 1182 b 71 1108 114 1149 96 1125 m 425 -18 b 428 18 418 0 425 8 b 419 176 444 72 440 125 b 414 190 418 182 415 186 b 336 251 392 243 392 243 b 224 264 299 257 261 260 b 199 246 210 265 203 260 b 167 158 189 217 178 188 b 101 61 154 121 133 88 b 58 22 88 49 76 32 b 68 60 51 38 63 49 b 119 239 94 117 111 176 b 96 263 124 260 118 265 b 14 249 68 260 42 254 b -19 246 3 247 -8 242 b -10 267 -24 256 -15 261 b -3 275 -7 269 -4 272 l 14 290 b 100 344 40 318 60 338 b 124 374 122 347 124 351 b 99 519 119 422 110 471 b 58 742 83 593 67 667 b 57 929 53 804 51 867 b 79 976 58 949 65 964 b 139 1035 100 996 119 1015 b 150 1036 142 1036 146 1036 b 158 960 153 1011 154 985 b 338 558 181 814 256 679 b 469 357 383 492 429 426 b 493 326 476 346 492 338 b 522 243 497 297 514 272 b 526 121 533 203 535 163 b 481 36 519 89 507 60 b 425 -18 461 21 446 3 m 215 493 b 221 426 217 469 218 447 b 226 365 222 406 214 385 b 292 360 247 363 268 361 l 296 361 b 299 361 297 361 299 361 b 306 375 306 361 310 369 b 224 492 279 415 254 456 b 215 493 224 493 221 493 "},"Ã":{"ha":511,"x_min":0,"x_max":0,"o":"m 21 1129 b 31 1144 21 1136 25 1140 b 101 1213 54 1167 76 1190 b 183 1246 126 1235 153 1246 b 225 1239 196 1246 210 1243 l 285 1218 b 339 1208 303 1211 321 1208 b 422 1243 368 1208 397 1218 b 435 1244 424 1244 428 1243 b 326 1138 400 1204 367 1167 b 251 1114 303 1121 278 1114 b 199 1122 235 1114 217 1117 b 153 1139 183 1126 168 1133 b 97 1150 135 1146 115 1150 b 35 1132 76 1150 54 1144 b 22 1128 31 1131 26 1129 l 21 1129 m 425 -18 b 428 18 418 0 425 8 b 419 176 444 72 440 125 b 414 190 418 182 415 186 b 336 251 392 243 392 243 b 224 264 299 257 261 260 b 199 246 210 265 203 260 b 167 158 189 217 178 188 b 101 61 154 121 133 88 b 58 22 88 49 76 32 b 68 60 51 38 63 49 b 119 239 94 117 111 176 b 96 263 124 260 118 265 b 14 249 68 260 42 254 b -19 246 3 247 -8 242 b -10 267 -24 256 -15 261 b -3 275 -7 269 -4 272 l 14 290 b 100 344 40 318 60 338 b 124 374 122 347 124 351 b 99 519 119 422 110 471 b 58 742 83 593 67 667 b 57 929 53 804 51 867 b 79 976 58 949 65 964 b 139 1035 100 996 119 1015 b 150 1036 142 1036 146 1036 b 158 960 153 1011 154 985 b 338 558 181 814 256 679 b 469 357 383 492 429 426 b 493 326 476 346 492 338 b 522 243 497 297 514 272 b 526 121 533 203 535 163 b 481 36 519 89 507 60 b 425 -18 461 21 446 3 m 215 493 b 221 426 217 469 218 447 b 226 365 222 406 214 385 b 292 360 247 363 268 361 l 296 361 b 299 361 297 361 299 361 b 306 375 306 361 310 369 b 224 492 279 415 254 456 b 215 493 224 493 221 493 "},"Ä":{"ha":511,"x_min":0,"x_max":0,"o":"m 278 1303 b 286 1203 283 1289 286 1222 b 276 1176 288 1193 285 1183 b 207 1107 254 1153 231 1131 b 193 1113 203 1103 193 1107 b 190 1211 192 1146 190 1178 b 194 1225 190 1215 192 1221 b 206 1236 199 1229 201 1232 l 228 1260 b 239 1271 232 1264 235 1267 b 278 1303 250 1282 260 1294 m 136 1303 b 144 1203 143 1290 144 1222 b 136 1176 146 1193 143 1183 b 118 1158 131 1171 124 1164 l 83 1125 b 65 1107 78 1119 71 1113 b 51 1113 61 1103 51 1107 b 49 1211 50 1146 49 1178 b 54 1225 49 1215 50 1221 b 65 1236 58 1229 61 1232 l 86 1260 b 97 1271 90 1264 94 1267 b 136 1303 110 1282 119 1294 m 425 -18 b 428 18 418 0 425 8 b 419 176 444 72 440 125 b 414 190 418 182 415 186 b 336 251 392 243 392 243 b 224 264 299 257 261 260 b 199 246 210 265 203 260 b 167 158 189 217 178 188 b 101 61 154 121 133 88 b 58 22 88 49 76 32 b 68 60 51 38 63 49 b 119 239 94 117 111 176 b 96 263 124 260 118 265 b 14 249 68 260 42 254 b -19 246 3 247 -8 242 b -10 267 -24 256 -15 261 b -3 275 -7 269 -4 272 l 14 290 b 100 344 40 318 60 338 b 124 374 122 347 124 351 b 99 519 119 422 110 471 b 58 742 83 593 67 667 b 57 929 53 804 51 867 b 79 976 58 949 65 964 b 139 1035 100 996 119 1015 b 150 1036 142 1036 146 1036 b 158 960 153 1011 154 985 b 338 558 181 814 256 679 b 469 357 383 492 429 426 b 493 326 476 346 492 338 b 522 243 497 297 514 272 b 526 121 533 203 535 163 b 481 36 519 89 507 60 b 425 -18 461 21 446 3 m 215 493 b 221 426 217 469 218 447 b 226 365 222 406 214 385 b 292 360 247 363 268 361 l 296 361 b 299 361 297 361 299 361 b 306 375 306 361 310 369 b 224 492 279 415 254 456 b 215 493 224 493 221 493 "},"Å":{"ha":511,"x_min":0,"x_max":0,"o":"m 307 1296 b 276 1215 307 1265 299 1238 b 193 1131 250 1186 222 1157 b 133 1106 174 1114 154 1106 b 61 1154 106 1106 79 1122 b 78 1319 32 1204 38 1275 b 164 1407 104 1350 135 1378 b 203 1424 175 1418 189 1424 b 307 1296 268 1424 307 1354 m 206 1206 b 154 1317 213 1253 193 1294 b 140 1311 149 1321 140 1318 b 157 1242 136 1286 144 1264 b 206 1206 168 1224 182 1210 m 425 -18 b 428 18 418 0 425 8 b 419 176 444 72 440 125 b 414 190 418 182 415 186 b 336 251 392 243 392 243 b 224 264 299 257 261 260 b 199 246 210 265 203 260 b 167 158 189 217 178 188 b 101 61 154 121 133 88 b 58 22 88 49 76 32 b 68 60 51 38 63 49 b 119 239 94 117 111 176 b 96 263 124 260 118 265 b 14 249 68 260 42 254 b -19 246 3 247 -8 242 b -10 267 -24 256 -15 261 b -3 275 -7 269 -4 272 l 14 290 b 100 344 40 318 60 338 b 124 374 122 347 124 351 b 99 519 119 422 110 471 b 58 742 83 593 67 667 b 57 929 53 804 51 867 b 79 976 58 949 65 964 b 139 1035 100 996 119 1015 b 150 1036 142 1036 146 1036 b 158 960 153 1011 154 985 b 338 558 181 814 256 679 b 469 357 383 492 429 426 b 493 326 476 346 492 338 b 522 243 497 297 514 272 b 526 121 533 203 535 163 b 481 36 519 89 507 60 b 425 -18 461 21 446 3 m 215 493 b 221 426 217 469 218 447 b 226 365 222 406 214 385 b 292 360 247 363 268 361 l 296 361 b 299 361 297 361 299 361 b 306 375 306 361 310 369 b 224 492 279 415 254 456 b 215 493 224 493 221 493 "},"Æ":{"ha":821,"x_min":0,"x_max":0,"o":"m 738 129 b 653 289 706 189 679 239 b 660 381 621 347 619 332 b 690 415 669 392 681 403 b 719 407 703 428 710 426 b 821 215 754 344 788 279 b 831 192 825 208 828 200 b 819 103 844 158 846 128 b 764 40 799 85 782 61 b 713 21 750 26 733 21 b 543 101 656 21 585 65 b 539 106 542 103 540 104 l 529 113 b 525 117 528 114 526 115 b 481 36 518 86 506 58 b 425 -18 461 21 446 3 b 428 18 418 0 425 8 b 419 176 444 72 440 125 b 414 190 418 182 415 186 b 336 251 392 243 392 243 b 224 264 299 257 261 260 b 199 246 210 265 203 260 b 167 158 189 217 178 188 b 101 61 154 121 133 88 b 58 22 88 49 76 32 b 68 60 51 38 63 49 b 119 239 94 117 111 176 b 96 263 124 260 118 265 b 14 249 68 260 42 254 b -19 246 3 247 -8 242 b -10 267 -24 256 -15 261 b -8 269 -10 268 -8 268 l -4 274 b -3 275 -4 274 -4 275 l 14 290 b 15 293 15 292 15 292 l 19 297 b 100 344 42 322 67 339 b 124 374 122 347 124 351 b 99 519 119 422 110 471 b 58 742 83 593 67 667 b 57 929 53 804 51 867 b 79 976 58 949 65 964 b 139 1035 100 996 119 1015 b 150 1036 142 1036 146 1036 b 158 960 153 1011 154 985 b 350 542 181 813 263 661 l 363 556 b 365 558 364 557 365 558 l 372 567 b 375 569 374 567 374 568 b 375 618 399 596 392 596 b 268 824 329 683 293 751 b 260 853 265 833 263 843 b 279 940 250 888 253 917 b 332 1000 299 958 314 981 b 363 1001 340 1008 351 1010 b 411 961 379 989 396 975 b 481 892 435 939 458 914 b 490 913 494 896 489 906 b 496 935 493 919 492 929 b 565 1015 517 963 542 988 b 574 1003 571 1007 574 1006 b 615 822 579 942 594 881 b 624 793 618 813 621 801 b 619 753 631 776 629 764 b 561 686 599 731 581 708 b 526 686 550 675 542 674 b 450 750 500 707 475 729 b 422 765 442 756 438 767 b 597 567 461 692 533 619 b 629 540 608 558 619 550 b 633 524 635 536 639 529 b 569 450 613 499 592 474 b 543 449 563 442 553 444 b 450 492 513 464 481 479 b 406 504 435 499 421 506 b 396 492 397 504 393 500 b 414 450 401 478 407 464 b 429 424 418 440 424 432 b 436 411 432 419 435 415 l 453 388 b 460 375 454 383 457 379 b 465 368 461 372 463 371 l 474 353 b 479 346 476 351 478 349 b 493 328 485 340 492 333 b 738 129 547 260 649 153 m 215 493 b 221 426 217 469 218 447 b 226 365 222 406 214 385 b 289 360 247 363 268 361 b 292 360 290 360 290 360 l 296 361 b 299 361 297 361 299 361 b 306 375 306 361 310 369 b 224 492 279 415 254 456 b 215 493 224 493 221 493 "},"Ç":{"ha":493,"x_min":0,"x_max":0,"o":"m 411 161 b 400 228 413 183 406 206 b 354 399 386 285 371 342 b 365 443 350 417 350 429 b 431 507 386 463 407 485 l 435 507 b 450 489 446 506 447 496 b 507 256 472 413 493 335 b 513 221 510 244 511 232 b 471 111 517 178 506 140 b 418 60 451 96 435 78 b 390 42 410 50 400 44 b 392 31 390 38 392 35 b 403 -47 394 8 399 -14 b 454 0 425 -26 439 -12 b 539 44 478 24 504 44 b 604 0 565 44 590 29 b 614 -86 618 -26 621 -56 b 561 -190 604 -125 588 -161 b 467 -285 531 -222 499 -253 b 413 -310 454 -297 431 -310 b 368 -279 396 -310 381 -300 b 365 -274 367 -278 367 -276 l 360 -264 b 357 -258 358 -262 358 -260 b 360 -231 351 -249 351 -239 b 415 -175 379 -212 397 -194 b 439 -158 426 -164 433 -158 b 457 -179 444 -158 450 -165 b 499 -212 467 -196 476 -219 b 519 -167 517 -207 517 -183 b 513 -94 524 -142 524 -117 b 450 -50 499 -65 475 -50 b 403 -68 435 -50 418 -56 b 364 -107 389 -81 376 -93 b 356 -114 361 -110 358 -112 l 340 -131 b 332 -137 338 -132 335 -135 b 308 -131 322 -144 313 -142 b 304 -111 307 -124 304 -118 b 285 36 297 -62 292 -14 b 293 68 283 47 283 58 b 299 74 294 69 297 72 b 292 79 296 75 294 78 b -4 632 154 196 38 464 b -19 749 -14 671 -21 710 b 36 876 -17 799 -3 842 b 99 939 58 896 78 918 b 151 963 115 956 133 963 b 197 947 168 963 183 957 b 247 906 214 935 231 919 b 342 996 260 922 324 996 b 347 989 344 994 347 992 b 347 960 347 979 347 969 b 346 840 346 919 344 881 b 369 692 346 790 351 739 b 363 651 376 675 375 663 b 343 633 356 646 350 639 l 304 596 b 285 576 297 589 292 583 b 268 579 279 572 271 572 b 254 617 263 592 258 604 b 115 846 229 686 178 800 b 86 858 107 853 99 864 b 76 828 72 853 76 839 b 307 256 76 650 208 394 b 385 172 329 225 354 196 b 411 161 392 167 399 158 "},"Ð":{"ha":592,"x_min":0,"x_max":0,"o":"m 249 153 b 168 401 229 238 197 319 b -25 394 99 397 24 394 b -75 399 -53 394 -72 396 b -42 440 -71 418 -51 426 b 72 490 -12 478 25 490 b 132 492 96 490 115 492 b 35 740 99 574 67 657 b 26 797 28 758 19 776 b 17 835 31 811 21 822 b -19 947 1 871 -11 908 b -7 988 -22 964 -19 975 b 53 1046 13 1006 32 1026 b 69 1053 57 1050 63 1054 b 74 1040 71 1049 74 1044 b 221 761 96 932 147 840 b 356 629 264 715 310 672 b 483 507 399 589 442 549 b 601 344 532 461 575 407 b 586 210 619 297 614 251 b 578 197 583 206 581 201 b 271 -18 507 117 388 -18 b 125 99 199 -18 156 42 b 65 260 99 150 83 206 b 69 282 63 268 63 276 b 142 356 93 307 118 332 b 158 351 147 360 156 358 b 172 310 164 338 168 324 b 221 186 186 267 200 225 b 249 153 228 175 232 161 m 249 543 b 253 514 243 532 250 524 b 258 501 254 510 257 506 b 299 503 269 501 283 503 b 261 538 286 515 274 526 b 249 543 258 540 253 542 m 440 99 b 467 113 449 101 457 108 b 517 200 504 129 515 163 b 496 281 518 229 508 256 b 376 428 467 336 421 385 b 329 408 363 413 351 408 b 293 407 324 408 311 408 b 378 126 325 315 351 221 b 394 85 382 113 378 90 b 440 99 410 79 425 92 "},"Đ":{"ha":592,"x_min":0,"x_max":0,"o":"m 249 153 b 167 401 229 238 197 321 b -35 394 96 397 17 394 b -89 399 -65 394 -85 396 b -56 440 -85 418 -65 426 b 58 490 -26 478 11 490 b 132 492 89 490 113 492 b 35 740 99 575 67 657 b 26 797 28 758 19 776 b 17 835 31 811 21 822 b -19 947 1 871 -11 908 b -7 988 -22 964 -19 975 b 53 1046 13 1006 32 1026 b 69 1053 57 1050 63 1054 b 74 1040 71 1049 74 1044 b 221 761 96 932 147 840 b 356 629 264 715 310 672 b 483 507 399 589 442 549 b 601 344 532 461 575 407 b 586 210 619 297 614 251 b 578 197 583 206 581 201 b 271 -18 507 117 388 -18 b 125 99 199 -18 156 42 b 65 260 99 150 83 206 b 69 282 63 268 63 276 b 142 356 93 307 118 332 b 158 351 147 360 156 358 b 172 310 164 338 168 324 b 221 186 186 267 200 225 b 249 153 228 175 232 161 m 249 543 b 253 514 243 532 250 524 b 257 501 254 510 256 506 b 297 504 269 503 282 503 b 261 538 285 515 274 526 b 249 543 258 540 253 542 m 440 99 b 467 113 449 101 457 108 b 517 200 504 129 515 163 b 496 281 518 229 508 256 b 369 435 465 338 415 390 b 360 425 367 432 363 428 b 315 408 347 411 332 408 b 293 408 311 408 304 408 b 378 126 324 315 350 221 b 394 85 382 113 378 90 b 440 99 410 79 425 92 "},"È":{"ha":546,"x_min":0,"x_max":0,"o":"m 146 1390 b 213 1215 167 1326 188 1271 b 206 1160 224 1193 222 1176 b 153 1100 186 1140 169 1119 b 136 1114 140 1100 139 1108 b 74 1271 114 1165 93 1218 b 83 1322 67 1292 69 1308 b 146 1390 103 1343 119 1367 m 463 129 b 378 289 431 189 404 239 b 385 381 346 347 344 332 b 415 415 394 392 406 403 b 444 407 428 428 435 426 b 546 215 479 344 513 279 b 556 192 550 208 553 200 b 544 103 569 158 571 128 b 489 40 524 85 507 61 b 438 21 475 26 458 21 b 33 415 286 21 72 289 b 50 514 21 453 25 486 b 63 528 54 518 58 524 l 88 556 b 100 569 92 560 96 565 b 100 618 124 596 117 596 b -7 824 54 683 18 751 b -15 853 -10 833 -12 843 b 4 940 -25 888 -22 917 b 57 1000 24 958 39 981 b 88 1001 65 1008 76 1010 b 136 961 104 989 121 975 b 206 892 160 939 183 914 b 215 913 219 896 214 906 b 221 935 218 919 217 929 b 290 1015 242 963 267 988 b 299 1003 296 1007 299 1006 b 340 822 304 942 319 881 b 349 793 343 813 346 801 b 344 753 356 776 354 764 b 286 686 324 731 306 708 b 251 686 275 675 267 674 b 175 750 225 707 200 729 b 147 765 167 756 163 767 b 322 567 186 692 258 619 b 354 540 333 558 344 550 b 358 524 360 536 364 529 b 294 450 338 499 317 474 b 268 449 288 442 278 444 b 175 492 238 464 206 479 b 131 504 160 499 146 506 b 121 492 122 504 118 500 b 463 129 172 365 332 164 "},"É":{"ha":546,"x_min":0,"x_max":0,"o":"m 197 1390 b 250 1322 219 1367 232 1343 b 251 1271 261 1308 263 1292 b 167 1114 225 1218 197 1165 b 149 1100 164 1108 161 1100 b 104 1160 135 1119 121 1140 b 106 1215 90 1176 92 1193 b 197 1390 138 1271 167 1326 m 463 129 b 378 289 431 189 404 239 b 385 381 346 347 344 332 b 415 415 394 392 406 403 b 444 407 428 428 435 426 b 546 215 479 344 513 279 b 556 192 550 208 553 200 b 544 103 569 158 571 128 b 489 40 524 85 507 61 b 438 21 475 26 458 21 b 33 415 286 21 72 289 b 50 514 21 453 25 486 b 63 528 54 518 58 524 l 88 556 b 100 569 92 560 96 565 b 100 618 124 596 117 596 b -7 824 54 683 18 751 b -15 853 -10 833 -12 843 b 4 940 -25 888 -22 917 b 57 1000 24 958 39 981 b 88 1001 65 1008 76 1010 b 136 961 104 989 121 975 b 206 892 160 939 183 914 b 215 913 219 896 214 906 b 221 935 218 919 217 929 b 290 1015 242 963 267 988 b 299 1003 296 1007 299 1006 b 340 822 304 942 319 881 b 349 793 343 813 346 801 b 344 753 356 776 354 764 b 286 686 324 731 306 708 b 251 686 275 675 267 674 b 175 750 225 707 200 729 b 147 765 167 756 163 767 b 322 567 186 692 258 619 b 354 540 333 558 344 550 b 358 524 360 536 364 529 b 294 450 338 499 317 474 b 268 449 288 442 278 444 b 175 492 238 464 206 479 b 131 504 160 499 146 506 b 121 492 122 504 118 500 b 463 129 172 365 332 164 "},"Ê":{"ha":546,"x_min":0,"x_max":0,"o":"m 64 1114 b 64 1135 60 1122 63 1128 b 119 1358 86 1208 104 1283 b 153 1422 124 1383 133 1406 b 219 1486 176 1443 196 1467 b 236 1457 231 1476 233 1467 b 310 1207 256 1372 281 1289 b 300 1168 315 1190 314 1179 b 294 1163 299 1167 296 1164 l 282 1150 b 226 1100 278 1140 235 1100 b 199 1164 217 1100 214 1121 b 193 1183 197 1171 194 1176 l 181 1221 b 175 1239 179 1226 178 1233 b 158 1224 164 1239 161 1231 b 128 1174 154 1203 143 1188 b 64 1114 107 1154 89 1131 m 463 129 b 378 289 431 189 404 239 b 385 381 346 347 344 332 b 415 415 394 392 406 403 b 444 407 428 428 435 426 b 546 215 479 344 513 279 b 556 192 550 208 553 200 b 544 103 569 158 571 128 b 489 40 524 85 507 61 b 438 21 475 26 458 21 b 33 415 286 21 72 289 b 50 514 21 453 25 486 b 63 528 54 518 58 524 l 88 556 b 100 569 92 560 96 565 b 100 618 124 596 117 596 b -7 824 54 683 18 751 b -15 853 -10 833 -12 843 b 4 940 -25 888 -22 917 b 57 1000 24 958 39 981 b 88 1001 65 1008 76 1010 b 136 961 104 989 121 975 b 206 892 160 939 183 914 b 215 913 219 896 214 906 b 221 935 218 919 217 929 b 290 1015 242 963 267 988 b 299 1003 296 1007 299 1006 b 340 822 304 942 319 881 b 349 793 343 813 346 801 b 344 753 356 776 354 764 b 286 686 324 731 306 708 b 251 686 275 675 267 674 b 175 750 225 707 200 729 b 147 765 167 756 163 767 b 322 567 186 692 258 619 b 354 540 333 558 344 550 b 358 524 360 536 364 529 b 294 450 338 499 317 474 b 268 449 288 442 278 444 b 175 492 238 464 206 479 b 131 504 160 499 146 506 b 121 492 122 504 118 500 b 463 129 172 365 332 164 "},"Ë":{"ha":546,"x_min":0,"x_max":0,"o":"m 272 1299 b 281 1199 278 1285 281 1218 b 271 1172 282 1189 279 1179 b 201 1103 249 1149 225 1126 b 188 1108 197 1099 188 1103 b 185 1207 186 1142 185 1174 b 189 1221 185 1211 186 1217 b 200 1232 193 1225 196 1228 l 222 1256 b 233 1267 226 1260 229 1263 b 272 1299 244 1278 254 1290 m 131 1299 b 139 1199 138 1286 139 1218 b 131 1172 140 1189 138 1179 b 113 1154 125 1167 118 1160 l 78 1121 b 60 1103 72 1115 65 1108 b 46 1108 56 1099 46 1103 b 43 1207 44 1142 43 1174 b 49 1221 43 1211 44 1217 b 60 1232 53 1225 56 1228 l 81 1256 b 92 1267 85 1260 89 1263 b 131 1299 104 1278 114 1290 m 463 129 b 378 289 431 189 404 239 b 385 381 346 347 344 332 b 415 415 394 392 406 403 b 444 407 428 428 435 426 b 546 215 479 344 513 279 b 556 192 550 208 553 200 b 544 103 569 158 571 128 b 489 40 524 85 507 61 b 438 21 475 26 458 21 b 33 415 286 21 72 289 b 50 514 21 453 25 486 b 63 528 54 518 58 524 l 88 556 b 100 569 92 560 96 565 b 100 618 124 596 117 596 b -7 824 54 683 18 751 b -15 853 -10 833 -12 843 b 4 940 -25 888 -22 917 b 57 1000 24 958 39 981 b 88 1001 65 1008 76 1010 b 136 961 104 989 121 975 b 206 892 160 939 183 914 b 215 913 219 896 214 906 b 221 935 218 919 217 929 b 290 1015 242 963 267 988 b 299 1003 296 1007 299 1006 b 340 822 304 942 319 881 b 349 793 343 813 346 801 b 344 753 356 776 354 764 b 286 686 324 731 306 708 b 251 686 275 675 267 674 b 175 750 225 707 200 729 b 147 765 167 756 163 767 b 322 567 186 692 258 619 b 354 540 333 558 344 550 b 358 524 360 536 364 529 b 294 450 338 499 317 474 b 268 449 288 442 278 444 b 175 492 238 464 206 479 b 131 504 160 499 146 506 b 121 492 122 504 118 500 b 463 129 172 365 332 164 "},"Ì":{"ha":375,"x_min":0,"x_max":0,"o":"m 56 1392 b 122 1217 76 1328 97 1272 b 115 1161 133 1194 132 1178 b 63 1101 96 1142 79 1121 b 46 1115 50 1101 49 1110 b -17 1272 24 1167 3 1219 b -7 1324 -24 1293 -21 1310 b 56 1392 13 1344 29 1368 m 65 39 b 149 121 97 71 122 96 b 171 136 154 128 169 124 b 164 164 171 144 167 156 b 17 669 106 329 54 497 b -15 843 4 726 -4 785 b -17 854 -17 847 -17 850 l -18 876 b -19 888 -18 881 -19 883 b -4 926 -21 903 -15 917 b 25 954 6 936 15 946 b 75 1001 42 969 54 989 b 108 943 97 989 97 963 b 243 781 143 879 182 821 b 222 751 242 765 231 758 b 167 696 204 732 186 714 b 144 693 160 689 153 689 b 131 682 133 697 128 693 b 140 635 133 667 136 650 b 285 181 182 481 231 329 b 342 144 301 135 304 143 b 393 143 360 144 378 149 b 388 125 397 133 392 129 b 335 72 369 107 351 90 b 292 51 324 60 310 51 b 192 44 258 53 225 42 b 89 35 157 46 122 38 b 65 39 83 35 79 36 "},"Í":{"ha":375,"x_min":0,"x_max":0,"o":"m 122 1392 b 175 1324 144 1368 157 1344 b 176 1272 186 1310 188 1293 b 92 1115 150 1219 122 1167 b 74 1101 89 1110 86 1101 b 29 1161 60 1121 46 1142 b 31 1217 15 1178 17 1194 b 122 1392 63 1272 92 1328 m 65 39 b 149 121 97 71 122 96 b 171 136 154 128 169 124 b 164 164 171 144 167 156 b 17 669 106 329 54 497 b -15 843 4 726 -4 785 b -17 854 -17 847 -17 850 l -18 876 b -19 888 -18 881 -19 883 b -4 926 -21 903 -15 917 b 25 954 6 936 15 946 b 75 1001 42 969 54 989 b 108 943 97 989 97 963 b 243 781 143 879 182 821 b 222 751 242 765 231 758 b 167 696 204 732 186 714 b 144 693 160 689 153 689 b 131 682 133 697 128 693 b 140 635 133 667 136 650 b 285 181 182 481 231 329 b 342 144 301 135 304 143 b 393 143 360 144 378 149 b 388 125 397 133 392 129 b 335 72 369 107 351 90 b 292 51 324 60 310 51 b 192 44 258 53 225 42 b 89 35 157 46 122 38 b 65 39 83 35 79 36 "},"Î":{"ha":375,"x_min":0,"x_max":0,"o":"m -24 1115 b -24 1136 -28 1124 -25 1129 b 32 1360 -1 1210 17 1285 b 65 1424 36 1385 46 1407 b 132 1488 89 1444 108 1468 b 149 1458 143 1478 146 1468 b 222 1208 168 1374 193 1290 b 213 1169 228 1192 226 1181 b 207 1164 211 1168 208 1165 l 194 1151 b 139 1101 190 1142 147 1101 b 111 1165 129 1101 126 1122 b 106 1185 110 1172 107 1178 l 93 1222 b 88 1240 92 1228 90 1235 b 71 1225 76 1240 74 1232 b 40 1175 67 1204 56 1189 b -24 1115 19 1156 1 1132 m 65 39 b 149 121 97 71 122 96 b 171 136 154 128 169 124 b 164 164 171 144 167 156 b 17 669 106 329 54 497 b -15 843 4 726 -4 785 b -17 854 -17 847 -17 850 l -18 876 b -19 888 -18 881 -19 883 b -4 926 -21 903 -15 917 b 25 954 6 936 15 946 b 75 1001 42 969 54 989 b 108 943 97 989 97 963 b 243 781 143 879 182 821 b 222 751 242 765 231 758 b 167 696 204 732 186 714 b 144 693 160 689 153 689 b 131 682 133 697 128 693 b 140 635 133 667 136 650 b 285 181 182 481 231 329 b 342 144 301 135 304 143 b 393 143 360 144 378 149 b 388 125 397 133 392 129 b 335 72 369 107 351 90 b 292 51 324 60 310 51 b 192 44 258 53 225 42 b 89 35 157 46 122 38 b 65 39 83 35 79 36 "},"Ï":{"ha":375,"x_min":0,"x_max":0,"o":"m 249 1300 b 257 1200 254 1286 257 1219 b 247 1174 258 1190 256 1181 b 178 1104 225 1150 201 1128 b 164 1110 174 1100 164 1104 b 161 1208 163 1143 161 1175 b 165 1222 161 1213 163 1218 b 176 1233 169 1226 172 1229 l 199 1257 b 210 1268 203 1261 206 1264 b 249 1300 221 1279 231 1292 m 107 1300 b 115 1200 114 1288 115 1219 b 107 1174 117 1190 114 1181 b 89 1156 101 1168 94 1161 l 54 1122 b 36 1104 49 1117 42 1110 b 22 1110 32 1100 22 1104 b 19 1208 21 1143 19 1175 b 25 1222 19 1213 21 1218 b 36 1233 29 1226 32 1229 l 57 1257 b 68 1268 61 1261 65 1264 b 107 1300 81 1279 90 1292 m 65 39 b 149 121 97 71 122 96 b 171 136 154 128 169 124 b 164 164 171 144 167 156 b 17 669 106 329 54 497 b -15 843 4 726 -4 785 b -17 854 -17 847 -17 850 l -18 876 b -19 888 -18 881 -19 883 b -4 926 -21 903 -15 917 b 25 954 6 936 15 946 b 75 1001 42 969 54 989 b 108 943 97 989 97 963 b 243 781 143 879 182 821 b 222 751 242 765 231 758 b 167 696 204 732 186 714 b 144 693 160 689 153 689 b 131 682 133 697 128 693 b 140 635 133 667 136 650 b 285 181 182 481 231 329 b 342 144 301 135 304 143 b 393 143 360 144 378 149 b 388 125 397 133 392 129 b 335 72 369 107 351 90 b 292 51 324 60 310 51 b 192 44 258 53 225 42 b 89 35 157 46 122 38 b 65 39 83 35 79 36 "},"Ł":{"ha":568,"x_min":0,"x_max":0,"o":"m 503 43 b 490 61 496 53 492 57 b 411 115 460 118 467 104 b 254 122 360 125 307 126 b 228 113 244 121 235 121 b 204 100 219 106 213 100 b 186 108 199 100 193 101 b 158 107 182 113 167 110 b 88 88 133 101 110 94 b 50 78 75 83 63 78 b 53 93 42 85 49 89 b 99 139 68 108 83 124 b 150 175 113 154 128 168 b 163 201 165 179 167 185 b 119 363 149 256 135 310 b 61 569 100 432 81 500 b -21 575 19 568 -15 569 b 13 615 -17 594 3 601 b 40 643 21 626 31 636 b 3 779 28 689 15 733 b -19 871 -6 810 -12 840 b -14 899 -22 881 -21 890 b 67 978 13 925 38 953 b 78 946 82 969 75 956 b 108 826 88 907 97 867 b 154 665 124 772 139 719 b 500 679 269 668 385 675 b 608 676 536 681 572 682 b 614 660 618 675 621 667 b 556 600 594 639 574 621 b 511 583 543 586 529 583 b 256 579 426 586 340 583 b 181 574 250 579 219 576 b 258 286 207 479 233 383 b 278 225 264 265 271 246 b 296 213 281 218 286 211 b 407 222 332 215 369 218 b 396 265 408 239 400 253 b 357 428 378 318 364 372 b 379 494 353 454 357 476 b 436 549 399 511 417 531 b 449 542 440 553 449 550 b 568 181 460 411 510 294 b 554 94 596 126 600 142 b 503 43 539 78 522 63 "},"Ñ":{"ha":631,"x_min":0,"x_max":0,"o":"m 108 1118 b 118 1133 108 1125 113 1129 b 189 1201 142 1156 164 1179 b 271 1235 214 1224 240 1235 b 313 1228 283 1235 297 1232 l 372 1207 b 426 1197 390 1200 408 1197 b 510 1232 456 1197 485 1207 b 522 1233 511 1233 515 1232 b 414 1126 488 1193 454 1156 b 339 1103 390 1110 365 1103 b 286 1111 322 1103 304 1106 b 240 1128 271 1115 256 1122 b 185 1139 222 1135 203 1139 b 122 1121 164 1139 142 1133 b 110 1117 118 1119 114 1118 l 108 1118 m 103 417 b 60 714 89 515 74 614 b 54 758 58 729 56 743 l 43 846 b 38 889 42 860 40 875 b 61 954 33 915 39 938 b 103 996 75 967 89 982 b 126 1013 114 1007 121 1013 b 144 986 132 1013 138 1004 b 361 544 203 832 275 685 b 389 513 368 533 371 521 b 379 575 386 535 382 556 b 354 899 361 682 350 790 b 393 968 356 929 369 950 l 418 994 b 432 1007 424 999 428 1003 b 444 1011 435 1010 440 1011 b 450 1000 451 1011 450 1004 b 450 897 450 965 449 931 b 642 143 461 632 524 381 b 649 131 643 139 646 135 b 643 104 653 121 651 111 b 574 35 619 81 596 57 b 556 35 568 29 561 29 b 538 58 549 43 543 50 b 207 554 419 218 304 381 b 188 572 204 561 201 569 b 211 418 194 521 203 469 l 232 285 b 243 218 236 263 240 240 b 244 208 244 215 244 211 b 211 110 253 151 253 151 b 164 65 196 94 181 79 b 147 67 158 60 151 60 b 131 90 142 74 135 82 l -15 342 b -12 372 -22 353 -22 363 b 33 418 3 388 18 403 b 63 442 43 426 50 440 b 90 418 79 444 81 425 b 103 417 93 415 99 417 "},"Ò":{"ha":492,"x_min":0,"x_max":0,"o":"m 146 1393 b 213 1218 167 1329 188 1274 b 206 1163 224 1196 222 1179 b 153 1103 186 1143 169 1122 b 136 1117 140 1103 139 1111 b 74 1274 114 1168 93 1221 b 83 1325 67 1294 69 1311 b 146 1393 103 1346 119 1369 m -21 613 b -12 696 -19 640 -17 668 b 19 772 -8 725 0 750 b 32 817 32 785 36 799 b 60 911 25 853 33 885 b 86 940 69 921 78 931 l 111 972 b 143 989 119 983 131 989 b 164 985 150 989 157 988 b 289 876 207 971 261 910 b 499 440 392 747 464 603 b 506 264 511 382 518 324 b 463 171 499 229 486 199 b 400 96 442 146 421 121 b 321 56 375 68 350 56 b 203 106 281 56 233 81 b -10 510 81 199 11 361 b -21 613 -14 543 -17 578 m 72 654 b 72 651 72 653 72 651 l 71 643 b 71 640 71 643 71 642 b 110 468 78 582 89 524 b 383 158 150 353 254 185 b 422 186 410 153 419 160 b 425 221 424 199 424 210 b 408 363 426 269 419 317 b 163 822 367 535 282 692 b 139 833 157 828 151 835 b 161 764 143 810 153 786 b 322 426 206 649 261 533 b 322 408 325 421 326 414 b 253 325 300 381 276 353 b 240 325 250 321 243 322 b 222 354 233 335 226 344 b 94 615 176 440 133 526 b 72 654 89 629 88 644 "},"Ó":{"ha":492,"x_min":0,"x_max":0,"o":"m 186 1393 b 239 1325 208 1369 221 1346 b 240 1274 250 1311 251 1294 b 156 1117 214 1221 186 1168 b 138 1103 153 1111 150 1103 b 93 1163 124 1122 110 1143 b 94 1218 79 1179 81 1196 b 186 1393 126 1274 156 1329 m -21 613 b -12 696 -19 640 -17 668 b 19 772 -8 725 0 750 b 32 817 32 785 36 799 b 60 911 25 853 33 885 b 86 940 69 921 78 931 l 111 972 b 143 989 119 983 131 989 b 164 985 150 989 157 988 b 289 876 207 971 261 910 b 499 440 392 747 464 603 b 506 264 511 382 518 324 b 463 171 499 229 486 199 b 400 96 442 146 421 121 b 321 56 375 68 350 56 b 203 106 281 56 233 81 b -10 510 81 199 11 361 b -21 613 -14 543 -17 578 m 72 654 b 72 651 72 653 72 651 l 71 643 b 71 640 71 643 71 642 b 110 468 78 582 89 524 b 383 158 150 353 254 185 b 422 186 410 153 419 160 b 425 221 424 199 424 210 b 408 363 426 269 419 317 b 163 822 367 535 282 692 b 139 833 157 828 151 835 b 161 764 143 810 153 786 b 322 426 206 649 261 533 b 322 408 325 421 326 414 b 253 325 300 381 276 353 b 240 325 250 321 243 322 b 222 354 233 335 226 344 b 94 615 176 440 133 526 b 72 654 89 629 88 644 "},"Ô":{"ha":492,"x_min":0,"x_max":0,"o":"m 47 1117 b 47 1138 43 1125 46 1131 b 103 1361 69 1211 88 1286 b 136 1425 107 1386 117 1408 b 203 1489 160 1446 179 1469 b 219 1460 214 1479 217 1469 b 293 1210 239 1375 264 1292 b 283 1171 299 1193 297 1182 b 278 1165 282 1169 279 1167 l 265 1153 b 210 1103 261 1143 218 1103 b 182 1167 200 1103 197 1124 b 176 1186 181 1174 178 1179 l 164 1224 b 158 1242 163 1229 161 1236 b 142 1226 147 1242 144 1233 b 111 1176 138 1206 126 1190 b 47 1117 90 1157 72 1133 m -21 613 b -12 696 -19 640 -17 668 b 19 772 -8 725 0 750 b 32 817 32 785 36 799 b 60 911 25 853 33 885 b 86 940 69 921 78 931 l 111 972 b 143 989 119 983 131 989 b 164 985 150 989 157 988 b 289 876 207 971 261 910 b 499 440 392 747 464 603 b 506 264 511 382 518 324 b 463 171 499 229 486 199 b 400 96 442 146 421 121 b 321 56 375 68 350 56 b 203 106 281 56 233 81 b -10 510 81 199 11 361 b -21 613 -14 543 -17 578 m 72 654 b 72 651 72 653 72 651 l 71 643 b 71 640 71 643 71 642 b 110 468 78 582 89 524 b 383 158 150 353 254 185 b 422 186 410 153 419 160 b 425 221 424 199 424 210 b 408 363 426 269 419 317 b 163 822 367 535 282 692 b 139 833 157 828 151 835 b 161 764 143 810 153 786 b 322 426 206 649 261 533 b 322 408 325 421 326 414 b 253 325 300 381 276 353 b 240 325 250 321 243 322 b 222 354 233 335 226 344 b 94 615 176 440 133 526 b 72 654 89 629 88 644 "},"Õ":{"ha":492,"x_min":0,"x_max":0,"o":"m 39 1118 b 49 1133 39 1125 43 1129 b 119 1201 72 1156 94 1179 b 201 1235 144 1224 171 1235 b 243 1228 214 1235 228 1232 l 303 1207 b 357 1197 321 1200 339 1197 b 440 1232 386 1197 415 1207 b 453 1233 442 1233 446 1232 b 344 1126 418 1193 385 1156 b 269 1103 321 1110 296 1103 b 217 1111 253 1103 235 1106 b 171 1128 201 1115 186 1122 b 115 1139 153 1135 133 1139 b 53 1121 94 1139 72 1133 b 40 1117 49 1119 44 1118 l 39 1118 m -21 613 b -12 696 -19 640 -17 668 b 19 772 -8 725 0 750 b 32 817 32 785 36 799 b 60 911 25 853 33 885 b 86 940 69 921 78 931 l 111 972 b 143 989 119 983 131 989 b 164 985 150 989 157 988 b 289 876 207 971 261 910 b 499 440 392 747 464 603 b 506 264 511 382 518 324 b 463 171 499 229 486 199 b 400 96 442 146 421 121 b 321 56 375 68 350 56 b 203 106 281 56 233 81 b -10 510 81 199 11 361 b -21 613 -14 543 -17 578 m 72 654 b 72 651 72 653 72 651 l 71 643 b 71 640 71 643 71 642 b 110 468 78 582 89 524 b 383 158 150 353 254 185 b 422 186 410 153 419 160 b 425 221 424 199 424 210 b 408 363 426 269 419 317 b 163 822 367 535 282 692 b 139 833 157 828 151 835 b 161 764 143 810 153 786 b 322 426 206 649 261 533 b 322 408 325 421 326 414 b 253 325 300 381 276 353 b 240 325 250 321 243 322 b 222 354 233 335 226 344 b 94 615 176 440 133 526 b 72 654 89 629 88 644 "},"Ö":{"ha":492,"x_min":0,"x_max":0,"o":"m 263 1300 b 271 1200 268 1286 271 1219 b 261 1174 272 1190 269 1181 b 192 1104 239 1150 215 1128 b 178 1110 188 1100 178 1104 b 175 1208 176 1143 175 1175 b 179 1222 175 1213 176 1218 b 190 1233 183 1226 186 1229 l 213 1257 b 224 1268 217 1261 219 1264 b 263 1300 235 1279 244 1292 m 121 1300 b 129 1200 128 1288 129 1219 b 121 1174 131 1190 128 1181 b 103 1156 115 1168 108 1161 l 68 1122 b 50 1104 63 1117 56 1110 b 36 1110 46 1100 36 1104 b 33 1208 35 1143 33 1175 b 39 1222 33 1213 35 1218 b 50 1233 43 1226 46 1229 l 71 1257 b 82 1268 75 1261 79 1264 b 121 1300 94 1279 104 1292 m -21 613 b -12 696 -19 640 -17 668 b 19 772 -8 725 0 750 b 32 817 32 785 36 799 b 60 911 25 853 33 885 b 86 940 69 921 78 931 l 111 972 b 143 989 119 983 131 989 b 164 985 150 989 157 988 b 289 876 207 971 261 910 b 499 440 392 747 464 603 b 506 264 511 382 518 324 b 463 171 499 229 486 199 b 400 96 442 146 421 121 b 321 56 375 68 350 56 b 203 106 281 56 233 81 b -10 510 81 199 11 361 b -21 613 -14 543 -17 578 m 72 654 b 72 651 72 653 72 651 l 71 643 b 71 640 71 643 71 642 b 110 468 78 582 89 524 b 383 158 150 353 254 185 b 422 186 410 153 419 160 b 425 221 424 199 424 210 b 408 363 426 269 419 317 b 163 822 367 535 282 692 b 139 833 157 828 151 835 b 161 764 143 810 153 786 b 322 426 206 649 261 533 b 322 408 325 421 326 414 b 253 325 300 381 276 353 b 240 325 250 321 243 322 b 222 354 233 335 226 344 b 94 615 176 440 133 526 b 72 654 89 629 88 644 "},"Ø":{"ha":492,"x_min":0,"x_max":0,"o":"m -21 613 b -12 696 -19 640 -17 668 b 19 772 -8 725 0 750 b 32 817 32 785 36 799 b 60 911 25 853 33 885 b 86 940 69 921 78 931 l 111 972 b 143 989 119 983 131 989 b 164 985 150 989 157 988 b 246 925 190 976 225 946 b 272 1044 254 965 263 1006 l 276 1060 b 367 1154 285 1086 344 1138 b 365 1122 372 1142 368 1132 b 308 851 343 1033 324 942 b 499 440 401 728 467 592 b 506 264 511 382 518 324 b 463 171 499 229 486 199 b 400 96 442 146 421 121 b 321 56 375 68 350 56 b 224 90 289 56 250 72 b 219 -12 222 56 221 21 b 193 -78 219 -39 214 -60 b 147 -122 176 -92 163 -107 b 131 -131 143 -126 138 -132 b 124 -115 122 -129 124 -121 b 140 165 124 -22 132 72 b -10 510 56 256 7 390 b -21 613 -14 543 -17 578 m 199 672 b 214 764 204 703 208 733 b 208 771 213 767 210 768 b 163 822 194 789 178 806 b 139 833 157 828 151 835 b 199 672 146 790 181 713 m 233 256 b 383 158 274 213 325 169 b 422 186 410 153 419 160 b 425 221 424 199 424 210 b 408 363 426 269 419 317 b 281 669 382 474 339 575 b 263 540 274 626 268 583 b 322 426 282 501 301 464 b 322 408 325 421 326 414 b 253 325 300 381 276 353 b 240 325 250 321 243 322 b 233 256 238 303 235 279 m 72 654 b 72 651 72 653 72 651 l 71 643 b 71 640 71 643 71 642 b 157 363 83 538 108 453 b 160 386 158 371 158 378 b 168 458 163 410 165 433 b 94 615 143 510 118 563 b 72 654 89 629 88 644 "},"Œ":{"ha":913,"x_min":0,"x_max":0,"o":"m 829 129 b 744 289 797 189 771 239 b 751 381 713 347 711 332 b 782 415 761 392 772 403 b 811 407 794 428 801 426 b 913 215 846 344 879 279 b 922 192 917 208 919 200 b 911 103 936 158 938 128 b 856 40 890 85 874 61 b 804 21 842 26 825 21 b 500 240 699 21 557 164 b 463 171 493 215 481 192 b 400 96 442 146 421 121 b 321 56 375 68 350 56 b 203 106 281 56 233 81 b -10 510 81 199 11 361 b -21 613 -14 543 -17 578 b -12 696 -19 640 -17 668 b 19 772 -8 725 0 750 b 32 817 32 785 36 799 b 60 911 25 853 33 885 b 86 940 69 921 78 931 l 111 972 b 143 989 119 983 131 989 b 164 985 150 989 157 988 b 210 957 181 979 196 968 b 465 567 317 874 419 688 l 465 568 b 467 569 467 569 467 569 b 467 618 490 596 483 596 b 360 824 421 683 385 751 b 351 853 357 833 354 843 b 371 940 342 888 344 917 b 424 1000 390 958 406 981 b 454 1001 432 1008 443 1010 b 503 961 471 989 488 975 b 572 892 526 939 550 914 b 582 913 586 896 581 906 b 588 935 585 919 583 929 b 657 1015 608 963 633 988 b 665 1003 663 1007 665 1006 b 707 822 671 942 686 881 b 715 793 710 813 713 801 b 711 753 722 776 721 764 b 653 686 690 731 672 708 b 618 686 642 675 633 674 b 542 750 592 707 567 729 b 514 765 533 756 529 767 b 689 567 553 692 625 619 b 721 540 700 558 711 550 b 725 524 726 536 731 529 b 661 450 704 499 683 474 b 635 449 654 442 644 444 b 542 492 604 464 572 479 b 497 504 526 499 513 506 b 488 492 489 504 485 500 b 829 129 539 365 699 164 m 72 654 b 72 651 72 653 72 653 l 71 643 b 71 640 71 642 71 642 b 110 468 78 582 89 524 b 383 158 150 353 254 185 b 422 186 410 153 419 160 b 425 221 424 199 424 210 b 408 363 426 269 419 317 b 163 822 367 535 282 692 b 139 833 157 828 151 835 b 161 764 143 810 153 786 b 322 426 206 649 261 533 b 322 408 325 421 326 414 b 253 325 300 381 276 353 b 240 325 250 321 243 322 b 222 354 233 335 226 344 b 94 615 176 440 133 526 b 72 654 89 629 88 644 "},"Š":{"ha":569,"x_min":0,"x_max":0,"o":"m 22 1469 b 117 1361 49 1451 110 1393 b 133 1344 118 1353 121 1344 b 185 1483 139 1367 172 1483 b 235 1440 193 1483 207 1468 b 258 1415 242 1432 250 1424 b 267 1376 272 1404 272 1393 b 193 1126 239 1294 214 1211 b 178 1099 192 1117 189 1108 b 161 1114 172 1104 167 1108 l 128 1146 b 111 1161 122 1151 117 1157 b 78 1225 92 1179 82 1200 b 22 1449 63 1300 44 1375 b 22 1469 19 1456 18 1461 m 100 469 b 108 469 101 471 104 469 b 143 338 99 419 113 376 b 454 114 225 232 328 156 b 489 111 465 110 476 104 b 376 278 483 149 401 249 b 196 486 317 347 257 417 b -18 831 117 579 13 711 b -7 882 -24 849 -19 867 b 10 901 -1 889 4 896 l 42 943 b 58 963 47 949 53 956 b 81 975 65 971 72 975 b 97 971 86 975 92 974 b 140 946 113 964 126 956 b 236 876 172 924 204 900 b 268 856 246 869 254 858 b 275 876 279 860 274 869 b 274 921 275 890 274 906 b 289 965 272 938 278 953 b 347 1038 310 989 329 1014 b 356 1018 361 1035 356 1025 b 389 814 357 949 371 882 b 357 669 413 715 415 746 b 325 631 347 657 336 644 b 285 658 307 635 296 649 b 167 763 246 693 206 729 b 144 772 161 768 156 776 b 315 546 147 742 290 575 b 454 386 363 493 408 440 b 586 179 499 335 569 246 b 576 119 593 157 590 138 b 503 26 553 88 528 57 b 431 0 483 6 458 -1 b 360 15 406 0 382 6 b 67 226 242 58 146 129 b 25 308 47 250 33 278 b 36 389 17 338 19 364 b 100 469 56 417 79 443 m 108 471 b 110 469 108 471 110 469 b 108 469 110 469 108 469 l 108 471 "},"Ù":{"ha":642,"x_min":0,"x_max":0,"o":"m 214 1389 b 281 1214 235 1325 256 1269 b 274 1158 292 1192 290 1175 b 221 1099 254 1139 238 1118 b 204 1113 208 1099 207 1107 b 142 1269 182 1164 161 1217 b 151 1321 135 1290 138 1307 b 214 1389 171 1342 188 1365 m -21 592 b 4 831 -11 674 -3 751 b 32 886 7 853 15 871 b 92 944 51 906 71 925 b 119 938 104 957 113 956 b 146 864 129 913 138 889 b 274 460 188 728 225 593 b 349 278 294 397 318 336 b 365 249 353 268 360 258 b 369 246 367 247 368 246 b 376 251 372 247 376 250 b 378 286 378 263 378 275 b 324 819 369 465 350 643 b 346 885 321 847 325 867 b 404 942 367 903 386 924 b 418 925 414 938 417 932 b 657 201 471 676 558 435 b 650 158 664 185 665 172 b 581 90 626 136 603 113 b 560 117 565 96 564 107 b 492 286 536 174 514 231 b 478 311 489 296 488 306 b 471 289 467 306 472 296 b 464 226 468 268 465 247 b 431 163 460 200 449 179 b 364 96 407 140 386 118 b 340 85 356 89 347 85 b 315 96 332 85 324 89 b 222 256 279 125 240 214 b 96 624 172 376 135 500 l 83 667 b 68 669 81 675 72 675 b 22 625 51 656 38 640 b -21 592 10 614 1 600 "},"Ú":{"ha":642,"x_min":0,"x_max":0,"o":"m 253 1381 b 306 1313 275 1357 288 1333 b 307 1261 317 1299 318 1282 b 222 1104 281 1208 253 1156 b 204 1090 219 1099 217 1090 b 160 1150 190 1110 176 1131 b 161 1206 146 1167 147 1183 b 253 1381 193 1261 222 1317 m -21 592 b 4 831 -11 674 -3 751 b 32 886 7 853 15 871 b 92 944 51 906 71 925 b 119 938 104 957 113 956 b 146 864 129 913 138 889 b 274 460 188 728 225 593 b 349 278 294 397 318 336 b 365 249 353 268 360 258 b 369 246 367 247 368 246 b 376 251 372 247 376 250 b 378 286 378 263 378 275 b 324 819 369 465 350 643 b 346 885 321 847 325 867 b 404 942 367 903 386 924 b 418 925 414 938 417 932 b 657 201 471 676 558 435 b 650 158 664 185 665 172 b 581 90 626 136 603 113 b 560 117 565 96 564 107 b 492 286 536 174 514 231 b 478 311 489 296 488 306 b 471 289 467 306 472 296 b 464 226 468 268 465 247 b 431 163 460 200 449 179 b 364 96 407 140 386 118 b 340 85 356 89 347 85 b 315 96 332 85 324 89 b 222 256 279 125 240 214 b 96 624 172 376 135 500 l 83 667 b 68 669 81 675 72 675 b 22 625 51 656 38 640 b -21 592 10 614 1 600 "},"Û":{"ha":642,"x_min":0,"x_max":0,"o":"m 139 1104 b 139 1125 135 1113 138 1118 b 194 1349 161 1199 179 1274 b 228 1413 199 1374 208 1396 b 294 1476 251 1433 271 1457 b 311 1447 306 1467 308 1457 b 385 1197 331 1363 356 1279 b 375 1158 390 1181 389 1169 b 369 1153 374 1157 371 1154 l 357 1140 b 301 1090 353 1131 310 1090 b 274 1154 292 1090 289 1111 b 268 1174 272 1161 269 1167 l 256 1211 b 250 1229 254 1217 253 1224 b 233 1214 239 1229 236 1221 b 203 1164 229 1193 218 1178 b 139 1104 182 1144 164 1121 m -21 592 b 4 831 -11 674 -3 751 b 32 886 7 853 15 871 b 92 944 51 906 71 925 b 119 938 104 957 113 956 b 146 864 129 913 138 889 b 274 460 188 728 225 593 b 349 278 294 397 318 336 b 365 249 353 268 360 258 b 369 246 367 247 368 246 b 376 251 372 247 376 250 b 378 286 378 263 378 275 b 324 819 369 465 350 643 b 346 885 321 847 325 867 b 404 942 367 903 386 924 b 418 925 414 938 417 932 b 657 201 471 676 558 435 b 650 158 664 185 665 172 b 581 90 626 136 603 113 b 560 117 565 96 564 107 b 492 286 536 174 514 231 b 478 311 489 296 488 306 b 471 289 467 306 472 296 b 464 226 468 268 465 247 b 431 163 460 200 449 179 b 364 96 407 140 386 118 b 340 85 356 89 347 85 b 315 96 332 85 324 89 b 222 256 279 125 240 214 b 96 624 172 376 135 500 l 83 667 b 68 669 81 675 72 675 b 22 625 51 656 38 640 b -21 592 10 614 1 600 "},"Ü":{"ha":642,"x_min":0,"x_max":0,"o":"m 347 1289 b 356 1189 353 1275 356 1208 b 346 1163 357 1179 354 1169 b 276 1093 324 1139 300 1117 b 263 1099 272 1089 263 1093 b 260 1197 261 1132 260 1164 b 264 1211 260 1201 261 1207 b 275 1222 268 1215 271 1218 l 297 1246 b 308 1257 301 1250 304 1253 b 347 1289 319 1268 329 1281 m 206 1289 b 214 1189 213 1276 214 1208 b 206 1163 215 1179 213 1169 b 188 1144 200 1157 193 1150 l 153 1111 b 135 1093 147 1106 140 1099 b 121 1099 131 1089 121 1093 b 118 1197 119 1132 118 1164 b 124 1211 118 1201 119 1207 b 135 1222 128 1215 131 1218 l 156 1246 b 167 1257 160 1250 164 1253 b 206 1289 179 1268 189 1281 m -21 592 b 4 831 -11 674 -3 751 b 32 886 7 853 15 871 b 92 944 51 906 71 925 b 119 938 104 957 113 956 b 146 864 129 913 138 889 b 274 460 188 728 225 593 b 349 278 294 397 318 336 b 365 249 353 268 360 258 b 369 246 367 247 368 246 b 376 251 372 247 376 250 b 378 286 378 263 378 275 b 324 819 369 465 350 643 b 346 885 321 847 325 867 b 404 942 367 903 386 924 b 418 925 414 938 417 932 b 657 201 471 676 558 435 b 650 158 664 185 665 172 b 581 90 626 136 603 113 b 560 117 565 96 564 107 b 492 286 536 174 514 231 b 478 311 489 296 488 306 b 471 289 467 306 472 296 b 464 226 468 268 465 247 b 431 163 460 200 449 179 b 364 96 407 140 386 118 b 340 85 356 89 347 85 b 315 96 332 85 324 89 b 222 256 279 125 240 214 b 96 624 172 376 135 500 l 83 667 b 68 669 81 675 72 675 b 22 625 51 656 38 640 b -21 592 10 614 1 600 "},"Ÿ":{"ha":626,"x_min":0,"x_max":0,"o":"m 318 1289 b 326 1189 324 1275 326 1208 b 317 1163 328 1179 325 1169 b 247 1093 294 1139 271 1117 b 233 1099 243 1089 233 1093 b 231 1197 232 1132 231 1164 b 235 1211 231 1201 232 1207 b 246 1222 239 1215 242 1218 l 268 1246 b 279 1257 272 1250 275 1253 b 318 1289 290 1268 300 1281 m 176 1289 b 185 1189 183 1276 185 1208 b 176 1163 186 1179 183 1169 b 158 1144 171 1157 164 1150 l 124 1111 b 106 1093 118 1106 111 1099 b 92 1099 101 1089 92 1093 b 89 1197 90 1132 89 1164 b 94 1211 89 1201 90 1207 b 106 1222 99 1215 101 1218 l 126 1246 b 138 1257 131 1250 135 1253 b 176 1289 150 1268 160 1281 m 138 22 b 136 253 157 108 143 181 b 153 301 135 274 138 288 b 224 367 176 321 194 346 b 238 272 233 333 235 303 b 243 178 240 242 239 211 b 460 251 353 253 317 239 b 460 260 460 254 460 258 b 294 649 400 388 342 517 b 275 625 281 643 279 633 b 263 592 271 614 267 603 l 236 525 b 224 492 232 514 228 503 b 181 426 215 467 201 444 b 121 368 161 408 142 388 b 100 372 115 363 104 365 l 90 394 b -19 818 44 533 1 674 b -4 863 -22 835 -18 850 b 51 918 15 881 33 900 b 68 926 57 922 63 926 b 76 911 76 926 76 918 b 164 553 89 788 126 671 b 172 536 165 547 169 542 b 189 560 183 542 186 551 b 251 715 210 613 229 664 b 254 778 260 738 261 757 b 233 843 246 800 239 821 b 249 906 226 867 228 888 b 310 963 271 924 289 944 b 325 958 314 968 322 965 b 558 343 376 743 464 542 b 578 304 565 331 572 317 l 619 225 b 639 185 625 211 632 199 b 633 142 650 161 650 160 b 571 79 613 121 590 100 b 540 76 561 69 551 69 b 321 153 476 121 400 153 b 271 149 304 153 288 151 b 233 122 256 144 243 139 b 138 22 211 85 176 60 "},"Ý":{"ha":626,"x_min":0,"x_max":0,"o":"m 201 1382 b 254 1314 224 1358 236 1335 b 256 1263 265 1300 267 1283 b 171 1106 229 1210 201 1157 b 153 1092 168 1100 165 1092 b 108 1151 139 1111 125 1132 b 110 1207 94 1168 96 1185 b 201 1382 142 1263 171 1318 m 138 22 b 136 253 157 108 143 181 b 153 301 135 274 138 288 b 224 367 176 321 194 346 b 238 272 233 333 235 303 b 243 178 240 242 239 211 b 460 251 353 253 317 239 b 460 260 460 254 460 258 b 294 649 400 388 342 517 b 275 625 281 643 279 633 b 263 592 271 614 267 603 l 236 525 b 224 492 232 514 228 503 b 181 426 215 467 201 444 b 121 368 161 408 142 388 b 100 372 115 363 104 365 l 90 394 b -19 818 44 533 1 674 b -4 863 -22 835 -18 850 b 51 918 15 881 33 900 b 68 926 57 922 63 926 b 76 911 76 926 76 918 b 164 553 89 788 126 671 b 172 536 165 547 169 542 b 189 560 183 542 186 551 b 251 715 210 613 229 664 b 254 778 260 738 261 757 b 233 843 246 800 239 821 b 249 906 226 867 228 888 b 310 963 271 924 289 944 b 325 958 314 968 322 965 b 558 343 376 743 464 542 b 578 304 565 331 572 317 l 619 225 b 639 185 625 211 632 199 b 633 142 650 161 650 160 b 571 79 613 121 590 100 b 540 76 561 69 551 69 b 321 153 476 121 400 153 b 271 149 304 153 288 151 b 233 122 256 144 243 139 b 138 22 211 85 176 60 "},"Ž":{"ha":700,"x_min":0,"x_max":0,"o":"m 96 1463 b 190 1354 122 1444 183 1386 b 207 1338 192 1346 194 1338 b 258 1476 213 1360 246 1476 b 308 1433 267 1476 281 1461 b 332 1408 315 1425 324 1417 b 340 1369 346 1397 346 1386 b 267 1119 313 1288 288 1204 b 251 1092 265 1110 263 1101 b 235 1107 246 1097 240 1101 l 201 1139 b 185 1154 196 1144 190 1150 b 151 1218 165 1172 156 1193 b 96 1442 136 1293 118 1368 b 96 1463 93 1449 92 1454 m 633 126 b 600 157 615 132 608 146 b 451 231 568 203 513 231 b 265 143 385 231 307 194 b 189 68 243 115 214 93 b 179 67 186 65 182 65 b 175 74 178 68 175 72 b 394 853 201 321 246 649 b 396 863 396 856 396 858 b 354 858 382 868 368 861 b 185 829 299 847 242 835 b 169 826 179 829 175 828 b 160 807 157 824 154 818 b 199 743 174 785 186 765 b 192 696 211 718 211 715 b 119 624 169 672 146 650 b -11 813 86 694 39 753 b -10 846 -24 828 -24 832 b 1 857 -6 850 -3 854 b 65 917 22 878 40 903 b 92 922 74 921 82 922 b 149 917 110 922 131 917 b 401 944 233 915 318 928 b 424 950 408 946 417 947 l 467 958 b 489 964 475 961 482 963 b 507 964 494 965 501 968 b 506 961 507 964 507 963 l 506 957 b 275 215 351 778 304 440 b 276 188 274 207 271 197 b 307 208 292 186 299 200 b 475 317 363 264 403 289 b 492 354 503 326 503 326 b 456 440 479 383 467 413 b 439 482 450 454 446 469 b 449 521 432 499 436 510 b 524 596 474 544 496 571 b 613 386 551 525 581 456 b 711 233 638 331 668 278 b 710 200 724 219 724 214 b 633 126 685 175 661 147 "},"à":{"ha":511,"x_min":0,"x_max":0,"o":"m 146 1382 b 213 1207 167 1318 188 1263 b 206 1151 224 1185 222 1168 b 153 1092 186 1132 169 1111 b 136 1106 140 1092 139 1100 b 74 1263 114 1157 93 1210 b 83 1314 67 1283 69 1300 b 146 1382 103 1335 119 1358 m 425 -18 b 428 18 418 0 425 8 b 419 176 444 72 440 125 b 414 190 418 182 415 186 b 336 251 392 243 392 243 b 224 264 299 257 261 260 b 199 246 210 265 203 260 b 167 158 189 217 178 188 b 101 61 154 121 133 88 b 58 22 88 49 76 32 b 68 60 51 38 63 49 b 119 239 94 117 111 176 b 96 263 124 260 118 265 b 14 249 68 260 42 254 b -19 246 3 247 -8 242 b -10 267 -24 256 -15 261 b -3 275 -7 269 -4 272 l 14 290 b 100 344 40 318 60 338 b 124 374 122 347 124 351 b 99 519 119 422 110 471 b 58 742 83 593 67 667 b 57 929 53 804 51 867 b 79 976 58 949 65 964 b 139 1035 100 996 119 1015 b 150 1036 142 1036 146 1036 b 158 960 153 1011 154 985 b 338 558 181 814 256 679 b 469 357 383 492 429 426 b 493 326 476 346 492 338 b 522 243 497 297 514 272 b 526 121 533 203 535 163 b 481 36 519 89 507 60 b 425 -18 461 21 446 3 m 215 493 b 221 426 217 469 218 447 b 226 365 222 406 214 385 b 292 360 247 363 268 361 l 296 361 b 299 361 297 361 299 361 b 306 375 306 361 310 369 b 224 492 279 415 254 456 b 215 493 224 493 221 493 "},"á":{"ha":511,"x_min":0,"x_max":0,"o":"m 193 1382 b 246 1314 215 1358 228 1335 b 247 1263 257 1300 258 1283 b 163 1106 221 1210 193 1157 b 144 1092 160 1100 157 1092 b 100 1151 131 1111 117 1132 b 101 1207 86 1168 88 1185 b 193 1382 133 1263 163 1318 m 425 -18 b 428 18 418 0 425 8 b 419 176 444 72 440 125 b 414 190 418 182 415 186 b 336 251 392 243 392 243 b 224 264 299 257 261 260 b 199 246 210 265 203 260 b 167 158 189 217 178 188 b 101 61 154 121 133 88 b 58 22 88 49 76 32 b 68 60 51 38 63 49 b 119 239 94 117 111 176 b 96 263 124 260 118 265 b 14 249 68 260 42 254 b -19 246 3 247 -8 242 b -10 267 -24 256 -15 261 b -3 275 -7 269 -4 272 l 14 290 b 100 344 40 318 60 338 b 124 374 122 347 124 351 b 99 519 119 422 110 471 b 58 742 83 593 67 667 b 57 929 53 804 51 867 b 79 976 58 949 65 964 b 139 1035 100 996 119 1015 b 150 1036 142 1036 146 1036 b 158 960 153 1011 154 985 b 338 558 181 814 256 679 b 469 357 383 492 429 426 b 493 326 476 346 492 338 b 522 243 497 297 514 272 b 526 121 533 203 535 163 b 481 36 519 89 507 60 b 425 -18 461 21 446 3 m 215 493 b 221 426 217 469 218 447 b 226 365 222 406 214 385 b 292 360 247 363 268 361 l 296 361 b 299 361 297 361 299 361 b 306 375 306 361 310 369 b 224 492 279 415 254 456 b 215 493 224 493 221 493 "}}}
